{"glyphs":{"0":{"ha":814,"x_min":79,"x_max":735,"o":"m 407 -14 q 79 475 79 -14 q 407 977 79 977 q 735 475 735 977 q 407 -14 735 -14 m 407 111 q 590 475 590 111 q 407 852 590 852 q 224 475 224 852 q 407 111 224 111 m 407 373 q 333 401 361 373 q 305 475 305 429 q 333 549 305 521 q 407 576 361 576 q 481 549 453 576 q 509 475 509 521 q 481 401 509 429 q 407 373 453 373 z "},"1":{"ha":814,"x_min":115,"x_max":713,"o":"m 115 0 l 115 129 l 357 129 l 357 823 l 129 745 l 129 882 l 357 963 l 498 963 l 498 129 l 713 129 l 713 0 l 115 0 z "},"2":{"ha":814,"x_min":72,"x_max":730,"o":"m 103 0 l 103 155 q 436 411 326 278 q 547 686 547 545 q 382 852 547 852 q 268 820 328 852 q 165 735 208 788 l 72 828 q 205 936 119 895 q 385 977 291 977 q 689 686 689 977 q 596 407 689 541 q 315 149 504 273 l 315 129 l 730 129 l 730 0 l 103 0 z "},"3":{"ha":814,"x_min":85,"x_max":708,"o":"m 349 -14 q 212 -5 274 -14 q 102 19 150 4 l 119 149 q 212 124 160 137 q 343 111 264 111 q 507 153 449 111 q 566 271 566 195 q 491 397 566 353 q 279 441 416 441 l 258 441 l 241 529 q 473 602 401 551 q 545 727 545 653 q 507 819 545 786 q 397 852 469 852 q 288 826 346 852 q 178 749 230 800 l 85 842 q 229 944 147 912 q 412 977 311 977 q 616 921 544 977 q 688 761 688 865 q 632 610 688 674 q 487 522 576 546 l 487 508 q 647 426 587 490 q 708 258 708 362 q 614 58 708 129 q 349 -14 520 -14 z "},"4":{"ha":814,"x_min":50,"x_max":760,"o":"m 50 216 l 186 909 l 332 909 l 220 342 l 528 342 l 528 963 l 669 963 l 669 342 l 760 342 l 760 216 l 669 216 l 669 0 l 528 0 l 528 216 l 50 216 z "},"5":{"ha":814,"x_min":90,"x_max":742,"o":"m 416 -14 q 175 61 260 -14 q 90 270 90 135 l 235 270 q 282 153 235 195 q 418 111 330 111 q 552 163 505 111 q 600 311 600 216 q 548 455 600 404 q 401 506 496 506 q 224 461 307 506 l 148 461 l 161 963 l 681 963 l 681 837 l 302 837 l 295 604 q 372 623 334 618 q 449 628 410 628 q 665 545 589 628 q 742 311 742 463 q 657 71 742 156 q 416 -14 572 -14 z "},"6":{"ha":814,"x_min":87,"x_max":742,"o":"m 412 -14 q 166 70 245 -14 q 87 330 87 153 l 87 389 q 227 809 87 665 q 654 967 367 953 l 667 838 q 237 453 238 820 l 250 453 q 331 569 270 528 q 479 610 391 610 q 673 532 605 610 q 742 312 742 454 q 655 73 742 159 q 412 -14 568 -14 m 417 111 q 551 164 503 111 q 600 312 600 218 q 555 440 600 395 q 428 486 511 486 q 283 437 334 486 q 232 298 232 388 q 281 161 232 210 q 417 111 330 111 z "},"7":{"ha":814,"x_min":76,"x_max":783,"o":"m 296 0 l 583 834 l 221 834 l 221 625 l 76 625 l 76 963 l 783 963 l 452 0 l 296 0 z "},"8":{"ha":814,"x_min":79,"x_max":735,"o":"m 407 -14 q 164 59 250 -14 q 79 264 79 132 q 135 424 79 361 q 294 507 191 486 l 294 517 q 155 593 203 538 q 106 732 106 648 q 185 912 106 848 q 407 977 264 977 q 629 912 551 977 q 708 732 708 848 q 660 593 708 648 q 521 517 611 538 l 521 507 q 680 424 624 486 q 735 264 735 361 q 649 59 735 132 q 407 -14 564 -14 m 407 111 q 544 153 496 111 q 593 271 593 195 q 544 398 593 353 q 407 444 496 444 q 270 398 318 444 q 221 271 221 353 q 270 153 221 195 q 407 111 318 111 m 407 574 q 524 609 483 574 q 566 705 566 644 q 524 814 566 776 q 407 852 483 852 q 290 814 331 852 q 248 705 248 776 q 290 609 248 644 q 407 574 331 574 z "},"9":{"ha":814,"x_min":79,"x_max":734,"o":"m 342 343 q 147 421 216 343 q 79 642 79 499 q 166 881 79 795 q 408 967 253 967 q 655 884 576 967 q 734 624 734 800 l 734 564 q 594 145 734 289 q 167 -14 454 1 l 153 115 q 583 500 583 134 l 571 500 q 490 384 551 425 q 342 343 429 343 m 393 468 q 538 517 487 468 q 589 655 589 566 q 540 793 589 743 q 404 842 491 842 q 269 789 317 842 q 221 642 221 736 q 266 513 221 558 q 393 468 310 468 z "},"Ƈ":{"ha":814,"x_min":87,"x_max":727,"o":"m 87 0 l 87 963 l 727 963 l 727 0 l 87 0 m 583 129 l 583 834 l 231 834 l 231 129 l 583 129 z "},"ƈ":{"ha":814,"x_min":87,"x_max":727,"o":"m 87 0 l 87 963 l 727 963 l 727 0 l 87 0 m 583 129 l 583 834 l 231 834 l 231 129 l 583 129 z "},"ƕ":{"ha":814,"x_min":87,"x_max":727,"o":"m 87 0 l 87 963 l 727 963 l 727 0 l 87 0 m 583 129 l 583 834 l 231 834 l 231 129 l 583 129 z "},"Ɨ":{"ha":814,"x_min":87,"x_max":727,"o":"m 87 0 l 87 963 l 727 963 l 727 0 l 87 0 m 583 129 l 583 834 l 231 834 l 231 129 l 583 129 z "},"Ƙ":{"ha":814,"x_min":87,"x_max":727,"o":"m 87 0 l 87 963 l 727 963 l 727 0 l 87 0 m 583 129 l 583 834 l 231 834 l 231 129 l 583 129 z "},"ƙ":{"ha":814,"x_min":87,"x_max":727,"o":"m 87 0 l 87 963 l 727 963 l 727 0 l 87 0 m 583 129 l 583 834 l 231 834 l 231 129 l 583 129 z "},"Ɯ":{"ha":814,"x_min":87,"x_max":727,"o":"m 87 0 l 87 963 l 727 963 l 727 0 l 87 0 m 583 129 l 583 834 l 231 834 l 231 129 l 583 129 z "},"ƞ":{"ha":814,"x_min":87,"x_max":727,"o":"m 87 0 l 87 963 l 727 963 l 727 0 l 87 0 m 583 129 l 583 834 l 231 834 l 231 129 l 583 129 z "},"Ɵ":{"ha":814,"x_min":87,"x_max":727,"o":"m 87 0 l 87 963 l 727 963 l 727 0 l 87 0 m 583 129 l 583 834 l 231 834 l 231 129 l 583 129 z "},"Ǩ":{"ha":814,"x_min":87,"x_max":727,"o":"m 87 0 l 87 963 l 727 963 l 727 0 l 87 0 m 583 129 l 583 834 l 231 834 l 231 129 l 583 129 z "},"ǩ":{"ha":814,"x_min":87,"x_max":727,"o":"m 87 0 l 87 963 l 727 963 l 727 0 l 87 0 m 583 129 l 583 834 l 231 834 l 231 129 l 583 129 z "},"Ȝ":{"ha":814,"x_min":87,"x_max":727,"o":"m 87 0 l 87 963 l 727 963 l 727 0 l 87 0 m 583 129 l 583 834 l 231 834 l 231 129 l 583 129 z "},"ȝ":{"ha":814,"x_min":87,"x_max":727,"o":"m 87 0 l 87 963 l 727 963 l 727 0 l 87 0 m 583 129 l 583 834 l 231 834 l 231 129 l 583 129 z "},"ȴ":{"ha":814,"x_min":87,"x_max":727,"o":"m 87 0 l 87 963 l 727 963 l 727 0 l 87 0 m 583 129 l 583 834 l 231 834 l 231 129 l 583 129 z "},"ȵ":{"ha":814,"x_min":87,"x_max":727,"o":"m 87 0 l 87 963 l 727 963 l 727 0 l 87 0 m 583 129 l 583 834 l 231 834 l 231 129 l 583 129 z "},"ȶ":{"ha":814,"x_min":87,"x_max":727,"o":"m 87 0 l 87 963 l 727 963 l 727 0 l 87 0 m 583 129 l 583 834 l 231 834 l 231 129 l 583 129 z "},"ȸ":{"ha":814,"x_min":87,"x_max":727,"o":"m 87 0 l 87 963 l 727 963 l 727 0 l 87 0 m 583 129 l 583 834 l 231 834 l 231 129 l 583 129 z "},"ȹ":{"ha":814,"x_min":87,"x_max":727,"o":"m 87 0 l 87 963 l 727 963 l 727 0 l 87 0 m 583 129 l 583 834 l 231 834 l 231 129 l 583 129 z "},"ȼ":{"ha":814,"x_min":87,"x_max":727,"o":"m 87 0 l 87 963 l 727 963 l 727 0 l 87 0 m 583 129 l 583 834 l 231 834 l 231 129 l 583 129 z "},"ɒ":{"ha":814,"x_min":87,"x_max":727,"o":"m 87 0 l 87 963 l 727 963 l 727 0 l 87 0 m 583 129 l 583 834 l 231 834 l 231 129 l 583 129 z "},"ɓ":{"ha":814,"x_min":87,"x_max":727,"o":"m 87 0 l 87 963 l 727 963 l 727 0 l 87 0 m 583 129 l 583 834 l 231 834 l 231 129 l 583 129 z "},"ɕ":{"ha":814,"x_min":87,"x_max":727,"o":"m 87 0 l 87 963 l 727 963 l 727 0 l 87 0 m 583 129 l 583 834 l 231 834 l 231 129 l 583 129 z "},"ɗ":{"ha":814,"x_min":87,"x_max":727,"o":"m 87 0 l 87 963 l 727 963 l 727 0 l 87 0 m 583 129 l 583 834 l 231 834 l 231 129 l 583 129 z "},"ɘ":{"ha":814,"x_min":87,"x_max":727,"o":"m 87 0 l 87 963 l 727 963 l 727 0 l 87 0 m 583 129 l 583 834 l 231 834 l 231 129 l 583 129 z "},"ɚ":{"ha":814,"x_min":87,"x_max":727,"o":"m 87 0 l 87 963 l 727 963 l 727 0 l 87 0 m 583 129 l 583 834 l 231 834 l 231 129 l 583 129 z "},"ʓ":{"ha":814,"x_min":87,"x_max":727,"o":"m 87 0 l 87 963 l 727 963 l 727 0 l 87 0 m 583 129 l 583 834 l 231 834 l 231 129 l 583 129 z "},"ʹ":{"ha":814,"x_min":87,"x_max":727,"o":"m 87 0 l 87 963 l 727 963 l 727 0 l 87 0 m 583 129 l 583 834 l 231 834 l 231 129 l 583 129 z "},"ʺ":{"ha":814,"x_min":87,"x_max":727,"o":"m 87 0 l 87 963 l 727 963 l 727 0 l 87 0 m 583 129 l 583 834 l 231 834 l 231 129 l 583 129 z "},"ʽ":{"ha":814,"x_min":87,"x_max":727,"o":"m 87 0 l 87 963 l 727 963 l 727 0 l 87 0 m 583 129 l 583 834 l 231 834 l 231 129 l 583 129 z "},"ʾ":{"ha":814,"x_min":87,"x_max":727,"o":"m 87 0 l 87 963 l 727 963 l 727 0 l 87 0 m 583 129 l 583 834 l 231 834 l 231 129 l 583 129 z "},"ʿ":{"ha":814,"x_min":87,"x_max":727,"o":"m 87 0 l 87 963 l 727 963 l 727 0 l 87 0 m 583 129 l 583 834 l 231 834 l 231 129 l 583 129 z "},"ˈ":{"ha":814,"x_min":87,"x_max":727,"o":"m 87 0 l 87 963 l 727 963 l 727 0 l 87 0 m 583 129 l 583 834 l 231 834 l 231 129 l 583 129 z "},"̔":{"ha":814,"x_min":87,"x_max":727,"o":"m 87 0 l 87 963 l 727 963 l 727 0 l 87 0 m 583 129 l 583 834 l 231 834 l 231 129 l 583 129 z "},"̤":{"ha":814,"x_min":87,"x_max":727,"o":"m 87 0 l 87 963 l 727 963 l 727 0 l 87 0 m 583 129 l 583 834 l 231 834 l 231 129 l 583 129 z "},"Ҕ":{"ha":814,"x_min":87,"x_max":727,"o":"m 87 0 l 87 963 l 727 963 l 727 0 l 87 0 m 583 129 l 583 834 l 231 834 l 231 129 l 583 129 z "},"ҕ":{"ha":814,"x_min":87,"x_max":727,"o":"m 87 0 l 87 963 l 727 963 l 727 0 l 87 0 m 583 129 l 583 834 l 231 834 l 231 129 l 583 129 z "},"Ҙ":{"ha":814,"x_min":87,"x_max":727,"o":"m 87 0 l 87 963 l 727 963 l 727 0 l 87 0 m 583 129 l 583 834 l 231 834 l 231 129 l 583 129 z "},"ҙ":{"ha":814,"x_min":87,"x_max":727,"o":"m 87 0 l 87 963 l 727 963 l 727 0 l 87 0 m 583 129 l 583 834 l 231 834 l 231 129 l 583 129 z "},"Ҹ":{"ha":814,"x_min":87,"x_max":727,"o":"m 87 0 l 87 963 l 727 963 l 727 0 l 87 0 m 583 129 l 583 834 l 231 834 l 231 129 l 583 129 z "},"ҹ":{"ha":814,"x_min":87,"x_max":727,"o":"m 87 0 l 87 963 l 727 963 l 727 0 l 87 0 m 583 129 l 583 834 l 231 834 l 231 129 l 583 129 z "},"ֻ":{"ha":814,"x_min":87,"x_max":727,"o":"m 87 0 l 87 963 l 727 963 l 727 0 l 87 0 m 583 129 l 583 834 l 231 834 l 231 129 l 583 129 z "},"ֽ":{"ha":814,"x_min":87,"x_max":727,"o":"m 87 0 l 87 963 l 727 963 l 727 0 l 87 0 m 583 129 l 583 834 l 231 834 l 231 129 l 583 129 z "},"ֿ":{"ha":814,"x_min":87,"x_max":727,"o":"m 87 0 l 87 963 l 727 963 l 727 0 l 87 0 m 583 129 l 583 834 l 231 834 l 231 129 l 583 129 z "},"ٙ":{"ha":814,"x_min":87,"x_max":727,"o":"m 87 0 l 87 963 l 727 963 l 727 0 l 87 0 m 583 129 l 583 834 l 231 834 l 231 129 l 583 129 z "},"۟":{"ha":814,"x_min":87,"x_max":727,"o":"m 87 0 l 87 963 l 727 963 l 727 0 l 87 0 m 583 129 l 583 834 l 231 834 l 231 129 l 583 129 z "},"۠":{"ha":814,"x_min":87,"x_max":727,"o":"m 87 0 l 87 963 l 727 963 l 727 0 l 87 0 m 583 129 l 583 834 l 231 834 l 231 129 l 583 129 z "},"ۡ":{"ha":814,"x_min":87,"x_max":727,"o":"m 87 0 l 87 963 l 727 963 l 727 0 l 87 0 m 583 129 l 583 834 l 231 834 l 231 129 l 583 129 z "},"ࢹ":{"ha":814,"x_min":87,"x_max":727,"o":"m 87 0 l 87 963 l 727 963 l 727 0 l 87 0 m 583 129 l 583 834 l 231 834 l 231 129 l 583 129 z "},"ࢻ":{"ha":814,"x_min":87,"x_max":727,"o":"m 87 0 l 87 963 l 727 963 l 727 0 l 87 0 m 583 129 l 583 834 l 231 834 l 231 129 l 583 129 z "},"ᶼ":{"ha":814,"x_min":87,"x_max":727,"o":"m 87 0 l 87 963 l 727 963 l 727 0 l 87 0 m 583 129 l 583 834 l 231 834 l 231 129 l 583 129 z "},"ᶽ":{"ha":814,"x_min":87,"x_max":727,"o":"m 87 0 l 87 963 l 727 963 l 727 0 l 87 0 m 583 129 l 583 834 l 231 834 l 231 129 l 583 129 z "},"ᶾ":{"ha":814,"x_min":87,"x_max":727,"o":"m 87 0 l 87 963 l 727 963 l 727 0 l 87 0 m 583 129 l 583 834 l 231 834 l 231 129 l 583 129 z "},"‒":{"ha":814,"x_min":87,"x_max":727,"o":"m 87 0 l 87 963 l 727 963 l 727 0 l 87 0 m 583 129 l 583 834 l 231 834 l 231 129 l 583 129 z "},"‣":{"ha":814,"x_min":87,"x_max":727,"o":"m 87 0 l 87 963 l 727 963 l 727 0 l 87 0 m 583 129 l 583 834 l 231 834 l 231 129 l 583 129 z "},"‥":{"ha":814,"x_min":87,"x_max":727,"o":"m 87 0 l 87 963 l 727 963 l 727 0 l 87 0 m 583 129 l 583 834 l 231 834 l 231 129 l 583 129 z "},"‧":{"ha":814,"x_min":87,"x_max":727,"o":"m 87 0 l 87 963 l 727 963 l 727 0 l 87 0 m 583 129 l 583 834 l 231 834 l 231 129 l 583 129 z "},"‱":{"ha":814,"x_min":87,"x_max":727,"o":"m 87 0 l 87 963 l 727 963 l 727 0 l 87 0 m 583 129 l 583 834 l 231 834 l 231 129 l 583 129 z "},"※":{"ha":814,"x_min":87,"x_max":727,"o":"m 87 0 l 87 963 l 727 963 l 727 0 l 87 0 m 583 129 l 583 834 l 231 834 l 231 129 l 583 129 z "},"‽":{"ha":814,"x_min":87,"x_max":727,"o":"m 87 0 l 87 963 l 727 963 l 727 0 l 87 0 m 583 129 l 583 834 l 231 834 l 231 129 l 583 129 z "},"₢":{"ha":814,"x_min":87,"x_max":727,"o":"m 87 0 l 87 963 l 727 963 l 727 0 l 87 0 m 583 129 l 583 834 l 231 834 l 231 129 l 583 129 z "},"₳":{"ha":814,"x_min":87,"x_max":727,"o":"m 87 0 l 87 963 l 727 963 l 727 0 l 87 0 m 583 129 l 583 834 l 231 834 l 231 129 l 583 129 z "},"₶":{"ha":814,"x_min":87,"x_max":727,"o":"m 87 0 l 87 963 l 727 963 l 727 0 l 87 0 m 583 129 l 583 834 l 231 834 l 231 129 l 583 129 z "},"₷":{"ha":814,"x_min":87,"x_max":727,"o":"m 87 0 l 87 963 l 727 963 l 727 0 l 87 0 m 583 129 l 583 834 l 231 834 l 231 129 l 583 129 z "},"₻":{"ha":814,"x_min":87,"x_max":727,"o":"m 87 0 l 87 963 l 727 963 l 727 0 l 87 0 m 583 129 l 583 834 l 231 834 l 231 129 l 583 129 z "},"℔":{"ha":814,"x_min":87,"x_max":727,"o":"m 87 0 l 87 963 l 727 963 l 727 0 l 87 0 m 583 129 l 583 834 l 231 834 l 231 129 l 583 129 z "},"ℕ":{"ha":814,"x_min":87,"x_max":727,"o":"m 87 0 l 87 963 l 727 963 l 727 0 l 87 0 m 583 129 l 583 834 l 231 834 l 231 129 l 583 129 z "},"℟":{"ha":814,"x_min":87,"x_max":727,"o":"m 87 0 l 87 963 l 727 963 l 727 0 l 87 0 m 583 129 l 583 834 l 231 834 l 231 129 l 583 129 z "},"℠":{"ha":814,"x_min":87,"x_max":727,"o":"m 87 0 l 87 963 l 727 963 l 727 0 l 87 0 m 583 129 l 583 834 l 231 834 l 231 129 l 583 129 z "},"℡":{"ha":814,"x_min":87,"x_max":727,"o":"m 87 0 l 87 963 l 727 963 l 727 0 l 87 0 m 583 129 l 583 834 l 231 834 l 231 129 l 583 129 z "},"℣":{"ha":814,"x_min":87,"x_max":727,"o":"m 87 0 l 87 963 l 727 963 l 727 0 l 87 0 m 583 129 l 583 834 l 231 834 l 231 129 l 583 129 z "},"ℤ":{"ha":814,"x_min":87,"x_max":727,"o":"m 87 0 l 87 963 l 727 963 l 727 0 l 87 0 m 583 129 l 583 834 l 231 834 l 231 129 l 583 129 z "},"℥":{"ha":814,"x_min":87,"x_max":727,"o":"m 87 0 l 87 963 l 727 963 l 727 0 l 87 0 m 583 129 l 583 834 l 231 834 l 231 129 l 583 129 z "},"⇢":{"ha":814,"x_min":87,"x_max":727,"o":"m 87 0 l 87 963 l 727 963 l 727 0 l 87 0 m 583 129 l 583 834 l 231 834 l 231 129 l 583 129 z "},"∃":{"ha":814,"x_min":87,"x_max":727,"o":"m 87 0 l 87 963 l 727 963 l 727 0 l 87 0 m 583 129 l 583 834 l 231 834 l 231 129 l 583 129 z "},"∄":{"ha":814,"x_min":87,"x_max":727,"o":"m 87 0 l 87 963 l 727 963 l 727 0 l 87 0 m 583 129 l 583 834 l 231 834 l 231 129 l 583 129 z "},"∅":{"ha":814,"x_min":87,"x_max":727,"o":"m 87 0 l 87 963 l 727 963 l 727 0 l 87 0 m 583 129 l 583 834 l 231 834 l 231 129 l 583 129 z "},"∐":{"ha":814,"x_min":87,"x_max":727,"o":"m 87 0 l 87 963 l 727 963 l 727 0 l 87 0 m 583 129 l 583 834 l 231 834 l 231 129 l 583 129 z "},"∓":{"ha":814,"x_min":87,"x_max":727,"o":"m 87 0 l 87 963 l 727 963 l 727 0 l 87 0 m 583 129 l 583 834 l 231 834 l 231 129 l 583 129 z "},"∔":{"ha":814,"x_min":87,"x_max":727,"o":"m 87 0 l 87 963 l 727 963 l 727 0 l 87 0 m 583 129 l 583 834 l 231 834 l 231 129 l 583 129 z "},"∖":{"ha":814,"x_min":87,"x_max":727,"o":"m 87 0 l 87 963 l 727 963 l 727 0 l 87 0 m 583 129 l 583 834 l 231 834 l 231 129 l 583 129 z "},"∗":{"ha":814,"x_min":87,"x_max":727,"o":"m 87 0 l 87 963 l 727 963 l 727 0 l 87 0 m 583 129 l 583 834 l 231 834 l 231 129 l 583 129 z "},"∘":{"ha":814,"x_min":87,"x_max":727,"o":"m 87 0 l 87 963 l 727 963 l 727 0 l 87 0 m 583 129 l 583 834 l 231 834 l 231 129 l 583 129 z "},"∛":{"ha":814,"x_min":87,"x_max":727,"o":"m 87 0 l 87 963 l 727 963 l 727 0 l 87 0 m 583 129 l 583 834 l 231 834 l 231 129 l 583 129 z "},"∜":{"ha":814,"x_min":87,"x_max":727,"o":"m 87 0 l 87 963 l 727 963 l 727 0 l 87 0 m 583 129 l 583 834 l 231 834 l 231 129 l 583 129 z "},"∝":{"ha":814,"x_min":87,"x_max":727,"o":"m 87 0 l 87 963 l 727 963 l 727 0 l 87 0 m 583 129 l 583 834 l 231 834 l 231 129 l 583 129 z "},"∪":{"ha":814,"x_min":87,"x_max":727,"o":"m 87 0 l 87 963 l 727 963 l 727 0 l 87 0 m 583 129 l 583 834 l 231 834 l 231 129 l 583 129 z "},"☽":{"ha":814,"x_min":87,"x_max":727,"o":"m 87 0 l 87 963 l 727 963 l 727 0 l 87 0 m 583 129 l 583 834 l 231 834 l 231 129 l 583 129 z "},"☾":{"ha":814,"x_min":87,"x_max":727,"o":"m 87 0 l 87 963 l 727 963 l 727 0 l 87 0 m 583 129 l 583 834 l 231 834 l 231 129 l 583 129 z "},"☿":{"ha":814,"x_min":87,"x_max":727,"o":"m 87 0 l 87 963 l 727 963 l 727 0 l 87 0 m 583 129 l 583 834 l 231 834 l 231 129 l 583 129 z "},"♁":{"ha":814,"x_min":87,"x_max":727,"o":"m 87 0 l 87 963 l 727 963 l 727 0 l 87 0 m 583 129 l 583 834 l 231 834 l 231 129 l 583 129 z "},"♡":{"ha":814,"x_min":87,"x_max":727,"o":"m 87 0 l 87 963 l 727 963 l 727 0 l 87 0 m 583 129 l 583 834 l 231 834 l 231 129 l 583 129 z "},"♢":{"ha":814,"x_min":87,"x_max":727,"o":"m 87 0 l 87 963 l 727 963 l 727 0 l 87 0 m 583 129 l 583 834 l 231 834 l 231 129 l 583 129 z "},"♤":{"ha":814,"x_min":87,"x_max":727,"o":"m 87 0 l 87 963 l 727 963 l 727 0 l 87 0 m 583 129 l 583 834 l 231 834 l 231 129 l 583 129 z "},"♧":{"ha":814,"x_min":87,"x_max":727,"o":"m 87 0 l 87 963 l 727 963 l 727 0 l 87 0 m 583 129 l 583 834 l 231 834 l 231 129 l 583 129 z "},"♨":{"ha":814,"x_min":87,"x_max":727,"o":"m 87 0 l 87 963 l 727 963 l 727 0 l 87 0 m 583 129 l 583 834 l 231 834 l 231 129 l 583 129 z "},"♩":{"ha":814,"x_min":87,"x_max":727,"o":"m 87 0 l 87 963 l 727 963 l 727 0 l 87 0 m 583 129 l 583 834 l 231 834 l 231 129 l 583 129 z "},"⯉":{"ha":814,"x_min":87,"x_max":727,"o":"m 87 0 l 87 963 l 727 963 l 727 0 l 87 0 m 583 129 l 583 834 l 231 834 l 231 129 l 583 129 z "},"":{"ha":814,"x_min":87,"x_max":727,"o":"m 87 0 l 87 963 l 727 963 l 727 0 l 87 0 m 583 129 l 583 834 l 231 834 l 231 129 l 583 129 z "},"":{"ha":814,"x_min":87,"x_max":727,"o":"m 87 0 l 87 963 l 727 963 l 727 0 l 87 0 m 583 129 l 583 834 l 231 834 l 231 129 l 583 129 z "},"":{"ha":814,"x_min":87,"x_max":727,"o":"m 87 0 l 87 963 l 727 963 l 727 0 l 87 0 m 583 129 l 583 834 l 231 834 l 231 129 l 583 129 z "},"":{"ha":814,"x_min":87,"x_max":727,"o":"m 87 0 l 87 963 l 727 963 l 727 0 l 87 0 m 583 129 l 583 834 l 231 834 l 231 129 l 583 129 z "},"":{"ha":814,"x_min":87,"x_max":727,"o":"m 87 0 l 87 963 l 727 963 l 727 0 l 87 0 m 583 129 l 583 834 l 231 834 l 231 129 l 583 129 z "},"":{"ha":814,"x_min":87,"x_max":727,"o":"m 87 0 l 87 963 l 727 963 l 727 0 l 87 0 m 583 129 l 583 834 l 231 834 l 231 129 l 583 129 z "},"":{"ha":814,"x_min":87,"x_max":727,"o":"m 87 0 l 87 963 l 727 963 l 727 0 l 87 0 m 583 129 l 583 834 l 231 834 l 231 129 l 583 129 z "},"":{"ha":814,"x_min":87,"x_max":727,"o":"m 87 0 l 87 963 l 727 963 l 727 0 l 87 0 m 583 129 l 583 834 l 231 834 l 231 129 l 583 129 z "},"":{"ha":814,"x_min":87,"x_max":727,"o":"m 87 0 l 87 963 l 727 963 l 727 0 l 87 0 m 583 129 l 583 834 l 231 834 l 231 129 l 583 129 z "},"":{"ha":814,"x_min":87,"x_max":727,"o":"m 87 0 l 87 963 l 727 963 l 727 0 l 87 0 m 583 129 l 583 834 l 231 834 l 231 129 l 583 129 z "},"":{"ha":814,"x_min":87,"x_max":727,"o":"m 87 0 l 87 963 l 727 963 l 727 0 l 87 0 m 583 129 l 583 834 l 231 834 l 231 129 l 583 129 z "},"":{"ha":814,"x_min":87,"x_max":727,"o":"m 87 0 l 87 963 l 727 963 l 727 0 l 87 0 m 583 129 l 583 834 l 231 834 l 231 129 l 583 129 z "},"":{"ha":814,"x_min":87,"x_max":727,"o":"m 87 0 l 87 963 l 727 963 l 727 0 l 87 0 m 583 129 l 583 834 l 231 834 l 231 129 l 583 129 z "},"":{"ha":814,"x_min":87,"x_max":727,"o":"m 87 0 l 87 963 l 727 963 l 727 0 l 87 0 m 583 129 l 583 834 l 231 834 l 231 129 l 583 129 z "},"":{"ha":814,"x_min":87,"x_max":727,"o":"m 87 0 l 87 963 l 727 963 l 727 0 l 87 0 m 583 129 l 583 834 l 231 834 l 231 129 l 583 129 z "},"":{"ha":814,"x_min":87,"x_max":727,"o":"m 87 0 l 87 963 l 727 963 l 727 0 l 87 0 m 583 129 l 583 834 l 231 834 l 231 129 l 583 129 z "},"":{"ha":814,"x_min":87,"x_max":727,"o":"m 87 0 l 87 963 l 727 963 l 727 0 l 87 0 m 583 129 l 583 834 l 231 834 l 231 129 l 583 129 z "},"":{"ha":814,"x_min":87,"x_max":727,"o":"m 87 0 l 87 963 l 727 963 l 727 0 l 87 0 m 583 129 l 583 834 l 231 834 l 231 129 l 583 129 z "},"":{"ha":814,"x_min":87,"x_max":727,"o":"m 87 0 l 87 963 l 727 963 l 727 0 l 87 0 m 583 129 l 583 834 l 231 834 l 231 129 l 583 129 z "},"":{"ha":814,"x_min":87,"x_max":727,"o":"m 87 0 l 87 963 l 727 963 l 727 0 l 87 0 m 583 129 l 583 834 l 231 834 l 231 129 l 583 129 z "},"":{"ha":814,"x_min":87,"x_max":727,"o":"m 87 0 l 87 963 l 727 963 l 727 0 l 87 0 m 583 129 l 583 834 l 231 834 l 231 129 l 583 129 z "},"":{"ha":814,"x_min":87,"x_max":727,"o":"m 87 0 l 87 963 l 727 963 l 727 0 l 87 0 m 583 129 l 583 834 l 231 834 l 231 129 l 583 129 z "},"":{"ha":814,"x_min":87,"x_max":727,"o":"m 87 0 l 87 963 l 727 963 l 727 0 l 87 0 m 583 129 l 583 834 l 231 834 l 231 129 l 583 129 z "},"":{"ha":814,"x_min":87,"x_max":727,"o":"m 87 0 l 87 963 l 727 963 l 727 0 l 87 0 m 583 129 l 583 834 l 231 834 l 231 129 l 583 129 z "},"":{"ha":814,"x_min":87,"x_max":727,"o":"m 87 0 l 87 963 l 727 963 l 727 0 l 87 0 m 583 129 l 583 834 l 231 834 l 231 129 l 583 129 z "},"":{"ha":814,"x_min":87,"x_max":727,"o":"m 87 0 l 87 963 l 727 963 l 727 0 l 87 0 m 583 129 l 583 834 l 231 834 l 231 129 l 583 129 z "},"":{"ha":814,"x_min":87,"x_max":727,"o":"m 87 0 l 87 963 l 727 963 l 727 0 l 87 0 m 583 129 l 583 834 l 231 834 l 231 129 l 583 129 z "},"":{"ha":814,"x_min":87,"x_max":727,"o":"m 87 0 l 87 963 l 727 963 l 727 0 l 87 0 m 583 129 l 583 834 l 231 834 l 231 129 l 583 129 z "},"":{"ha":814,"x_min":87,"x_max":727,"o":"m 87 0 l 87 963 l 727 963 l 727 0 l 87 0 m 583 129 l 583 834 l 231 834 l 231 129 l 583 129 z "},"":{"ha":814,"x_min":87,"x_max":727,"o":"m 87 0 l 87 963 l 727 963 l 727 0 l 87 0 m 583 129 l 583 834 l 231 834 l 231 129 l 583 129 z "},"":{"ha":814,"x_min":87,"x_max":727,"o":"m 87 0 l 87 963 l 727 963 l 727 0 l 87 0 m 583 129 l 583 834 l 231 834 l 231 129 l 583 129 z "},"":{"ha":814,"x_min":87,"x_max":727,"o":"m 87 0 l 87 963 l 727 963 l 727 0 l 87 0 m 583 129 l 583 834 l 231 834 l 231 129 l 583 129 z "},"":{"ha":814,"x_min":87,"x_max":727,"o":"m 87 0 l 87 963 l 727 963 l 727 0 l 87 0 m 583 129 l 583 834 l 231 834 l 231 129 l 583 129 z "},"":{"ha":814,"x_min":87,"x_max":727,"o":"m 87 0 l 87 963 l 727 963 l 727 0 l 87 0 m 583 129 l 583 834 l 231 834 l 231 129 l 583 129 z "},"":{"ha":814,"x_min":87,"x_max":727,"o":"m 87 0 l 87 963 l 727 963 l 727 0 l 87 0 m 583 129 l 583 834 l 231 834 l 231 129 l 583 129 z "},"":{"ha":814,"x_min":87,"x_max":727,"o":"m 87 0 l 87 963 l 727 963 l 727 0 l 87 0 m 583 129 l 583 834 l 231 834 l 231 129 l 583 129 z "},"":{"ha":814,"x_min":87,"x_max":727,"o":"m 87 0 l 87 963 l 727 963 l 727 0 l 87 0 m 583 129 l 583 834 l 231 834 l 231 129 l 583 129 z "},"":{"ha":814,"x_min":87,"x_max":727,"o":"m 87 0 l 87 963 l 727 963 l 727 0 l 87 0 m 583 129 l 583 834 l 231 834 l 231 129 l 583 129 z "},"":{"ha":814,"x_min":87,"x_max":727,"o":"m 87 0 l 87 963 l 727 963 l 727 0 l 87 0 m 583 129 l 583 834 l 231 834 l 231 129 l 583 129 z "},"":{"ha":814,"x_min":87,"x_max":727,"o":"m 87 0 l 87 963 l 727 963 l 727 0 l 87 0 m 583 129 l 583 834 l 231 834 l 231 129 l 583 129 z "},"":{"ha":814,"x_min":87,"x_max":727,"o":"m 87 0 l 87 963 l 727 963 l 727 0 l 87 0 m 583 129 l 583 834 l 231 834 l 231 129 l 583 129 z "},"":{"ha":814,"x_min":87,"x_max":727,"o":"m 87 0 l 87 963 l 727 963 l 727 0 l 87 0 m 583 129 l 583 834 l 231 834 l 231 129 l 583 129 z "},"":{"ha":814,"x_min":87,"x_max":727,"o":"m 87 0 l 87 963 l 727 963 l 727 0 l 87 0 m 583 129 l 583 834 l 231 834 l 231 129 l 583 129 z "},"":{"ha":814,"x_min":87,"x_max":727,"o":"m 87 0 l 87 963 l 727 963 l 727 0 l 87 0 m 583 129 l 583 834 l 231 834 l 231 129 l 583 129 z "},"":{"ha":814,"x_min":87,"x_max":727,"o":"m 87 0 l 87 963 l 727 963 l 727 0 l 87 0 m 583 129 l 583 834 l 231 834 l 231 129 l 583 129 z "},"":{"ha":814,"x_min":87,"x_max":727,"o":"m 87 0 l 87 963 l 727 963 l 727 0 l 87 0 m 583 129 l 583 834 l 231 834 l 231 129 l 583 129 z "},"":{"ha":814,"x_min":87,"x_max":727,"o":"m 87 0 l 87 963 l 727 963 l 727 0 l 87 0 m 583 129 l 583 834 l 231 834 l 231 129 l 583 129 z "},"":{"ha":814,"x_min":87,"x_max":727,"o":"m 87 0 l 87 963 l 727 963 l 727 0 l 87 0 m 583 129 l 583 834 l 231 834 l 231 129 l 583 129 z "},"":{"ha":814,"x_min":87,"x_max":727,"o":"m 87 0 l 87 963 l 727 963 l 727 0 l 87 0 m 583 129 l 583 834 l 231 834 l 231 129 l 583 129 z "},"":{"ha":814,"x_min":87,"x_max":727,"o":"m 87 0 l 87 963 l 727 963 l 727 0 l 87 0 m 583 129 l 583 834 l 231 834 l 231 129 l 583 129 z "},"":{"ha":814,"x_min":87,"x_max":727,"o":"m 87 0 l 87 963 l 727 963 l 727 0 l 87 0 m 583 129 l 583 834 l 231 834 l 231 129 l 583 129 z "},"":{"ha":814,"x_min":87,"x_max":727,"o":"m 87 0 l 87 963 l 727 963 l 727 0 l 87 0 m 583 129 l 583 834 l 231 834 l 231 129 l 583 129 z "},"":{"ha":814,"x_min":87,"x_max":727,"o":"m 87 0 l 87 963 l 727 963 l 727 0 l 87 0 m 583 129 l 583 834 l 231 834 l 231 129 l 583 129 z "},"":{"ha":814,"x_min":87,"x_max":727,"o":"m 87 0 l 87 963 l 727 963 l 727 0 l 87 0 m 583 129 l 583 834 l 231 834 l 231 129 l 583 129 z "},"":{"ha":814,"x_min":87,"x_max":727,"o":"m 87 0 l 87 963 l 727 963 l 727 0 l 87 0 m 583 129 l 583 834 l 231 834 l 231 129 l 583 129 z "},"":{"ha":814,"x_min":87,"x_max":727,"o":"m 87 0 l 87 963 l 727 963 l 727 0 l 87 0 m 583 129 l 583 834 l 231 834 l 231 129 l 583 129 z "},"﬷":{"ha":814,"x_min":87,"x_max":727,"o":"m 87 0 l 87 963 l 727 963 l 727 0 l 87 0 m 583 129 l 583 834 l 231 834 l 231 129 l 583 129 z "},"﬽":{"ha":814,"x_min":87,"x_max":727,"o":"m 87 0 l 87 963 l 727 963 l 727 0 l 87 0 m 583 129 l 583 834 l 231 834 l 231 129 l 583 129 z "},"﬿":{"ha":814,"x_min":87,"x_max":727,"o":"m 87 0 l 87 963 l 727 963 l 727 0 l 87 0 m 583 129 l 583 834 l 231 834 l 231 129 l 583 129 z "},"﭂":{"ha":814,"x_min":87,"x_max":727,"o":"m 87 0 l 87 963 l 727 963 l 727 0 l 87 0 m 583 129 l 583 834 l 231 834 l 231 129 l 583 129 z "},"﭅":{"ha":814,"x_min":87,"x_max":727,"o":"m 87 0 l 87 963 l 727 963 l 727 0 l 87 0 m 583 129 l 583 834 l 231 834 l 231 129 l 583 129 z "},"﮽":{"ha":814,"x_min":87,"x_max":727,"o":"m 87 0 l 87 963 l 727 963 l 727 0 l 87 0 m 583 129 l 583 834 l 231 834 l 231 129 l 583 129 z "},"﮾":{"ha":814,"x_min":87,"x_max":727,"o":"m 87 0 l 87 963 l 727 963 l 727 0 l 87 0 m 583 129 l 583 834 l 231 834 l 231 129 l 583 129 z "},"﮿":{"ha":814,"x_min":87,"x_max":727,"o":"m 87 0 l 87 963 l 727 963 l 727 0 l 87 0 m 583 129 l 583 834 l 231 834 l 231 129 l 583 129 z "},"\r":{"ha":814,"x_min":0,"x_max":0,"o":"m 0 0 z "}," ":{"ha":814,"x_min":0,"x_max":0,"o":"m 0 0 z "},"!":{"ha":814,"x_min":307,"x_max":507,"o":"m 347 309 l 336 970 l 477 970 l 464 309 l 347 309 m 407 -14 q 336 16 366 -14 q 307 87 307 45 q 336 158 307 129 q 407 187 366 187 q 478 158 449 187 q 507 87 507 129 q 478 16 507 45 q 407 -14 449 -14 z "},"\"":{"ha":814,"x_min":193,"x_max":624,"o":"m 206 529 l 193 963 l 350 963 l 336 529 l 206 529 m 480 529 l 467 963 l 624 963 l 610 529 l 480 529 z "},"#":{"ha":814,"x_min":68,"x_max":746,"o":"m 454 0 l 475 244 l 298 244 l 278 0 l 159 0 l 179 244 l 68 244 l 68 359 l 189 359 l 210 604 l 68 604 l 68 719 l 220 719 l 240 963 l 359 963 l 339 719 l 515 719 l 536 963 l 655 963 l 635 719 l 746 719 l 746 604 l 625 604 l 604 359 l 746 359 l 746 244 l 594 244 l 574 0 l 454 0 m 309 359 l 485 359 l 505 604 l 329 604 l 309 359 z "},"$":{"ha":814,"x_min":87,"x_max":720,"o":"m 369 -217 l 369 -14 q 87 39 208 -13 l 105 176 q 241 130 175 146 q 369 111 307 113 l 369 424 l 317 448 q 166 555 218 492 q 113 712 113 618 q 180 898 113 830 q 369 975 246 966 l 369 1180 l 463 1180 l 463 974 q 600 938 538 966 q 720 855 661 909 l 625 759 q 463 846 538 829 l 463 541 l 498 524 q 661 410 606 473 q 717 248 717 347 q 463 -9 717 22 l 463 -217 l 369 -217 m 369 585 l 369 849 q 258 719 258 833 q 283 643 258 672 q 357 590 309 613 l 369 585 m 463 119 q 572 245 572 142 q 484 372 572 332 l 463 381 l 463 119 z "},"%":{"ha":814,"x_min":37,"x_max":791,"o":"m 250 538 q 95 598 153 538 q 37 757 37 659 q 95 917 37 857 q 250 977 153 977 q 403 918 345 977 q 461 757 461 859 q 403 598 461 659 q 250 538 345 538 m 579 -14 q 425 46 483 -14 q 366 205 366 106 q 425 365 366 304 q 579 425 483 425 q 733 365 675 425 q 791 205 791 304 q 733 46 791 106 q 579 -14 675 -14 m 126 208 l 64 300 l 694 750 l 757 662 l 126 208 m 250 649 q 314 679 290 649 q 338 757 338 709 q 314 837 338 807 q 250 867 290 867 q 184 837 208 867 q 159 757 159 807 q 184 679 159 709 q 250 649 208 649 m 579 97 q 644 127 619 97 q 668 205 668 157 q 644 284 668 254 q 579 314 619 314 q 513 284 538 314 q 489 205 489 254 q 513 127 489 157 q 579 97 538 97 z "},"&":{"ha":814,"x_min":38,"x_max":830,"o":"m 652 0 l 582 77 q 313 -14 476 -14 q 114 54 189 -14 q 38 233 38 121 q 85 389 38 324 q 221 483 133 453 q 157 600 177 545 q 137 707 137 654 q 209 906 137 836 q 414 977 281 977 q 604 920 536 977 q 671 761 671 864 l 526 761 q 497 828 526 805 q 416 852 469 852 q 320 814 355 852 q 286 705 286 776 q 312 608 286 656 q 384 509 338 561 l 575 291 q 610 519 610 385 l 741 519 q 668 184 741 317 l 830 0 l 652 0 m 496 171 l 302 384 q 293 395 298 389 q 175 240 175 345 q 217 147 175 182 q 330 111 260 111 q 496 171 429 111 z "},"'":{"ha":814,"x_min":328,"x_max":486,"o":"m 342 529 l 328 963 l 486 963 l 472 529 l 342 529 z "},"(":{"ha":814,"x_min":180,"x_max":677,"o":"m 644 -136 q 302 27 424 -136 q 180 486 180 189 q 302 938 180 778 q 644 1099 424 1099 l 677 1099 l 677 977 l 658 977 q 410 848 497 977 q 323 486 323 719 q 410 117 323 248 q 658 -14 497 -14 l 677 -14 l 677 -136 l 644 -136 z "},")":{"ha":814,"x_min":137,"x_max":633,"o":"m 137 -136 l 137 -14 l 156 -14 q 404 117 317 -14 q 491 486 491 248 q 404 848 491 719 q 156 977 317 977 l 137 977 l 137 1099 l 170 1099 q 512 938 391 1099 q 633 486 633 778 q 512 27 633 189 q 170 -136 391 -136 l 137 -136 z "},"*":{"ha":814,"x_min":76,"x_max":738,"o":"m 560 175 l 407 387 l 254 175 l 141 270 l 313 446 l 76 514 l 126 652 l 351 552 l 334 798 l 480 798 l 463 552 l 688 652 l 738 514 l 501 446 l 673 270 l 560 175 z "},"+":{"ha":814,"x_min":68,"x_max":746,"o":"m 335 129 l 335 418 l 68 418 l 68 545 l 335 545 l 335 833 l 479 833 l 479 545 l 746 545 l 746 418 l 479 418 l 479 129 l 335 129 z "},",":{"ha":814,"x_min":279,"x_max":491,"o":"m 279 -296 l 334 172 l 491 172 l 410 -296 l 279 -296 z "},"-":{"ha":814,"x_min":68,"x_max":746,"o":"m 68 418 l 68 544 l 746 544 l 746 418 l 68 418 z "},".":{"ha":814,"x_min":307,"x_max":507,"o":"m 407 -14 q 336 16 366 -14 q 307 87 307 45 q 336 158 307 129 q 407 187 366 187 q 478 158 449 187 q 507 87 507 129 q 478 16 507 45 q 407 -14 449 -14 z "},"/":{"ha":814,"x_min":77,"x_max":766,"o":"m 77 -129 l 623 1092 l 766 1092 l 221 -129 l 77 -129 z "},":":{"ha":814,"x_min":307,"x_max":507,"o":"m 407 -14 q 336 16 366 -14 q 307 87 307 45 q 336 158 307 129 q 407 187 366 187 q 478 158 449 187 q 507 87 507 129 q 478 16 507 45 q 407 -14 449 -14 m 407 532 q 336 561 366 532 q 307 632 307 591 q 336 703 307 674 q 407 732 366 732 q 478 703 449 732 q 507 632 507 674 q 478 561 507 591 q 407 532 449 532 z "},";":{"ha":814,"x_min":279,"x_max":507,"o":"m 279 -296 l 334 172 l 491 172 l 410 -296 l 279 -296 m 407 532 q 336 561 366 532 q 307 632 307 591 q 336 703 307 674 q 407 732 366 732 q 478 703 449 732 q 507 632 507 674 q 478 561 507 591 q 407 532 449 532 z "},"<":{"ha":814,"x_min":65,"x_max":715,"o":"m 715 145 l 65 412 l 65 549 l 715 817 l 715 667 l 213 487 l 213 475 l 715 294 l 715 145 z "},"=":{"ha":814,"x_min":68,"x_max":746,"o":"m 68 248 l 68 374 l 746 374 l 746 248 l 68 248 m 68 587 l 68 713 l 746 713 l 746 587 l 68 587 z "},">":{"ha":814,"x_min":99,"x_max":749,"o":"m 99 145 l 99 294 l 574 475 l 574 487 l 99 667 l 99 817 l 749 549 l 749 412 l 99 145 z "},"?":{"ha":814,"x_min":79,"x_max":682,"o":"m 312 309 l 312 374 q 423 579 312 509 q 533 741 533 648 q 499 820 533 791 q 403 848 465 848 q 277 816 339 848 q 172 731 216 784 l 79 828 q 214 936 126 895 q 404 977 302 977 q 609 917 536 977 q 682 747 682 857 q 532 500 682 597 q 445 365 445 444 l 445 309 l 312 309 m 381 -14 q 310 16 340 -14 q 281 87 281 45 q 310 158 281 129 q 381 187 340 187 q 452 158 423 187 q 481 87 481 129 q 452 16 481 45 q 381 -14 423 -14 z "},"@":{"ha":814,"x_min":73,"x_max":727,"o":"m 481 -165 q 170 -30 267 -165 q 73 406 73 106 q 420 976 73 976 q 727 606 727 976 l 727 114 l 610 114 l 610 258 l 602 258 q 552 141 590 182 q 458 100 515 100 q 318 184 368 100 q 269 420 269 268 q 318 660 269 581 q 460 739 368 739 q 550 697 512 739 q 602 581 587 656 l 610 581 l 610 602 q 420 854 610 854 q 187 406 187 854 q 257 63 187 170 q 481 -43 327 -43 q 615 -26 566 -43 l 615 -148 q 481 -165 562 -165 m 498 229 q 581 270 552 229 q 610 387 610 311 q 584 556 610 503 q 507 610 557 610 q 421 564 452 610 q 391 420 391 519 q 419 279 391 329 q 498 229 447 229 z "},"A":{"ha":814,"x_min":31,"x_max":783,"o":"m 31 0 l 309 963 l 505 963 l 783 0 l 641 0 l 578 235 l 236 235 l 173 0 l 31 0 m 271 363 l 543 363 l 413 846 l 401 846 l 271 363 z "},"B":{"ha":814,"x_min":109,"x_max":769,"o":"m 109 0 l 109 963 l 395 963 q 621 900 541 963 q 701 719 701 836 q 641 578 701 631 q 471 514 581 526 l 471 506 q 691 441 613 504 q 769 264 769 378 q 693 69 769 138 q 477 0 617 0 l 109 0 m 250 129 l 438 129 q 577 170 528 129 q 627 285 627 211 q 575 402 627 361 q 429 444 524 444 l 250 444 l 250 129 m 250 573 l 397 573 q 516 607 474 573 q 559 705 559 642 q 514 801 559 768 q 388 834 470 834 l 250 834 l 250 573 z "},"C":{"ha":814,"x_min":58,"x_max":772,"o":"m 507 -14 q 58 483 58 -14 q 172 847 58 718 q 491 977 285 977 q 665 945 591 977 q 772 855 739 913 l 672 755 q 594 827 642 802 q 492 852 547 852 q 282 758 361 852 q 203 490 203 663 q 530 111 203 111 q 724 152 629 111 l 755 33 q 507 -14 637 -14 z "},"D":{"ha":814,"x_min":95,"x_max":769,"o":"m 95 0 l 95 963 l 328 963 q 769 468 769 963 q 328 0 769 0 l 95 0 m 236 129 l 328 129 q 627 468 627 129 q 328 834 627 834 l 236 834 l 236 129 z "},"E":{"ha":814,"x_min":109,"x_max":746,"o":"m 109 0 l 109 963 l 746 963 l 746 834 l 250 834 l 250 547 l 624 547 l 624 418 l 250 418 l 250 129 l 746 129 l 746 0 l 109 0 z "},"F":{"ha":814,"x_min":122,"x_max":760,"o":"m 122 0 l 122 963 l 760 963 l 760 834 l 263 834 l 263 506 l 637 506 l 637 377 l 263 377 l 263 0 l 122 0 z "},"G":{"ha":814,"x_min":45,"x_max":760,"o":"m 476 -14 q 45 483 45 -14 q 157 847 45 718 q 471 977 269 977 q 648 945 572 977 q 760 856 724 913 l 659 755 q 580 827 627 802 q 479 852 533 852 q 266 757 342 852 q 190 490 190 663 q 492 111 190 111 q 552 115 524 111 q 605 123 581 118 l 605 353 l 414 353 l 414 481 l 739 481 l 739 27 q 639 2 711 18 q 476 -14 568 -14 z "},"H":{"ha":814,"x_min":95,"x_max":719,"o":"m 578 0 l 578 415 l 236 415 l 236 0 l 95 0 l 95 963 l 236 963 l 236 544 l 578 544 l 578 963 l 719 963 l 719 0 l 578 0 z "},"I":{"ha":814,"x_min":114,"x_max":700,"o":"m 114 0 l 114 129 l 336 129 l 336 834 l 114 834 l 114 963 l 700 963 l 700 834 l 477 834 l 477 129 l 700 129 l 700 0 l 114 0 z "},"J":{"ha":814,"x_min":58,"x_max":720,"o":"m 389 -14 q 144 75 231 -14 q 58 323 58 163 l 199 323 q 250 165 199 221 q 393 109 300 109 q 531 164 482 109 q 579 323 579 220 l 579 834 l 332 834 l 332 963 l 720 963 l 720 323 q 633 75 720 163 q 389 -14 545 -14 z "},"K":{"ha":814,"x_min":102,"x_max":788,"o":"m 102 0 l 102 963 l 243 963 l 243 443 q 404 499 336 452 q 515 618 471 546 q 581 780 559 691 q 602 963 602 869 l 742 963 q 692 680 742 814 q 548 452 642 545 l 788 0 l 624 0 l 433 367 q 343 329 391 344 q 243 309 296 315 l 243 0 l 102 0 z "},"L":{"ha":814,"x_min":109,"x_max":746,"o":"m 109 0 l 109 963 l 250 963 l 250 129 l 746 129 l 746 0 l 109 0 z "},"M":{"ha":814,"x_min":87,"x_max":727,"o":"m 87 0 l 87 963 l 297 963 l 401 549 l 412 549 l 517 963 l 727 963 l 727 0 l 591 0 l 591 792 l 574 792 l 469 393 l 345 393 l 240 792 l 222 792 l 222 0 l 87 0 z "},"N":{"ha":814,"x_min":100,"x_max":713,"o":"m 532 0 l 255 732 l 241 732 l 241 0 l 100 0 l 100 963 l 282 963 l 559 231 l 572 231 l 572 963 l 713 963 l 713 0 l 532 0 z "},"O":{"ha":814,"x_min":52,"x_max":762,"o":"m 407 -14 q 52 475 52 -14 q 407 977 52 977 q 762 475 762 977 q 407 -14 762 -14 m 407 111 q 617 475 617 111 q 407 852 617 852 q 197 475 197 852 q 407 111 197 111 z "},"P":{"ha":814,"x_min":109,"x_max":760,"o":"m 109 0 l 109 963 l 392 963 q 666 882 573 963 q 760 644 760 802 q 666 386 760 474 q 392 298 573 298 l 250 298 l 250 0 l 109 0 m 250 427 l 392 427 q 617 644 617 427 q 392 834 617 834 l 250 834 l 250 427 z "},"Q":{"ha":814,"x_min":52,"x_max":762,"o":"m 631 -312 q 336 -14 336 -312 l 336 -8 q 52 475 52 37 q 407 977 52 977 q 762 475 762 977 q 471 -9 762 33 l 471 -15 q 631 -190 471 -190 l 700 -190 l 686 -312 l 631 -312 m 407 111 q 617 475 617 111 q 407 852 617 852 q 197 475 197 852 q 407 111 197 111 z "},"R":{"ha":814,"x_min":95,"x_max":774,"o":"m 95 0 l 95 963 l 426 963 q 657 887 576 963 q 739 671 739 811 q 697 497 739 568 q 576 393 655 426 l 774 0 l 612 0 l 437 366 q 426 366 431 366 l 236 366 l 236 0 l 95 0 m 236 495 l 426 495 q 552 538 507 495 q 597 658 597 581 q 552 788 597 743 q 426 834 507 834 l 236 834 l 236 495 z "},"S":{"ha":814,"x_min":87,"x_max":720,"o":"m 374 -14 q 87 39 210 -14 l 105 176 q 249 128 180 144 q 385 111 319 111 q 572 245 572 111 q 484 372 572 332 l 317 448 q 166 555 218 492 q 113 712 113 618 q 189 907 113 838 q 404 977 265 977 q 576 948 501 977 q 720 855 650 920 l 625 759 q 513 830 565 808 q 405 852 461 852 q 297 818 335 852 q 258 719 258 785 q 283 643 258 672 q 357 590 309 613 l 498 524 q 661 410 606 473 q 717 248 717 347 q 374 -14 717 -14 z "},"T":{"ha":814,"x_min":54,"x_max":760,"o":"m 336 0 l 336 834 l 54 834 l 54 963 l 760 963 l 760 834 l 477 834 l 477 0 l 336 0 z "},"U":{"ha":814,"x_min":95,"x_max":719,"o":"m 404 -14 q 95 309 95 -14 l 95 963 l 236 963 l 236 309 q 277 164 236 213 q 407 115 319 115 q 578 309 578 115 l 578 963 l 719 963 l 719 309 q 639 67 719 148 q 404 -14 559 -14 z "},"V":{"ha":814,"x_min":31,"x_max":783,"o":"m 302 0 l 31 963 l 176 963 l 401 115 l 413 115 l 638 963 l 783 963 l 512 0 l 302 0 z "},"W":{"ha":814,"x_min":14,"x_max":800,"o":"m 122 0 l 14 963 l 156 963 l 237 109 l 251 109 l 340 719 l 475 719 l 563 109 l 576 109 l 658 963 l 800 963 l 692 0 l 482 0 l 411 585 l 403 585 l 332 0 l 122 0 z "},"X":{"ha":814,"x_min":44,"x_max":770,"o":"m 614 0 l 407 361 l 200 0 l 44 0 l 339 477 l 44 963 l 200 963 l 407 594 l 614 963 l 770 963 l 475 477 l 770 0 l 614 0 z "},"Y":{"ha":814,"x_min":17,"x_max":797,"o":"m 336 0 l 336 347 l 17 963 l 166 963 l 401 481 l 413 481 l 648 963 l 797 963 l 477 347 l 477 0 l 336 0 z "},"Z":{"ha":814,"x_min":102,"x_max":726,"o":"m 102 0 l 102 129 l 552 834 l 102 834 l 102 963 l 712 963 l 712 834 l 258 129 l 726 129 l 726 0 l 102 0 z "},"[":{"ha":814,"x_min":252,"x_max":677,"o":"m 252 -145 l 252 1108 l 677 1108 l 677 979 l 393 979 l 393 -16 l 677 -16 l 677 -145 l 252 -145 z "},"\\":{"ha":814,"x_min":47,"x_max":736,"o":"m 593 -129 l 47 1092 l 191 1092 l 736 -129 l 593 -129 z "},"]":{"ha":814,"x_min":137,"x_max":562,"o":"m 137 -145 l 137 -16 l 420 -16 l 420 979 l 137 979 l 137 1108 l 562 1108 l 562 -145 l 137 -145 z "},"^":{"ha":814,"x_min":139,"x_max":675,"o":"m 139 556 l 315 963 l 498 963 l 675 556 l 526 556 l 413 854 l 401 854 l 288 556 l 139 556 z "},"_":{"ha":814,"x_min":68,"x_max":746,"o":"m 68 -126 l 68 0 l 746 0 l 746 -126 l 68 -126 z "},"`":{"ha":814,"x_min":227,"x_max":560,"o":"m 420 724 l 227 1104 l 393 1104 l 560 724 l 420 724 z "},"a":{"ha":814,"x_min":65,"x_max":785,"o":"m 555 -7 l 548 152 l 534 152 q 464 28 526 69 q 301 -14 401 -14 q 127 41 189 -14 q 65 194 65 95 q 150 369 65 308 q 391 430 235 430 q 526 418 468 430 l 526 452 q 476 557 526 524 q 326 593 425 591 l 153 598 l 167 726 l 312 724 q 577 647 490 721 q 663 430 663 572 l 663 130 l 785 115 l 785 0 l 555 -7 m 526 308 q 457 314 492 313 q 388 315 423 315 q 201 201 201 315 q 233 127 201 153 q 324 102 265 102 q 436 125 391 102 q 504 184 481 148 q 526 258 526 220 l 526 308 z "},"b":{"ha":814,"x_min":111,"x_max":745,"o":"m 303 -14 q 207 -10 254 -14 q 111 0 159 -6 l 111 1017 l 254 1017 l 254 589 l 268 589 q 444 732 278 732 q 667 648 588 732 q 745 407 745 563 q 630 97 745 207 q 303 -14 514 -14 m 254 404 l 254 111 q 293 109 273 109 q 332 109 313 109 q 532 186 461 109 q 603 407 603 264 q 560 557 603 505 q 437 610 517 610 q 254 404 254 610 z "},"c":{"ha":814,"x_min":92,"x_max":744,"o":"m 476 -14 q 192 83 292 -14 q 92 361 92 180 q 187 635 92 537 q 457 732 281 732 q 637 693 562 732 q 744 583 712 654 l 633 500 q 555 576 603 549 q 452 604 508 604 q 294 542 350 604 q 237 368 237 481 q 303 180 237 245 q 492 115 370 115 q 593 120 543 115 q 690 133 643 125 l 707 7 q 592 -9 651 -5 q 476 -14 532 -14 z "},"d":{"ha":814,"x_min":65,"x_max":700,"o":"m 352 -14 q 138 79 211 -14 q 65 353 65 172 q 138 636 65 540 q 352 732 211 732 q 483 694 433 732 q 543 589 534 656 l 556 589 l 556 1017 l 700 1017 l 700 0 l 571 -7 l 557 130 l 543 130 q 485 24 536 62 q 352 -14 435 -14 m 556 335 l 556 384 q 384 610 556 610 q 208 353 208 610 q 384 109 208 109 q 556 335 556 109 z "},"e":{"ha":814,"x_min":85,"x_max":715,"o":"m 469 -14 q 185 83 286 -14 q 85 361 85 180 q 170 635 85 537 q 410 732 255 732 q 635 644 555 732 q 715 388 715 556 q 711 296 715 338 l 225 296 q 311 159 244 205 q 486 113 377 113 q 574 118 530 113 q 662 132 617 123 l 680 5 q 563 -10 616 -7 q 469 -14 510 -14 m 220 406 l 585 406 q 538 554 585 503 q 411 606 492 606 q 278 554 328 606 q 220 406 229 502 z "},"f":{"ha":814,"x_min":46,"x_max":762,"o":"m 273 0 l 273 434 l 46 434 l 46 560 l 273 560 l 273 658 q 613 1031 273 1031 q 762 1017 690 1031 l 747 892 q 672 900 705 898 q 609 902 640 902 q 416 665 416 902 l 416 560 l 711 560 l 711 434 l 416 434 l 416 0 l 273 0 z "},"g":{"ha":814,"x_min":65,"x_max":700,"o":"m 123 -324 l 117 -193 l 347 -186 q 506 -125 456 -182 q 556 42 555 -68 l 556 130 l 543 130 q 485 24 536 62 q 352 -14 435 -14 q 138 79 211 -14 q 65 353 65 172 q 138 636 65 540 q 352 732 211 732 q 488 694 436 732 q 549 589 541 656 l 558 589 l 570 719 l 700 719 l 700 64 q 612 -220 700 -128 q 334 -317 525 -311 l 123 -324 m 556 384 q 384 610 556 610 q 208 353 208 610 q 384 109 208 109 q 556 335 556 109 l 556 384 z "},"h":{"ha":814,"x_min":114,"x_max":700,"o":"m 556 0 l 556 468 q 522 573 556 536 q 427 610 488 610 q 258 404 258 610 l 258 0 l 114 0 l 114 1017 l 258 1017 l 258 589 l 271 589 q 461 732 283 732 q 637 663 575 732 q 700 468 700 594 l 700 0 l 556 0 z "},"i":{"ha":814,"x_min":109,"x_max":747,"o":"m 109 0 l 109 126 l 382 126 l 382 593 l 149 593 l 149 719 l 526 719 l 526 126 l 747 126 l 747 0 l 109 0 m 450 833 q 379 862 408 833 q 349 933 349 892 q 379 1004 349 975 q 450 1034 408 1034 q 521 1004 492 1034 q 550 933 550 975 q 521 862 550 892 q 450 833 492 833 z "},"j":{"ha":814,"x_min":115,"x_max":616,"o":"m 122 -326 l 115 -198 l 251 -186 q 409 -122 360 -176 q 458 42 458 -68 l 458 593 l 179 593 l 179 719 l 602 719 l 602 64 q 515 -216 602 -128 q 237 -317 429 -304 l 122 -326 m 515 833 q 445 862 474 833 q 415 933 415 892 q 445 1004 415 975 q 515 1034 474 1034 q 587 1004 557 1034 q 616 933 616 975 q 587 862 616 892 q 515 833 557 833 z "},"k":{"ha":814,"x_min":109,"x_max":773,"o":"m 109 0 l 109 1017 l 252 1017 l 252 401 l 292 401 q 439 432 381 401 q 529 533 496 463 q 578 719 562 603 l 727 719 q 562 348 694 454 l 773 0 l 595 0 l 429 284 q 326 273 381 273 l 252 273 l 252 0 l 109 0 z "},"l":{"ha":814,"x_min":66,"x_max":728,"o":"m 514 -14 q 334 54 389 -14 q 278 271 278 122 l 278 891 l 66 891 l 66 1017 l 422 1017 l 422 278 q 433 185 422 221 q 475 132 444 149 q 568 115 507 115 q 712 141 625 115 l 728 15 q 623 -7 673 0 q 514 -14 572 -14 z "},"m":{"ha":814,"x_min":76,"x_max":738,"o":"m 594 0 l 594 549 q 538 624 594 624 q 468 526 468 624 l 468 0 l 346 0 l 346 563 q 289 624 346 624 q 220 526 220 624 l 220 0 l 76 0 l 76 719 l 203 719 l 213 629 l 224 629 q 347 732 232 732 q 423 707 393 732 q 463 629 453 681 l 475 629 q 508 702 478 671 q 595 732 538 732 q 704 692 670 732 q 738 563 738 652 l 738 0 l 594 0 z "},"n":{"ha":814,"x_min":114,"x_max":700,"o":"m 556 0 l 556 468 q 522 568 556 533 q 427 604 488 604 q 258 404 258 604 l 258 0 l 114 0 l 114 719 l 244 719 l 256 589 l 271 589 q 461 732 283 732 q 637 663 575 732 q 700 468 700 594 l 700 0 l 556 0 z "},"o":{"ha":814,"x_min":92,"x_max":722,"o":"m 407 -14 q 175 84 258 -14 q 92 359 92 182 q 175 635 92 538 q 407 732 258 732 q 639 635 557 732 q 722 359 722 538 q 639 84 722 182 q 407 -14 557 -14 m 407 115 q 529 179 486 115 q 572 359 572 243 q 529 540 572 477 q 407 604 486 604 q 284 540 328 604 q 241 359 241 477 q 284 179 241 243 q 407 115 328 115 z "},"p":{"ha":814,"x_min":114,"x_max":749,"o":"m 114 -312 l 114 719 l 244 719 l 256 589 l 264 589 q 326 694 274 656 q 462 732 378 732 q 676 636 604 732 q 749 353 749 540 q 676 79 749 172 q 462 -14 604 -14 q 329 24 379 -14 q 271 130 278 62 l 258 130 l 258 -312 l 114 -312 m 258 335 q 430 109 258 109 q 606 353 606 109 q 430 610 606 610 q 258 384 258 610 l 258 335 z "},"q":{"ha":814,"x_min":65,"x_max":700,"o":"m 351 -14 q 140 81 215 -14 q 65 353 65 176 q 140 633 65 534 q 353 732 216 732 q 543 589 524 732 l 558 589 l 570 719 l 700 719 l 700 -312 l 556 -312 l 556 111 l 543 111 q 484 18 536 50 q 351 -14 433 -14 m 556 431 q 393 610 556 610 q 256 543 304 610 q 208 353 208 476 q 395 109 208 109 q 556 231 556 109 l 556 431 z "},"r":{"ha":814,"x_min":54,"x_max":781,"o":"m 358 309 l 358 126 l 534 126 l 534 0 l 54 0 l 54 126 l 214 126 l 214 593 l 81 593 l 81 719 l 331 719 l 355 534 l 372 534 q 570 732 384 732 q 731 669 681 732 q 781 463 781 605 l 639 463 q 615 576 639 541 q 540 610 592 610 q 403 532 448 610 q 358 309 358 454 z "},"s":{"ha":814,"x_min":106,"x_max":708,"o":"m 351 -14 q 212 -9 270 -14 q 106 7 154 -4 l 122 137 q 248 121 193 126 q 351 115 302 115 q 510 137 460 115 q 559 205 559 158 q 542 253 559 237 q 488 278 524 269 l 323 320 q 166 387 216 347 q 117 509 117 427 q 207 680 117 627 q 499 732 298 732 q 689 719 598 732 l 674 594 q 577 602 619 600 q 495 604 535 604 q 320 583 374 604 q 266 515 266 562 q 288 470 266 484 q 357 445 311 456 l 490 412 q 655 340 603 385 q 708 208 708 294 q 623 39 708 92 q 351 -14 538 -14 z "},"t":{"ha":814,"x_min":47,"x_max":726,"o":"m 537 -14 q 301 54 374 -14 q 228 271 228 122 l 228 593 l 47 593 l 47 719 l 228 719 l 228 936 l 372 936 l 372 719 l 699 719 l 699 593 l 372 593 l 372 278 q 413 154 372 193 q 551 115 455 115 q 623 119 585 115 q 709 129 661 123 l 726 3 q 633 -9 678 -5 q 537 -14 588 -14 z "},"u":{"ha":814,"x_min":99,"x_max":779,"o":"m 336 -14 q 161 54 223 -14 q 99 244 99 121 l 99 719 l 243 719 l 243 244 q 278 149 243 182 q 377 115 313 115 q 496 165 456 115 q 536 332 536 215 l 536 719 l 680 719 l 680 130 l 779 115 l 779 0 l 548 -7 l 538 138 l 525 138 q 458 26 508 65 q 336 -14 409 -14 z "},"v":{"ha":814,"x_min":54,"x_max":760,"o":"m 311 0 l 54 719 l 208 719 l 401 122 l 413 122 l 606 719 l 760 719 l 503 0 l 311 0 z "},"w":{"ha":814,"x_min":47,"x_max":766,"o":"m 488 0 l 404 571 l 396 571 l 312 0 l 129 0 l 47 719 l 183 719 l 237 109 l 250 109 l 334 719 l 466 719 l 551 109 l 563 109 l 624 719 l 766 719 l 665 0 l 488 0 z "},"x":{"ha":814,"x_min":72,"x_max":742,"o":"m 72 0 l 329 355 l 72 719 l 235 719 l 407 467 l 579 719 l 742 719 l 481 361 l 742 0 l 579 0 l 404 250 l 235 0 l 72 0 z "},"y":{"ha":814,"x_min":37,"x_max":756,"o":"m 51 -326 l 44 -197 l 157 -183 q 299 -131 243 -173 q 393 0 355 -89 l 323 0 l 37 719 l 186 719 l 421 109 l 431 109 l 607 719 l 756 719 l 549 64 q 457 -144 508 -65 q 338 -262 407 -222 q 173 -312 269 -301 l 51 -326 z "},"z":{"ha":814,"x_min":111,"x_max":703,"o":"m 111 0 l 111 127 l 519 591 l 111 591 l 111 719 l 689 719 l 689 591 l 283 127 l 703 127 l 703 0 l 111 0 z "},"{":{"ha":814,"x_min":167,"x_max":669,"o":"m 553 -145 q 422 -115 480 -145 q 336 -28 365 -85 q 317 58 317 9 q 321 106 317 81 q 355 219 332 164 q 377 334 377 274 q 355 378 377 360 q 300 406 334 396 q 231 421 267 416 q 167 425 195 425 l 167 532 q 230 539 194 532 q 299 559 265 546 q 355 592 333 572 q 377 636 377 611 q 366 715 377 677 q 342 789 355 752 q 321 864 328 825 q 317 910 317 888 q 336 993 317 956 q 422 1074 365 1046 q 553 1103 480 1103 q 620 1099 593 1103 q 669 1089 646 1095 l 652 971 q 607 976 629 975 q 566 978 585 978 q 488 948 517 978 q 465 888 465 925 q 467 864 465 876 q 488 787 473 824 q 513 714 501 751 q 525 639 525 678 q 471 530 525 569 q 320 490 417 492 l 320 467 q 471 430 417 466 q 525 331 525 393 q 513 253 525 290 q 488 180 501 216 q 467 106 473 144 q 464 77 464 90 q 487 13 464 37 q 566 -20 517 -20 q 607 -18 585 -20 q 652 -14 629 -16 l 669 -132 q 620 -141 646 -138 q 553 -145 593 -145 z "},"|":{"ha":814,"x_min":336,"x_max":477,"o":"m 336 -210 l 336 1173 l 477 1173 l 477 -210 l 336 -210 z "},"}":{"ha":814,"x_min":145,"x_max":647,"o":"m 260 -145 q 194 -141 221 -145 q 145 -132 168 -138 l 161 -14 q 207 -18 185 -16 q 248 -20 229 -20 q 328 13 296 -20 q 350 77 350 37 q 347 106 350 90 q 327 180 340 144 q 301 253 313 216 q 289 331 289 290 q 343 430 289 393 q 494 467 397 466 l 494 490 q 343 530 397 492 q 289 639 289 569 q 301 714 289 678 q 327 787 313 751 q 347 864 340 824 q 349 889 349 877 q 327 948 349 926 q 248 978 296 978 q 207 976 229 978 q 161 971 185 975 l 145 1089 q 194 1099 168 1095 q 260 1103 221 1103 q 392 1074 334 1103 q 477 993 449 1046 q 496 910 496 956 q 492 864 496 888 q 473 789 486 825 q 448 715 459 752 q 437 636 437 677 q 459 592 437 611 q 515 559 481 572 q 584 539 549 546 q 647 532 620 532 l 647 425 q 583 421 619 425 q 514 406 547 416 q 458 378 480 396 q 437 334 437 360 q 460 219 437 274 q 492 106 482 164 q 478 -28 507 28 q 392 -115 449 -85 q 260 -145 334 -145 z "},"~":{"ha":814,"x_min":68,"x_max":746,"o":"m 68 330 l 68 384 q 111 554 68 501 q 251 608 155 608 q 344 589 300 608 q 427 547 388 571 q 490 509 460 528 q 551 489 519 489 q 609 570 609 489 l 609 631 l 746 631 l 746 576 q 707 406 746 459 q 583 353 669 353 q 492 371 535 353 q 410 413 448 390 q 343 453 375 434 q 277 471 312 471 q 205 391 205 471 l 205 330 l 68 330 z "}," ":{"ha":814,"x_min":0,"x_max":0,"o":"m 0 0 z "},"¡":{"ha":814,"x_min":307,"x_max":507,"o":"m 336 -251 l 347 410 l 464 410 l 477 -251 l 336 -251 m 407 732 q 478 703 449 732 q 507 632 507 674 q 478 561 507 591 q 407 532 449 532 q 336 561 366 532 q 307 632 307 591 q 336 703 307 674 q 407 732 366 732 z "},"¢":{"ha":814,"x_min":92,"x_max":744,"o":"m 403 -227 l 403 -9 q 173 104 254 9 q 92 361 92 199 q 173 619 92 523 q 403 730 253 715 l 403 945 l 496 945 l 496 731 q 651 686 587 724 q 744 583 715 648 l 633 500 q 496 599 584 581 l 496 115 q 595 120 546 115 q 690 133 644 125 l 707 7 q 602 -8 656 -4 q 496 -14 549 -13 l 496 -227 l 403 -227 m 403 126 l 403 600 q 280 526 323 585 q 237 368 237 466 q 280 208 237 269 q 403 126 323 146 z "},"£":{"ha":814,"x_min":74,"x_max":749,"o":"m 90 0 l 90 126 q 165 261 139 197 q 197 394 192 326 l 74 394 l 74 488 l 198 488 l 198 703 q 273 905 198 834 q 481 977 349 977 q 647 936 576 977 q 749 821 717 895 l 642 742 q 570 823 614 794 q 476 852 527 852 q 380 813 417 852 q 343 702 343 774 l 343 488 l 608 488 l 608 394 l 342 394 q 310 260 337 326 q 233 126 283 195 l 743 126 l 743 0 l 90 0 z "},"¤":{"ha":814,"x_min":49,"x_max":765,"o":"m 409 203 q 258 237 323 203 l 127 96 l 49 178 l 173 309 q 121 475 121 377 q 172 641 121 572 l 49 770 l 135 854 l 258 713 q 409 746 324 746 q 556 714 492 746 l 679 854 l 765 770 l 644 643 q 696 475 696 574 q 644 307 696 376 l 765 178 l 686 96 l 557 236 q 409 203 493 203 m 409 332 q 509 371 471 332 q 547 475 547 410 q 509 578 547 539 q 409 617 471 617 q 309 578 347 617 q 271 475 271 539 q 309 371 271 410 q 409 332 347 332 z "},"¥":{"ha":814,"x_min":17,"x_max":797,"o":"m 109 340 l 109 433 l 292 433 l 17 963 l 166 963 l 401 481 l 413 481 l 648 963 l 797 963 l 522 433 l 705 433 l 705 340 l 477 340 l 477 223 l 705 223 l 705 130 l 477 130 l 477 0 l 336 0 l 336 130 l 109 130 l 109 223 l 336 223 l 336 340 l 109 340 z "},"¦":{"ha":814,"x_min":336,"x_max":477,"o":"m 336 -210 l 336 373 l 477 373 l 477 -210 l 336 -210 m 336 590 l 336 1173 l 477 1173 l 477 590 l 336 590 z "},"§":{"ha":814,"x_min":47,"x_max":767,"o":"m 767 457 q 717 318 767 362 q 557 273 667 275 l 557 254 q 665 185 630 225 q 699 72 699 144 q 618 -97 699 -44 q 356 -149 536 -149 q 217 -144 275 -149 q 111 -129 159 -140 l 127 1 q 253 -15 198 -9 q 356 -20 307 -20 q 504 1 458 -20 q 550 69 550 22 q 536 118 550 102 q 493 142 523 134 l 253 217 q 97 299 146 250 q 47 446 47 347 q 110 583 47 537 q 315 629 174 629 l 315 644 q 193 695 237 671 q 132 754 149 720 q 115 840 115 787 q 199 1010 115 958 q 470 1063 283 1063 q 660 1050 569 1063 l 645 925 q 548 932 590 930 q 466 935 506 935 q 312 914 359 935 q 264 846 264 893 q 279 802 264 815 q 328 776 294 788 l 549 694 q 671 638 623 667 q 743 567 720 609 q 767 457 767 524 m 196 453 q 226 374 196 402 q 307 335 256 346 q 424 324 359 324 q 572 355 526 324 q 618 454 618 387 q 562 562 618 534 q 412 589 507 589 q 247 557 298 589 q 196 453 196 525 z "},"¨":{"ha":814,"x_min":174,"x_max":640,"o":"m 264 840 q 200 866 227 840 q 174 930 174 893 q 200 995 174 968 q 264 1021 227 1021 q 329 995 302 1021 q 355 930 355 968 q 329 866 355 893 q 264 840 302 840 m 549 840 q 485 866 512 840 q 458 930 458 893 q 485 995 458 968 q 549 1021 512 1021 q 614 995 587 1021 q 640 930 640 968 q 614 866 640 893 q 549 840 587 840 z "},"©":{"ha":814,"x_min":18,"x_max":796,"o":"m 407 10 q 119 131 221 10 q 18 471 18 252 q 119 827 18 701 q 407 953 221 953 q 694 827 593 953 q 796 471 796 701 q 694 131 796 252 q 407 10 593 10 m 407 115 q 609 208 538 115 q 681 471 681 302 q 609 750 681 651 q 407 848 538 848 q 204 750 276 848 q 133 471 133 651 q 204 208 133 302 q 407 115 276 115 m 442 258 q 259 316 323 258 q 194 483 194 374 q 257 647 194 588 q 437 705 320 705 q 540 684 497 705 q 602 624 583 663 l 518 547 q 431 597 488 597 q 351 569 380 597 q 323 490 323 541 q 358 398 323 430 q 458 366 393 366 q 518 371 488 366 q 575 384 547 376 l 591 278 q 518 262 556 266 q 442 258 479 258 z "},"ª":{"ha":814,"x_min":155,"x_max":637,"o":"m 468 528 l 464 620 l 447 620 q 399 548 430 572 q 302 524 368 524 q 194 558 233 524 q 155 655 155 593 q 206 764 155 726 q 349 802 256 802 q 452 795 409 802 l 452 799 q 333 878 452 878 l 208 878 l 215 977 l 325 976 q 506 927 447 975 q 564 786 564 878 l 564 617 l 637 608 l 637 532 l 468 528 m 452 715 q 401 718 427 718 q 351 718 376 718 q 274 667 274 718 q 332 616 274 616 q 422 645 392 616 q 452 705 452 673 l 452 715 z "},"«":{"ha":814,"x_min":41,"x_max":753,"o":"m 330 17 l 41 317 l 41 400 l 330 698 l 418 620 l 172 365 l 172 353 l 418 95 l 330 17 m 665 17 l 376 317 l 376 400 l 665 698 l 753 620 l 508 365 l 508 353 l 753 95 l 665 17 z "},"¬":{"ha":814,"x_min":68,"x_max":746,"o":"m 68 479 l 68 612 l 746 612 l 746 237 l 605 237 l 605 479 l 68 479 z "},"­":{"ha":814,"x_min":68,"x_max":746,"o":"m 68 418 l 68 544 l 746 544 l 746 418 l 68 418 z "},"®":{"ha":814,"x_min":18,"x_max":796,"o":"m 407 10 q 119 131 221 10 q 18 471 18 252 q 119 827 18 701 q 407 953 221 953 q 694 827 593 953 q 796 471 796 701 q 694 131 796 252 q 407 10 593 10 m 407 115 q 609 208 538 115 q 681 471 681 302 q 609 750 681 651 q 407 848 538 848 q 204 750 276 848 q 133 471 133 651 q 204 208 133 302 q 407 115 276 115 m 236 269 l 236 699 l 439 699 q 561 661 518 699 q 604 553 604 624 q 519 420 604 454 l 613 269 l 486 269 l 412 407 l 345 407 l 345 269 l 236 269 m 345 495 l 439 495 q 502 553 502 495 q 439 610 502 610 l 345 610 l 345 495 z "},"¯":{"ha":814,"x_min":115,"x_max":699,"o":"m 115 846 l 115 974 l 699 974 l 699 846 l 115 846 z "},"°":{"ha":814,"x_min":148,"x_max":666,"o":"m 407 468 q 216 535 285 468 q 148 722 148 602 q 216 909 148 842 q 407 977 285 977 q 597 909 529 977 q 666 722 666 842 q 597 535 666 602 q 407 468 529 468 m 407 583 q 500 620 467 583 q 534 722 534 656 q 500 825 534 788 q 407 861 467 861 q 314 825 347 861 q 280 722 280 788 q 314 620 280 656 q 407 583 347 583 z "},"±":{"ha":814,"x_min":68,"x_max":746,"o":"m 68 463 l 68 589 l 336 589 l 336 830 l 477 830 l 477 589 l 746 589 l 746 463 l 477 463 l 477 252 l 746 252 l 746 126 l 68 126 l 68 252 l 336 252 l 336 463 l 68 463 z "},"²":{"ha":814,"x_min":223,"x_max":590,"o":"m 240 544 l 240 650 q 441 805 441 721 q 372 868 441 868 q 263 844 321 868 l 223 937 q 303 968 263 960 q 397 977 344 977 q 525 940 477 977 q 572 842 572 903 q 407 648 572 736 l 407 639 l 590 639 l 590 544 l 240 544 z "},"³":{"ha":814,"x_min":233,"x_max":580,"o":"m 381 538 q 300 542 337 537 q 233 555 262 547 l 261 654 q 310 645 282 650 q 372 640 337 640 q 463 683 463 640 q 376 718 463 718 l 333 718 l 326 797 q 421 813 392 802 q 450 842 450 825 q 374 875 450 875 q 256 855 309 875 l 241 956 q 314 972 275 967 q 395 977 352 977 q 523 952 478 977 q 568 883 568 928 q 541 822 568 848 q 467 787 513 797 l 467 771 q 549 738 518 764 q 580 670 580 712 q 528 573 580 607 q 381 538 476 539 z "},"´":{"ha":814,"x_min":298,"x_max":557,"o":"m 298 846 l 413 1104 l 557 1104 l 428 846 l 298 846 z "},"µ":{"ha":814,"x_min":102,"x_max":782,"o":"m 380 -14 q 241 138 271 -14 l 229 138 l 253 -312 l 102 -312 l 102 719 l 246 719 l 246 292 q 281 171 246 214 q 380 129 317 129 q 499 176 459 129 q 539 332 539 222 l 539 719 l 683 719 l 683 130 l 782 115 l 782 0 l 551 -7 l 541 138 l 528 138 q 380 -14 500 -14 z "},"¶":{"ha":814,"x_min":24,"x_max":787,"o":"m 286 0 l 286 437 q 93 515 161 450 q 24 693 24 581 q 110 892 24 821 q 355 963 196 963 l 787 963 l 787 834 l 673 834 l 673 0 l 537 0 l 537 834 l 422 834 l 422 0 l 286 0 z "},"·":{"ha":814,"x_min":307,"x_max":507,"o":"m 407 381 q 336 411 366 381 q 307 481 307 440 q 336 553 307 524 q 407 582 366 582 q 478 553 449 582 q 507 481 507 524 q 478 411 507 440 q 407 381 449 381 z "},"¸":{"ha":814,"x_min":281,"x_max":537,"o":"m 281 -326 l 281 -224 q 408 -175 408 -224 q 298 -129 408 -129 l 345 4 l 437 -3 l 420 -68 q 537 -181 537 -92 q 281 -326 537 -326 z "},"¹":{"ha":814,"x_min":231,"x_max":583,"o":"m 231 543 l 231 638 l 366 638 l 366 854 l 237 820 l 237 927 l 366 963 l 472 963 l 472 638 l 583 638 l 583 543 l 231 543 z "},"º":{"ha":814,"x_min":175,"x_max":639,"o":"m 407 522 q 239 585 302 522 q 175 749 175 647 q 239 915 175 852 q 407 977 302 977 q 575 915 512 977 q 639 749 639 852 q 575 585 639 647 q 407 522 512 522 m 407 624 q 484 659 455 624 q 513 749 513 693 q 484 840 513 806 q 407 875 455 875 q 330 840 359 875 q 300 749 300 806 q 330 659 300 693 q 407 624 359 624 z "},"»":{"ha":814,"x_min":60,"x_max":773,"o":"m 149 17 l 60 95 l 306 353 l 306 365 l 60 620 l 149 698 l 437 400 l 437 317 l 149 17 m 484 17 l 396 95 l 642 353 l 642 365 l 396 620 l 484 698 l 773 400 l 773 317 l 484 17 z "},"¼":{"ha":814,"x_min":55,"x_max":757,"o":"m 385 72 l 386 74 l 438 397 l 547 397 l 509 163 l 602 163 l 602 419 l 708 419 l 708 163 l 755 163 l 755 72 l 708 72 l 708 0 l 602 0 l 602 72 l 385 72 m 55 543 l 55 638 l 190 638 l 190 854 l 61 820 l 61 927 l 190 963 l 296 963 l 296 638 l 406 638 l 406 543 l 55 543 m 126 201 l 64 293 l 353 479 l 395 414 l 126 201 m 472 467 l 430 528 l 694 743 l 757 655 l 472 467 z "},"½":{"ha":814,"x_min":55,"x_max":773,"o":"m 423 -1 l 423 106 q 625 260 625 176 q 555 323 625 323 q 446 299 504 323 l 406 393 q 487 424 446 415 q 581 432 527 432 q 708 395 660 432 q 755 298 755 358 q 590 103 755 192 l 590 94 l 773 94 l 773 -1 l 423 -1 m 55 543 l 55 638 l 190 638 l 190 854 l 61 820 l 61 927 l 190 963 l 296 963 l 296 638 l 406 638 l 406 543 l 55 543 m 126 201 l 64 293 l 353 479 l 395 414 l 126 201 m 472 467 l 430 528 l 694 743 l 757 655 l 472 467 z "},"¾":{"ha":814,"x_min":64,"x_max":757,"o":"m 218 538 q 137 542 174 537 q 71 555 100 547 l 98 654 q 147 645 119 650 q 209 640 174 640 q 300 683 300 640 q 214 718 300 718 l 170 718 l 163 797 q 258 813 229 802 q 288 842 288 825 q 212 875 288 875 q 93 855 146 875 l 79 956 q 151 972 113 967 q 232 977 189 977 q 360 952 315 977 q 406 883 406 928 q 378 822 406 848 q 304 787 350 797 l 304 771 q 386 738 355 764 q 417 670 417 712 q 365 573 417 607 q 218 538 313 539 m 385 72 l 386 74 l 438 397 l 547 397 l 509 163 l 602 163 l 602 419 l 708 419 l 708 163 l 755 163 l 755 72 l 708 72 l 708 0 l 602 0 l 602 72 l 385 72 m 126 201 l 64 293 l 353 479 l 395 414 l 126 201 m 472 467 l 430 528 l 694 743 l 757 655 l 472 467 z "},"¿":{"ha":814,"x_min":132,"x_max":735,"o":"m 410 -258 q 204 -197 277 -258 q 132 -28 132 -137 q 282 218 132 122 q 369 354 369 275 l 369 410 l 502 410 l 502 345 q 391 140 502 210 q 281 -22 281 72 q 315 -101 281 -73 q 411 -129 349 -129 q 536 -97 475 -129 q 642 -12 598 -65 l 735 -109 q 600 -217 688 -176 q 410 -258 512 -258 m 433 732 q 504 703 475 732 q 533 632 533 674 q 504 561 533 591 q 433 532 475 532 q 362 561 391 532 q 332 632 332 591 q 362 703 332 674 q 433 732 391 732 z "},"À":{"ha":814,"x_min":31,"x_max":783,"o":"m 31 0 l 309 963 l 505 963 l 783 0 l 641 0 l 578 235 l 236 235 l 173 0 l 31 0 m 271 363 l 543 363 l 413 846 l 401 846 l 271 363 m 345 1072 l 162 1241 l 353 1241 l 503 1072 l 345 1072 z "},"Á":{"ha":814,"x_min":31,"x_max":783,"o":"m 31 0 l 309 963 l 505 963 l 783 0 l 641 0 l 578 235 l 236 235 l 173 0 l 31 0 m 271 363 l 543 363 l 413 846 l 401 846 l 271 363 m 318 1072 l 467 1241 l 659 1241 l 475 1072 l 318 1072 z "},"Â":{"ha":814,"x_min":31,"x_max":783,"o":"m 31 0 l 309 963 l 505 963 l 783 0 l 641 0 l 578 235 l 236 235 l 173 0 l 31 0 m 271 363 l 543 363 l 413 846 l 401 846 l 271 363 m 176 1072 l 352 1248 l 469 1248 l 645 1072 l 494 1072 l 410 1169 l 326 1072 l 176 1072 z "},"Ã":{"ha":814,"x_min":31,"x_max":783,"o":"m 31 0 l 309 963 l 505 963 l 783 0 l 641 0 l 578 235 l 236 235 l 173 0 l 31 0 m 271 363 l 543 363 l 413 846 l 401 846 l 271 363 m 153 1062 l 153 1096 q 295 1265 153 1265 q 353 1257 323 1265 q 422 1232 383 1249 q 484 1207 463 1216 q 522 1198 505 1198 q 558 1241 558 1198 l 558 1282 l 675 1282 l 675 1248 q 547 1085 675 1085 q 492 1095 524 1085 q 416 1122 460 1104 q 363 1144 387 1135 q 321 1153 338 1153 q 271 1103 271 1153 l 271 1062 l 153 1062 z "},"Ä":{"ha":814,"x_min":31,"x_max":783,"o":"m 31 0 l 309 963 l 505 963 l 783 0 l 641 0 l 578 235 l 236 235 l 173 0 l 31 0 m 271 363 l 543 363 l 413 846 l 401 846 l 271 363 m 266 1072 q 202 1098 229 1072 q 175 1162 175 1125 q 202 1227 175 1200 q 266 1253 229 1253 q 330 1227 304 1253 q 357 1162 357 1200 q 330 1098 357 1125 q 266 1072 304 1072 m 548 1072 q 484 1098 511 1072 q 457 1162 457 1125 q 484 1227 457 1200 q 548 1253 511 1253 q 612 1227 586 1253 q 639 1162 639 1200 q 612 1098 639 1125 q 548 1072 586 1072 z "},"Å":{"ha":814,"x_min":31,"x_max":783,"o":"m 31 0 l 309 963 l 505 963 l 783 0 l 641 0 l 578 235 l 236 235 l 173 0 l 31 0 m 271 363 l 543 363 l 413 846 l 401 846 l 271 363 m 407 1009 q 288 1046 330 1009 q 245 1149 245 1082 q 288 1252 245 1215 q 407 1289 330 1289 q 526 1252 484 1289 q 568 1149 568 1215 q 526 1046 568 1082 q 407 1009 484 1009 m 407 1088 q 472 1149 472 1088 q 407 1211 472 1211 q 342 1149 342 1211 q 407 1088 342 1088 z "},"Æ":{"ha":814,"x_min":28,"x_max":746,"o":"m 28 0 l 293 963 l 746 963 l 746 834 l 529 834 l 529 547 l 705 547 l 705 418 l 529 418 l 529 129 l 746 129 l 746 0 l 400 0 l 400 163 l 202 163 l 157 0 l 28 0 m 235 282 l 400 282 l 400 846 l 389 846 l 235 282 z "},"Ç":{"ha":814,"x_min":58,"x_max":772,"o":"m 507 -14 q 58 483 58 -14 q 172 847 58 718 q 491 977 285 977 q 665 945 591 977 q 772 855 739 913 l 672 755 q 594 827 642 802 q 492 852 547 852 q 282 758 361 852 q 203 490 203 663 q 530 111 203 111 q 724 152 629 111 l 755 33 q 507 -14 637 -14 m 342 -326 l 342 -224 q 469 -175 469 -224 q 359 -129 469 -129 l 406 4 l 498 -3 l 481 -68 q 598 -181 598 -92 q 342 -326 598 -326 z "},"È":{"ha":814,"x_min":109,"x_max":746,"o":"m 109 0 l 109 963 l 746 963 l 746 834 l 250 834 l 250 547 l 624 547 l 624 418 l 250 418 l 250 129 l 746 129 l 746 0 l 109 0 m 366 1072 l 182 1241 l 374 1241 l 523 1072 l 366 1072 z "},"É":{"ha":814,"x_min":109,"x_max":746,"o":"m 109 0 l 109 963 l 746 963 l 746 834 l 250 834 l 250 547 l 624 547 l 624 418 l 250 418 l 250 129 l 746 129 l 746 0 l 109 0 m 338 1072 l 488 1241 l 679 1241 l 496 1072 l 338 1072 z "},"Ê":{"ha":814,"x_min":109,"x_max":746,"o":"m 109 0 l 109 963 l 746 963 l 746 834 l 250 834 l 250 547 l 624 547 l 624 418 l 250 418 l 250 129 l 746 129 l 746 0 l 109 0 m 196 1072 l 372 1248 l 489 1248 l 665 1072 l 515 1072 l 431 1169 l 347 1072 l 196 1072 z "},"Ë":{"ha":814,"x_min":109,"x_max":746,"o":"m 109 0 l 109 963 l 746 963 l 746 834 l 250 834 l 250 547 l 624 547 l 624 418 l 250 418 l 250 129 l 746 129 l 746 0 l 109 0 m 286 1072 q 222 1098 249 1072 q 195 1162 195 1125 q 222 1227 195 1200 q 286 1253 249 1253 q 351 1227 324 1253 q 377 1162 377 1200 q 351 1098 377 1125 q 286 1072 324 1072 m 568 1072 q 504 1098 531 1072 q 477 1162 477 1125 q 504 1227 477 1200 q 568 1253 531 1253 q 633 1227 606 1253 q 659 1162 659 1200 q 633 1098 659 1125 q 568 1072 606 1072 z "},"Ì":{"ha":814,"x_min":114,"x_max":700,"o":"m 114 0 l 114 129 l 336 129 l 336 834 l 114 834 l 114 963 l 700 963 l 700 834 l 477 834 l 477 129 l 700 129 l 700 0 l 114 0 m 345 1072 l 162 1241 l 353 1241 l 503 1072 l 345 1072 z "},"Í":{"ha":814,"x_min":114,"x_max":700,"o":"m 114 0 l 114 129 l 336 129 l 336 834 l 114 834 l 114 963 l 700 963 l 700 834 l 477 834 l 477 129 l 700 129 l 700 0 l 114 0 m 318 1072 l 467 1241 l 659 1241 l 475 1072 l 318 1072 z "},"Î":{"ha":814,"x_min":114,"x_max":700,"o":"m 114 0 l 114 129 l 336 129 l 336 834 l 114 834 l 114 963 l 700 963 l 700 834 l 477 834 l 477 129 l 700 129 l 700 0 l 114 0 m 176 1072 l 352 1248 l 469 1248 l 645 1072 l 494 1072 l 410 1169 l 326 1072 l 176 1072 z "},"Ï":{"ha":814,"x_min":114,"x_max":700,"o":"m 114 0 l 114 129 l 336 129 l 336 834 l 114 834 l 114 963 l 700 963 l 700 834 l 477 834 l 477 129 l 700 129 l 700 0 l 114 0 m 266 1072 q 202 1098 229 1072 q 175 1162 175 1125 q 202 1227 175 1200 q 266 1253 229 1253 q 330 1227 304 1253 q 357 1162 357 1200 q 330 1098 357 1125 q 266 1072 304 1072 m 548 1072 q 484 1098 511 1072 q 457 1162 457 1125 q 484 1227 457 1200 q 548 1253 511 1253 q 612 1227 586 1253 q 639 1162 639 1200 q 612 1098 639 1125 q 548 1072 586 1072 z "},"Ð":{"ha":814,"x_min":8,"x_max":769,"o":"m 8 415 l 8 544 l 95 544 l 95 963 l 328 963 q 769 468 769 963 q 328 0 769 0 l 95 0 l 95 415 l 8 415 m 236 129 l 328 129 q 627 468 627 129 q 328 834 627 834 l 236 834 l 236 544 l 441 544 l 441 415 l 236 415 l 236 129 z "},"Ñ":{"ha":814,"x_min":100,"x_max":713,"o":"m 532 0 l 255 732 l 241 732 l 241 0 l 100 0 l 100 963 l 282 963 l 559 231 l 572 231 l 572 963 l 713 963 l 713 0 l 532 0 m 153 1062 l 153 1096 q 295 1265 153 1265 q 353 1257 323 1265 q 422 1232 383 1249 q 484 1207 463 1216 q 522 1198 505 1198 q 558 1241 558 1198 l 558 1282 l 675 1282 l 675 1248 q 547 1085 675 1085 q 492 1095 524 1085 q 416 1122 460 1104 q 363 1144 387 1135 q 321 1153 338 1153 q 271 1103 271 1153 l 271 1062 l 153 1062 z "},"Ò":{"ha":814,"x_min":52,"x_max":762,"o":"m 407 -14 q 52 475 52 -14 q 407 977 52 977 q 762 475 762 977 q 407 -14 762 -14 m 407 111 q 617 475 617 111 q 407 852 617 852 q 197 475 197 852 q 407 111 197 111 m 345 1072 l 162 1241 l 353 1241 l 503 1072 l 345 1072 z "},"Ó":{"ha":814,"x_min":52,"x_max":762,"o":"m 407 -14 q 52 475 52 -14 q 407 977 52 977 q 762 475 762 977 q 407 -14 762 -14 m 407 111 q 617 475 617 111 q 407 852 617 852 q 197 475 197 852 q 407 111 197 111 m 318 1072 l 467 1241 l 659 1241 l 475 1072 l 318 1072 z "},"Ô":{"ha":814,"x_min":52,"x_max":762,"o":"m 407 -14 q 52 475 52 -14 q 407 977 52 977 q 762 475 762 977 q 407 -14 762 -14 m 407 111 q 617 475 617 111 q 407 852 617 852 q 197 475 197 852 q 407 111 197 111 m 176 1072 l 352 1248 l 469 1248 l 645 1072 l 494 1072 l 410 1169 l 326 1072 l 176 1072 z "},"Õ":{"ha":814,"x_min":52,"x_max":762,"o":"m 407 -14 q 52 475 52 -14 q 407 977 52 977 q 762 475 762 977 q 407 -14 762 -14 m 407 111 q 617 475 617 111 q 407 852 617 852 q 197 475 197 852 q 407 111 197 111 m 153 1062 l 153 1096 q 295 1265 153 1265 q 353 1257 323 1265 q 422 1232 383 1249 q 484 1207 463 1216 q 522 1198 505 1198 q 558 1241 558 1198 l 558 1282 l 675 1282 l 675 1248 q 547 1085 675 1085 q 492 1095 524 1085 q 416 1122 460 1104 q 363 1144 387 1135 q 321 1153 338 1153 q 271 1103 271 1153 l 271 1062 l 153 1062 z "},"Ö":{"ha":814,"x_min":52,"x_max":762,"o":"m 407 -14 q 52 475 52 -14 q 407 977 52 977 q 762 475 762 977 q 407 -14 762 -14 m 407 111 q 617 475 617 111 q 407 852 617 852 q 197 475 197 852 q 407 111 197 111 m 266 1072 q 202 1098 229 1072 q 175 1162 175 1125 q 202 1227 175 1200 q 266 1253 229 1253 q 330 1227 304 1253 q 357 1162 357 1200 q 330 1098 357 1125 q 266 1072 304 1072 m 548 1072 q 484 1098 511 1072 q 457 1162 457 1125 q 484 1227 457 1200 q 548 1253 511 1253 q 612 1227 586 1253 q 639 1162 639 1200 q 612 1098 639 1125 q 548 1072 586 1072 z "},"×":{"ha":814,"x_min":82,"x_max":732,"o":"m 169 127 l 82 210 l 324 466 l 82 722 l 169 806 l 407 553 l 645 806 l 732 722 l 490 466 l 732 210 l 645 127 l 407 379 l 169 127 z "},"Ø":{"ha":814,"x_min":45,"x_max":762,"o":"m 136 -91 l 45 -40 l 135 117 q 52 475 52 239 q 407 977 52 977 q 598 925 521 977 l 664 1039 l 755 988 l 675 848 q 762 475 762 723 q 407 -14 762 -14 q 211 39 290 -14 l 136 -91 m 407 111 q 617 475 617 111 q 589 699 617 612 l 281 161 q 407 111 330 111 m 222 268 l 530 804 q 407 852 481 852 q 197 475 197 852 q 222 268 197 350 z "},"Ù":{"ha":814,"x_min":95,"x_max":719,"o":"m 404 -14 q 95 309 95 -14 l 95 963 l 236 963 l 236 309 q 277 164 236 213 q 407 115 319 115 q 578 309 578 115 l 578 963 l 719 963 l 719 309 q 639 67 719 148 q 404 -14 559 -14 m 345 1072 l 162 1241 l 353 1241 l 503 1072 l 345 1072 z "},"Ú":{"ha":814,"x_min":95,"x_max":719,"o":"m 404 -14 q 95 309 95 -14 l 95 963 l 236 963 l 236 309 q 277 164 236 213 q 407 115 319 115 q 578 309 578 115 l 578 963 l 719 963 l 719 309 q 639 67 719 148 q 404 -14 559 -14 m 318 1072 l 467 1241 l 659 1241 l 475 1072 l 318 1072 z "},"Û":{"ha":814,"x_min":95,"x_max":719,"o":"m 404 -14 q 95 309 95 -14 l 95 963 l 236 963 l 236 309 q 277 164 236 213 q 407 115 319 115 q 578 309 578 115 l 578 963 l 719 963 l 719 309 q 639 67 719 148 q 404 -14 559 -14 m 176 1072 l 352 1248 l 469 1248 l 645 1072 l 494 1072 l 410 1169 l 326 1072 l 176 1072 z "},"Ü":{"ha":814,"x_min":95,"x_max":719,"o":"m 404 -14 q 95 309 95 -14 l 95 963 l 236 963 l 236 309 q 277 164 236 213 q 407 115 319 115 q 578 309 578 115 l 578 963 l 719 963 l 719 309 q 639 67 719 148 q 404 -14 559 -14 m 266 1072 q 202 1098 229 1072 q 175 1162 175 1125 q 202 1227 175 1200 q 266 1253 229 1253 q 330 1227 304 1253 q 357 1162 357 1200 q 330 1098 357 1125 q 266 1072 304 1072 m 548 1072 q 484 1098 511 1072 q 457 1162 457 1125 q 484 1227 457 1200 q 548 1253 511 1253 q 612 1227 586 1253 q 639 1162 639 1200 q 612 1098 639 1125 q 548 1072 586 1072 z "},"Ý":{"ha":814,"x_min":17,"x_max":797,"o":"m 336 0 l 336 347 l 17 963 l 166 963 l 401 481 l 413 481 l 648 963 l 797 963 l 477 347 l 477 0 l 336 0 m 318 1072 l 467 1241 l 659 1241 l 475 1072 l 318 1072 z "},"Þ":{"ha":814,"x_min":109,"x_max":760,"o":"m 109 0 l 109 963 l 250 963 l 250 814 l 392 814 q 663 727 567 814 q 760 481 760 640 q 663 236 760 323 q 392 149 567 149 l 250 149 l 250 0 l 109 0 m 250 278 l 392 278 q 558 332 499 278 q 617 481 617 385 q 558 632 617 579 q 392 685 499 685 l 250 685 l 250 278 z "},"ß":{"ha":814,"x_min":46,"x_max":789,"o":"m 555 -14 q 459 -8 501 -14 q 384 7 417 -3 l 400 137 q 488 121 450 127 q 555 115 526 115 q 640 191 640 115 q 615 273 640 241 q 557 332 591 305 q 503 381 530 355 q 459 440 477 406 q 442 522 442 473 q 459 605 442 570 q 493 672 476 641 q 531 736 513 702 q 549 821 549 771 q 524 880 549 859 q 453 902 499 901 q 336 858 377 902 q 294 732 294 813 l 294 0 l 151 0 l 151 437 l 46 437 l 46 556 l 151 556 l 151 726 q 231 951 151 871 q 457 1031 311 1031 q 635 976 572 1031 q 698 821 698 921 q 687 742 698 773 q 661 688 677 711 q 629 642 645 665 q 604 592 616 617 q 591 529 591 568 q 613 467 591 496 q 665 406 635 438 q 723 348 694 379 q 770 280 751 317 q 789 194 789 242 q 728 41 789 95 q 555 -14 667 -14 z "},"à":{"ha":814,"x_min":65,"x_max":785,"o":"m 555 -7 l 548 152 l 534 152 q 464 28 526 69 q 301 -14 401 -14 q 127 41 189 -14 q 65 194 65 95 q 150 369 65 308 q 391 430 235 430 q 526 418 468 430 l 526 452 q 476 557 526 524 q 326 593 425 591 l 153 598 l 167 726 l 312 724 q 577 647 490 721 q 663 430 663 572 l 663 130 l 785 115 l 785 0 l 555 -7 m 526 308 q 457 314 492 313 q 388 315 423 315 q 201 201 201 315 q 233 127 201 153 q 324 102 265 102 q 436 125 391 102 q 504 184 481 148 q 526 258 526 220 l 526 308 m 342 846 l 213 1104 l 357 1104 l 472 846 l 342 846 z "},"á":{"ha":814,"x_min":65,"x_max":785,"o":"m 555 -7 l 548 152 l 534 152 q 464 28 526 69 q 301 -14 401 -14 q 127 41 189 -14 q 65 194 65 95 q 150 369 65 308 q 391 430 235 430 q 526 418 468 430 l 526 452 q 476 557 526 524 q 326 593 425 591 l 153 598 l 167 726 l 312 724 q 577 647 490 721 q 663 430 663 572 l 663 130 l 785 115 l 785 0 l 555 -7 m 526 308 q 457 314 492 313 q 388 315 423 315 q 201 201 201 315 q 233 127 201 153 q 324 102 265 102 q 436 125 391 102 q 504 184 481 148 q 526 258 526 220 l 526 308 m 325 846 l 440 1104 l 584 1104 l 455 846 l 325 846 z "},"â":{"ha":814,"x_min":65,"x_max":785,"o":"m 555 -7 l 548 152 l 534 152 q 464 28 526 69 q 301 -14 401 -14 q 127 41 189 -14 q 65 194 65 95 q 150 369 65 308 q 391 430 235 430 q 526 418 468 430 l 526 452 q 476 557 526 524 q 326 593 425 591 l 153 598 l 167 726 l 312 724 q 577 647 490 721 q 663 430 663 572 l 663 130 l 785 115 l 785 0 l 555 -7 m 526 308 q 457 314 492 313 q 388 315 423 315 q 201 201 201 315 q 233 127 201 153 q 324 102 265 102 q 436 125 391 102 q 504 184 481 148 q 526 258 526 220 l 526 308 m 172 846 l 335 1104 l 452 1104 l 614 846 l 471 846 l 393 1000 l 316 846 l 172 846 z "},"ã":{"ha":814,"x_min":65,"x_max":785,"o":"m 555 -7 l 548 152 l 534 152 q 464 28 526 69 q 301 -14 401 -14 q 127 41 189 -14 q 65 194 65 95 q 150 369 65 308 q 391 430 235 430 q 526 418 468 430 l 526 452 q 476 557 526 524 q 326 593 425 591 l 153 598 l 167 726 l 312 724 q 577 647 490 721 q 663 430 663 572 l 663 130 l 785 115 l 785 0 l 555 -7 m 526 308 q 457 314 492 313 q 388 315 423 315 q 201 201 201 315 q 233 127 201 153 q 324 102 265 102 q 436 125 391 102 q 504 184 481 148 q 526 258 526 220 l 526 308 m 156 852 l 156 879 q 298 1048 156 1048 q 349 1040 326 1048 q 399 1019 373 1031 q 457 991 433 1002 q 498 981 481 981 q 534 1024 534 981 l 534 1085 l 651 1085 l 651 1031 q 524 868 651 868 q 477 876 505 868 q 413 902 449 884 q 368 925 391 913 q 324 936 346 936 q 274 886 274 936 l 274 852 l 156 852 z "},"ä":{"ha":814,"x_min":65,"x_max":785,"o":"m 555 -7 l 548 152 l 534 152 q 464 28 526 69 q 301 -14 401 -14 q 127 41 189 -14 q 65 194 65 95 q 150 369 65 308 q 391 430 235 430 q 526 418 468 430 l 526 452 q 476 557 526 524 q 326 593 425 591 l 153 598 l 167 726 l 312 724 q 577 647 490 721 q 663 430 663 572 l 663 130 l 785 115 l 785 0 l 555 -7 m 526 308 q 457 314 492 313 q 388 315 423 315 q 201 201 201 315 q 233 127 201 153 q 324 102 265 102 q 436 125 391 102 q 504 184 481 148 q 526 258 526 220 l 526 308 m 252 840 q 188 866 215 840 q 161 930 161 893 q 188 995 161 968 q 252 1021 215 1021 q 317 995 290 1021 q 343 930 343 968 q 317 866 343 893 q 252 840 290 840 m 537 840 q 473 866 500 840 q 446 930 446 893 q 473 995 446 968 q 537 1021 500 1021 q 602 995 575 1021 q 628 930 628 968 q 602 866 628 893 q 537 840 575 840 z "},"å":{"ha":814,"x_min":65,"x_max":785,"o":"m 555 -7 l 548 152 l 534 152 q 464 28 526 69 q 301 -14 401 -14 q 127 41 189 -14 q 65 194 65 95 q 150 369 65 308 q 391 430 235 430 q 526 418 468 430 l 526 452 q 476 557 526 524 q 326 593 425 591 l 153 598 l 167 726 l 312 724 q 577 647 490 721 q 663 430 663 572 l 663 130 l 785 115 l 785 0 l 555 -7 m 526 308 q 457 314 492 313 q 388 315 423 315 q 201 201 201 315 q 233 127 201 153 q 324 102 265 102 q 436 125 391 102 q 504 184 481 148 q 526 258 526 220 l 526 308 m 393 812 q 274 851 317 812 q 232 959 232 889 q 274 1067 232 1029 q 393 1105 317 1105 q 512 1067 470 1105 q 555 959 555 1029 q 512 851 555 889 q 393 812 470 812 m 393 891 q 458 959 458 891 q 393 1027 458 1027 q 328 959 328 1027 q 393 891 328 891 z "},"æ":{"ha":814,"x_min":14,"x_max":797,"o":"m 203 -14 q 66 43 118 -14 q 14 194 14 100 q 83 365 14 300 q 265 430 153 430 q 353 422 313 430 l 353 452 q 300 558 353 519 q 153 600 248 597 l 89 602 l 102 726 l 166 724 q 416 597 343 718 q 590 732 470 732 q 743 642 689 732 q 797 388 797 552 q 796 340 797 365 q 793 296 795 316 l 482 296 q 545 162 496 209 q 669 115 593 115 q 751 124 708 115 l 768 -1 q 711 -10 741 -7 q 653 -14 681 -14 q 412 152 477 -14 l 400 152 q 340 30 387 73 q 203 -14 294 -14 m 353 258 l 353 315 q 313 320 336 319 q 262 321 290 321 q 176 288 209 321 q 143 201 143 255 q 170 129 143 156 q 239 102 196 102 q 323 143 294 102 q 353 258 353 184 m 477 399 l 667 399 q 646 557 667 508 q 578 606 625 606 q 505 557 529 606 q 477 399 480 508 z "},"ç":{"ha":814,"x_min":92,"x_max":744,"o":"m 476 -14 q 192 83 292 -14 q 92 361 92 180 q 187 635 92 537 q 457 732 281 732 q 637 693 562 732 q 744 583 712 654 l 633 500 q 555 576 603 549 q 452 604 508 604 q 294 542 350 604 q 237 368 237 481 q 303 180 237 245 q 492 115 370 115 q 593 120 543 115 q 690 133 643 125 l 707 7 q 592 -9 651 -5 q 476 -14 532 -14 m 332 -326 l 332 -224 q 459 -175 459 -224 q 349 -129 459 -129 l 396 4 l 488 -3 l 471 -68 q 588 -181 588 -92 q 332 -326 588 -326 z "},"è":{"ha":814,"x_min":85,"x_max":715,"o":"m 469 -14 q 185 83 286 -14 q 85 361 85 180 q 170 635 85 537 q 410 732 255 732 q 635 644 555 732 q 715 388 715 556 q 711 296 715 338 l 225 296 q 311 159 244 205 q 486 113 377 113 q 574 118 530 113 q 662 132 617 123 l 680 5 q 563 -10 616 -7 q 469 -14 510 -14 m 220 406 l 585 406 q 538 554 585 503 q 411 606 492 606 q 278 554 328 606 q 220 406 229 502 m 355 846 l 227 1104 l 370 1104 l 486 846 l 355 846 z "},"é":{"ha":814,"x_min":85,"x_max":715,"o":"m 469 -14 q 185 83 286 -14 q 85 361 85 180 q 170 635 85 537 q 410 732 255 732 q 635 644 555 732 q 715 388 715 556 q 711 296 715 338 l 225 296 q 311 159 244 205 q 486 113 377 113 q 574 118 530 113 q 662 132 617 123 l 680 5 q 563 -10 616 -7 q 469 -14 510 -14 m 220 406 l 585 406 q 538 554 585 503 q 411 606 492 606 q 278 554 328 606 q 220 406 229 502 m 338 846 l 454 1104 l 597 1104 l 469 846 l 338 846 z "},"ê":{"ha":814,"x_min":85,"x_max":715,"o":"m 469 -14 q 185 83 286 -14 q 85 361 85 180 q 170 635 85 537 q 410 732 255 732 q 635 644 555 732 q 715 388 715 556 q 711 296 715 338 l 225 296 q 311 159 244 205 q 486 113 377 113 q 574 118 530 113 q 662 132 617 123 l 680 5 q 563 -10 616 -7 q 469 -14 510 -14 m 220 406 l 585 406 q 538 554 585 503 q 411 606 492 606 q 278 554 328 606 q 220 406 229 502 m 186 846 l 349 1104 l 465 1104 l 628 846 l 484 846 l 407 1000 l 330 846 l 186 846 z "},"ë":{"ha":814,"x_min":85,"x_max":715,"o":"m 469 -14 q 185 83 286 -14 q 85 361 85 180 q 170 635 85 537 q 410 732 255 732 q 635 644 555 732 q 715 388 715 556 q 711 296 715 338 l 225 296 q 311 159 244 205 q 486 113 377 113 q 574 118 530 113 q 662 132 617 123 l 680 5 q 563 -10 616 -7 q 469 -14 510 -14 m 220 406 l 585 406 q 538 554 585 503 q 411 606 492 606 q 278 554 328 606 q 220 406 229 502 m 266 840 q 202 866 229 840 q 175 930 175 893 q 202 995 175 968 q 266 1021 229 1021 q 330 995 304 1021 q 357 930 357 968 q 330 866 357 893 q 266 840 304 840 m 551 840 q 487 866 513 840 q 460 930 460 893 q 487 995 460 968 q 551 1021 513 1021 q 615 995 589 1021 q 642 930 642 968 q 615 866 642 893 q 551 840 589 840 z "},"ì":{"ha":814,"x_min":109,"x_max":747,"o":"m 109 0 l 109 126 l 382 126 l 382 593 l 149 593 l 149 719 l 526 719 l 526 126 l 747 126 l 747 0 l 109 0 m 389 846 l 260 1104 l 404 1104 l 519 846 l 389 846 z "},"í":{"ha":814,"x_min":109,"x_max":747,"o":"m 109 0 l 109 126 l 382 126 l 382 593 l 149 593 l 149 719 l 526 719 l 526 126 l 747 126 l 747 0 l 109 0 m 372 846 l 488 1104 l 631 1104 l 503 846 l 372 846 z "},"î":{"ha":814,"x_min":109,"x_max":747,"o":"m 109 0 l 109 126 l 382 126 l 382 593 l 149 593 l 149 719 l 526 719 l 526 126 l 747 126 l 747 0 l 109 0 m 220 846 l 382 1104 l 499 1104 l 662 846 l 518 846 l 441 1000 l 363 846 l 220 846 z "},"ï":{"ha":814,"x_min":109,"x_max":747,"o":"m 109 0 l 109 126 l 382 126 l 382 593 l 149 593 l 149 719 l 526 719 l 526 126 l 747 126 l 747 0 l 109 0 m 300 840 q 236 866 262 840 q 209 930 209 893 q 236 995 209 968 q 300 1021 262 1021 q 364 995 338 1021 q 391 930 391 968 q 364 866 391 893 q 300 840 338 840 m 585 840 q 520 866 547 840 q 494 930 494 893 q 520 995 494 968 q 585 1021 547 1021 q 649 995 623 1021 q 675 930 675 968 q 649 866 675 893 q 585 840 623 840 z "},"ð":{"ha":814,"x_min":77,"x_max":745,"o":"m 393 -14 q 159 70 241 -14 q 77 305 77 154 q 151 541 77 457 q 360 624 224 624 q 495 586 440 624 q 569 480 551 549 l 581 480 q 500 768 576 656 l 185 676 l 158 795 l 405 867 q 226 960 333 921 l 260 1028 q 522 901 421 979 l 718 958 l 745 839 l 619 802 q 704 622 677 724 q 732 389 732 520 l 732 357 q 644 83 732 180 q 393 -14 555 -14 m 401 111 q 533 162 486 111 q 581 305 581 214 q 533 448 581 397 q 401 499 486 499 q 269 448 317 499 q 222 305 222 397 q 269 162 222 214 q 401 111 317 111 z "},"ñ":{"ha":814,"x_min":114,"x_max":700,"o":"m 556 0 l 556 468 q 522 568 556 533 q 427 604 488 604 q 258 404 258 604 l 258 0 l 114 0 l 114 719 l 244 719 l 256 589 l 271 589 q 461 732 283 732 q 637 663 575 732 q 700 468 700 594 l 700 0 l 556 0 m 163 852 l 163 879 q 305 1048 163 1048 q 356 1040 332 1048 q 406 1019 380 1031 q 464 991 439 1002 q 505 981 488 981 q 541 1024 541 981 l 541 1085 l 658 1085 l 658 1031 q 530 868 658 868 q 484 876 511 868 q 420 902 456 884 q 375 925 397 913 q 331 936 353 936 q 281 886 281 936 l 281 852 l 163 852 z "},"ò":{"ha":814,"x_min":92,"x_max":722,"o":"m 407 -14 q 175 84 258 -14 q 92 359 92 182 q 175 635 92 538 q 407 732 258 732 q 639 635 557 732 q 722 359 722 538 q 639 84 722 182 q 407 -14 557 -14 m 407 115 q 529 179 486 115 q 572 359 572 243 q 529 540 572 477 q 407 604 486 604 q 284 540 328 604 q 241 359 241 477 q 284 179 241 243 q 407 115 328 115 m 355 846 l 227 1104 l 370 1104 l 486 846 l 355 846 z "},"ó":{"ha":814,"x_min":92,"x_max":722,"o":"m 407 -14 q 175 84 258 -14 q 92 359 92 182 q 175 635 92 538 q 407 732 258 732 q 639 635 557 732 q 722 359 722 538 q 639 84 722 182 q 407 -14 557 -14 m 407 115 q 529 179 486 115 q 572 359 572 243 q 529 540 572 477 q 407 604 486 604 q 284 540 328 604 q 241 359 241 477 q 284 179 241 243 q 407 115 328 115 m 338 846 l 454 1104 l 597 1104 l 469 846 l 338 846 z "},"ô":{"ha":814,"x_min":92,"x_max":722,"o":"m 407 -14 q 175 84 258 -14 q 92 359 92 182 q 175 635 92 538 q 407 732 258 732 q 639 635 557 732 q 722 359 722 538 q 639 84 722 182 q 407 -14 557 -14 m 407 115 q 529 179 486 115 q 572 359 572 243 q 529 540 572 477 q 407 604 486 604 q 284 540 328 604 q 241 359 241 477 q 284 179 241 243 q 407 115 328 115 m 186 846 l 349 1104 l 465 1104 l 628 846 l 484 846 l 407 1000 l 330 846 l 186 846 z "},"õ":{"ha":814,"x_min":92,"x_max":722,"o":"m 407 -14 q 175 84 258 -14 q 92 359 92 182 q 175 635 92 538 q 407 732 258 732 q 639 635 557 732 q 722 359 722 538 q 639 84 722 182 q 407 -14 557 -14 m 407 115 q 529 179 486 115 q 572 359 572 243 q 529 540 572 477 q 407 604 486 604 q 284 540 328 604 q 241 359 241 477 q 284 179 241 243 q 407 115 328 115 m 170 852 l 170 879 q 312 1048 170 1048 q 363 1040 339 1048 q 412 1019 387 1031 q 470 991 446 1002 q 511 981 494 981 q 548 1024 548 981 l 548 1085 l 665 1085 l 665 1031 q 537 868 665 868 q 490 876 518 868 q 427 902 463 884 q 382 925 404 913 q 338 936 359 936 q 288 886 288 936 l 288 852 l 170 852 z "},"ö":{"ha":814,"x_min":92,"x_max":722,"o":"m 407 -14 q 175 84 258 -14 q 92 359 92 182 q 175 635 92 538 q 407 732 258 732 q 639 635 557 732 q 722 359 722 538 q 639 84 722 182 q 407 -14 557 -14 m 407 115 q 529 179 486 115 q 572 359 572 243 q 529 540 572 477 q 407 604 486 604 q 284 540 328 604 q 241 359 241 477 q 284 179 241 243 q 407 115 328 115 m 266 840 q 202 866 229 840 q 175 930 175 893 q 202 995 175 968 q 266 1021 229 1021 q 330 995 304 1021 q 357 930 357 968 q 330 866 357 893 q 266 840 304 840 m 551 840 q 487 866 513 840 q 460 930 460 893 q 487 995 460 968 q 551 1021 513 1021 q 615 995 589 1021 q 642 930 642 968 q 615 866 642 893 q 551 840 589 840 z "},"÷":{"ha":814,"x_min":68,"x_max":746,"o":"m 68 418 l 68 544 l 746 544 l 746 418 l 68 418 m 407 102 q 339 130 368 102 q 311 197 311 158 q 339 265 311 237 q 407 293 368 293 q 475 265 447 293 q 503 197 503 237 q 475 130 503 158 q 407 102 447 102 m 407 667 q 339 695 368 667 q 311 763 311 724 q 339 830 311 802 q 407 858 368 858 q 475 830 447 858 q 503 763 503 802 q 474 695 503 724 q 407 667 446 667 z "},"ø":{"ha":814,"x_min":92,"x_max":722,"o":"m 204 -91 l 133 -40 l 192 66 q 92 359 92 163 q 175 635 92 538 q 407 732 258 732 q 547 705 486 732 l 608 812 l 686 768 l 621 654 q 722 359 722 556 q 639 84 722 182 q 407 -14 557 -14 q 264 16 326 -14 l 204 -91 m 407 115 q 529 179 486 115 q 572 359 572 243 q 544 515 572 454 l 330 135 q 407 115 363 115 m 269 205 l 481 585 q 407 604 449 604 q 284 540 328 604 q 241 359 241 477 q 269 205 241 266 z "},"ù":{"ha":814,"x_min":99,"x_max":779,"o":"m 336 -14 q 161 54 223 -14 q 99 244 99 121 l 99 719 l 243 719 l 243 244 q 278 149 243 182 q 377 115 313 115 q 496 165 456 115 q 536 332 536 215 l 536 719 l 680 719 l 680 130 l 779 115 l 779 0 l 548 -7 l 538 138 l 525 138 q 458 26 508 65 q 336 -14 409 -14 m 342 846 l 213 1104 l 357 1104 l 472 846 l 342 846 z "},"ú":{"ha":814,"x_min":99,"x_max":779,"o":"m 336 -14 q 161 54 223 -14 q 99 244 99 121 l 99 719 l 243 719 l 243 244 q 278 149 243 182 q 377 115 313 115 q 496 165 456 115 q 536 332 536 215 l 536 719 l 680 719 l 680 130 l 779 115 l 779 0 l 548 -7 l 538 138 l 525 138 q 458 26 508 65 q 336 -14 409 -14 m 325 846 l 440 1104 l 584 1104 l 455 846 l 325 846 z "},"û":{"ha":814,"x_min":99,"x_max":779,"o":"m 336 -14 q 161 54 223 -14 q 99 244 99 121 l 99 719 l 243 719 l 243 244 q 278 149 243 182 q 377 115 313 115 q 496 165 456 115 q 536 332 536 215 l 536 719 l 680 719 l 680 130 l 779 115 l 779 0 l 548 -7 l 538 138 l 525 138 q 458 26 508 65 q 336 -14 409 -14 m 172 846 l 335 1104 l 452 1104 l 614 846 l 471 846 l 393 1000 l 316 846 l 172 846 z "},"ü":{"ha":814,"x_min":99,"x_max":779,"o":"m 336 -14 q 161 54 223 -14 q 99 244 99 121 l 99 719 l 243 719 l 243 244 q 278 149 243 182 q 377 115 313 115 q 496 165 456 115 q 536 332 536 215 l 536 719 l 680 719 l 680 130 l 779 115 l 779 0 l 548 -7 l 538 138 l 525 138 q 458 26 508 65 q 336 -14 409 -14 m 252 840 q 188 866 215 840 q 161 930 161 893 q 188 995 161 968 q 252 1021 215 1021 q 317 995 290 1021 q 343 930 343 968 q 317 866 343 893 q 252 840 290 840 m 537 840 q 473 866 500 840 q 446 930 446 893 q 473 995 446 968 q 537 1021 500 1021 q 602 995 575 1021 q 628 930 628 968 q 602 866 628 893 q 537 840 575 840 z "},"ý":{"ha":814,"x_min":37,"x_max":756,"o":"m 51 -326 l 44 -197 l 157 -183 q 299 -131 243 -173 q 393 0 355 -89 l 323 0 l 37 719 l 186 719 l 421 109 l 431 109 l 607 719 l 756 719 l 549 64 q 457 -144 508 -65 q 338 -262 407 -222 q 173 -312 269 -301 l 51 -326 m 349 846 l 464 1104 l 608 1104 l 479 846 l 349 846 z "},"þ":{"ha":814,"x_min":114,"x_max":749,"o":"m 114 -312 l 114 1017 l 258 1017 l 258 589 l 271 589 q 331 694 280 656 q 462 732 381 732 q 676 636 604 732 q 749 353 749 540 q 676 79 749 172 q 462 -14 604 -14 q 329 24 379 -14 q 271 130 278 62 l 258 130 l 258 -312 l 114 -312 m 258 335 q 430 109 258 109 q 606 353 606 109 q 430 610 606 610 q 258 384 258 610 l 258 335 z "},"ÿ":{"ha":814,"x_min":37,"x_max":756,"o":"m 51 -326 l 44 -197 l 157 -183 q 299 -131 243 -173 q 393 0 355 -89 l 323 0 l 37 719 l 186 719 l 421 109 l 431 109 l 607 719 l 756 719 l 549 64 q 457 -144 508 -65 q 338 -262 407 -222 q 173 -312 269 -301 l 51 -326 m 276 840 q 212 866 239 840 q 185 930 185 893 q 212 995 185 968 q 276 1021 239 1021 q 340 995 314 1021 q 367 930 367 968 q 340 866 367 893 q 276 840 314 840 m 561 840 q 497 866 524 840 q 470 930 470 893 q 497 995 470 968 q 561 1021 524 1021 q 625 995 599 1021 q 652 930 652 968 q 625 866 652 893 q 561 840 599 840 z "},"Ā":{"ha":814,"x_min":31,"x_max":783,"o":"m 31 0 l 309 963 l 505 963 l 783 0 l 641 0 l 578 235 l 236 235 l 173 0 l 31 0 m 271 363 l 543 363 l 413 846 l 401 846 l 271 363 m 144 1072 l 144 1199 l 669 1199 l 669 1072 l 144 1072 z "},"ā":{"ha":814,"x_min":65,"x_max":785,"o":"m 555 -7 l 548 152 l 534 152 q 464 28 526 69 q 301 -14 401 -14 q 127 41 189 -14 q 65 194 65 95 q 150 369 65 308 q 391 430 235 430 q 526 418 468 430 l 526 452 q 476 557 526 524 q 326 593 425 591 l 153 598 l 167 726 l 312 724 q 577 647 490 721 q 663 430 663 572 l 663 130 l 785 115 l 785 0 l 555 -7 m 526 308 q 457 314 492 313 q 388 315 423 315 q 201 201 201 315 q 233 127 201 153 q 324 102 265 102 q 436 125 391 102 q 504 184 481 148 q 526 258 526 220 l 526 308 m 102 846 l 102 974 l 685 974 l 685 846 l 102 846 z "},"Ă":{"ha":814,"x_min":31,"x_max":783,"o":"m 31 0 l 309 963 l 505 963 l 783 0 l 641 0 l 578 235 l 236 235 l 173 0 l 31 0 m 271 363 l 543 363 l 413 846 l 401 846 l 271 363 m 407 1065 q 220 1116 286 1065 q 153 1261 153 1168 l 272 1261 q 308 1184 272 1212 q 407 1157 343 1157 q 507 1184 471 1157 q 542 1261 542 1212 l 661 1261 q 594 1116 661 1168 q 407 1065 528 1065 z "},"ă":{"ha":814,"x_min":65,"x_max":785,"o":"m 555 -7 l 548 152 l 534 152 q 464 28 526 69 q 301 -14 401 -14 q 127 41 189 -14 q 65 194 65 95 q 150 369 65 308 q 391 430 235 430 q 526 418 468 430 l 526 452 q 476 557 526 524 q 326 593 425 591 l 153 598 l 167 726 l 312 724 q 577 647 490 721 q 663 430 663 572 l 663 130 l 785 115 l 785 0 l 555 -7 m 526 308 q 457 314 492 313 q 388 315 423 315 q 201 201 201 315 q 233 127 201 153 q 324 102 265 102 q 436 125 391 102 q 504 184 481 148 q 526 258 526 220 l 526 308 m 393 840 q 219 897 281 840 q 157 1058 157 954 l 157 1087 l 275 1087 l 275 1058 q 306 965 275 998 q 393 932 336 932 q 481 965 450 932 q 511 1058 511 998 l 511 1087 l 630 1087 l 630 1058 q 568 897 630 954 q 393 840 507 840 z "},"Ą":{"ha":814,"x_min":31,"x_max":783,"o":"m 690 -288 q 570 -250 612 -288 q 528 -144 528 -212 q 557 -51 528 -89 q 641 0 587 -14 l 578 235 l 236 235 l 173 0 l 31 0 l 309 963 l 505 963 l 783 0 l 781 0 q 669 -28 709 0 q 629 -107 629 -56 q 708 -174 629 -174 q 734 -172 720 -174 q 764 -169 749 -171 l 751 -284 q 720 -287 736 -286 q 690 -288 704 -288 m 271 363 l 543 363 l 413 846 l 401 846 l 271 363 z "},"ą":{"ha":814,"x_min":65,"x_max":785,"o":"m 692 -288 q 571 -250 614 -288 q 529 -144 529 -212 q 549 -66 529 -98 q 606 -24 569 -35 l 606 -5 l 555 -7 l 548 152 l 534 152 q 464 28 526 69 q 301 -14 401 -14 q 127 41 189 -14 q 65 194 65 95 q 150 369 65 308 q 391 430 235 430 q 526 418 468 430 l 526 452 q 476 557 526 524 q 326 593 425 591 l 153 598 l 167 726 l 312 724 q 577 647 490 721 q 663 430 663 572 l 663 130 l 785 115 l 785 0 l 762 -1 q 665 -34 699 -5 q 631 -114 631 -64 q 709 -174 631 -174 q 765 -166 733 -174 l 753 -281 q 692 -288 722 -288 m 526 308 q 457 314 492 313 q 388 315 423 315 q 201 201 201 315 q 233 127 201 153 q 324 102 265 102 q 436 125 391 102 q 504 184 481 148 q 526 258 526 220 l 526 308 z "},"Ć":{"ha":814,"x_min":58,"x_max":772,"o":"m 507 -14 q 58 483 58 -14 q 172 847 58 718 q 491 977 285 977 q 665 945 591 977 q 772 855 739 913 l 672 755 q 594 827 642 802 q 492 852 547 852 q 282 758 361 852 q 203 490 203 663 q 530 111 203 111 q 724 152 629 111 l 755 33 q 507 -14 637 -14 m 382 1072 l 532 1241 l 723 1241 l 540 1072 l 382 1072 z "},"ć":{"ha":814,"x_min":92,"x_max":744,"o":"m 476 -14 q 192 83 292 -14 q 92 361 92 180 q 187 635 92 537 q 457 732 281 732 q 637 693 562 732 q 744 583 712 654 l 633 500 q 555 576 603 549 q 452 604 508 604 q 294 542 350 604 q 237 368 237 481 q 303 180 237 245 q 492 115 370 115 q 593 120 543 115 q 690 133 643 125 l 707 7 q 592 -9 651 -5 q 476 -14 532 -14 m 372 846 l 488 1104 l 631 1104 l 503 846 l 372 846 z "},"Ĉ":{"ha":814,"x_min":58,"x_max":772,"o":"m 507 -14 q 58 483 58 -14 q 172 847 58 718 q 491 977 285 977 q 665 945 591 977 q 772 855 739 913 l 672 755 q 594 827 642 802 q 492 852 547 852 q 282 758 361 852 q 203 490 203 663 q 530 111 203 111 q 724 152 629 111 l 755 33 q 507 -14 637 -14 m 240 1072 l 416 1248 l 533 1248 l 709 1072 l 559 1072 l 475 1169 l 391 1072 l 240 1072 z "},"ĉ":{"ha":814,"x_min":92,"x_max":744,"o":"m 476 -14 q 192 83 292 -14 q 92 361 92 180 q 187 635 92 537 q 457 732 281 732 q 637 693 562 732 q 744 583 712 654 l 633 500 q 555 576 603 549 q 452 604 508 604 q 294 542 350 604 q 237 368 237 481 q 303 180 237 245 q 492 115 370 115 q 593 120 543 115 q 690 133 643 125 l 707 7 q 592 -9 651 -5 q 476 -14 532 -14 m 220 846 l 382 1104 l 499 1104 l 662 846 l 518 846 l 441 1000 l 363 846 l 220 846 z "},"Ċ":{"ha":814,"x_min":58,"x_max":772,"o":"m 507 -14 q 58 483 58 -14 q 172 847 58 718 q 491 977 285 977 q 665 945 591 977 q 772 855 739 913 l 672 755 q 594 827 642 802 q 492 852 547 852 q 282 758 361 852 q 203 490 203 663 q 530 111 203 111 q 724 152 629 111 l 755 33 q 507 -14 637 -14 m 471 1072 q 407 1098 434 1072 q 380 1162 380 1125 q 407 1227 380 1200 q 471 1253 434 1253 q 536 1227 509 1253 q 562 1162 562 1200 q 536 1098 562 1125 q 471 1072 509 1072 z "},"ċ":{"ha":814,"x_min":92,"x_max":744,"o":"m 476 -14 q 192 83 292 -14 q 92 361 92 180 q 187 635 92 537 q 457 732 281 732 q 637 693 562 732 q 744 583 712 654 l 633 500 q 555 576 603 549 q 452 604 508 604 q 294 542 350 604 q 237 368 237 481 q 303 180 237 245 q 492 115 370 115 q 593 120 543 115 q 690 133 643 125 l 707 7 q 592 -9 651 -5 q 476 -14 532 -14 m 439 840 q 375 866 402 840 q 349 930 349 893 q 375 995 349 968 q 439 1021 402 1021 q 504 995 477 1021 q 530 930 530 968 q 504 866 530 893 q 439 840 477 840 z "},"Č":{"ha":814,"x_min":58,"x_max":772,"o":"m 507 -14 q 58 483 58 -14 q 172 847 58 718 q 491 977 285 977 q 665 945 591 977 q 772 855 739 913 l 672 755 q 594 827 642 802 q 492 852 547 852 q 282 758 361 852 q 203 490 203 663 q 530 111 203 111 q 724 152 629 111 l 755 33 q 507 -14 637 -14 m 413 1072 l 237 1248 l 387 1248 l 471 1150 l 555 1248 l 706 1248 l 530 1072 l 413 1072 z "},"č":{"ha":814,"x_min":92,"x_max":744,"o":"m 476 -14 q 192 83 292 -14 q 92 361 92 180 q 187 635 92 537 q 457 732 281 732 q 637 693 562 732 q 744 583 712 654 l 633 500 q 555 576 603 549 q 452 604 508 604 q 294 542 350 604 q 237 368 237 481 q 303 180 237 245 q 492 115 370 115 q 593 120 543 115 q 690 133 643 125 l 707 7 q 592 -9 651 -5 q 476 -14 532 -14 m 382 821 l 220 1078 l 363 1078 l 441 925 l 518 1078 l 662 1078 l 499 821 l 382 821 z "},"Ď":{"ha":814,"x_min":95,"x_max":769,"o":"m 95 0 l 95 963 l 328 963 q 769 468 769 963 q 328 0 769 0 l 95 0 m 236 129 l 328 129 q 627 468 627 129 q 328 834 627 834 l 236 834 l 236 129 m 301 1072 l 125 1248 l 275 1248 l 359 1150 l 444 1248 l 594 1248 l 418 1072 l 301 1072 z "},"ď":{"ha":814,"x_min":65,"x_max":939,"o":"m 352 -14 q 138 79 211 -14 q 65 353 65 172 q 138 636 65 540 q 352 732 211 732 q 483 694 433 732 q 543 589 534 656 l 556 589 l 556 1017 l 700 1017 l 700 0 l 571 -7 l 557 130 l 543 130 q 485 24 536 62 q 352 -14 435 -14 m 556 335 l 556 384 q 384 610 556 610 q 208 353 208 610 q 384 109 208 109 q 556 335 556 109 m 761 806 l 795 1063 l 939 1063 l 878 806 l 761 806 z "},"Đ":{"ha":814,"x_min":8,"x_max":769,"o":"m 8 415 l 8 544 l 95 544 l 95 963 l 328 963 q 769 468 769 963 q 328 0 769 0 l 95 0 l 95 415 l 8 415 m 236 129 l 328 129 q 627 468 627 129 q 328 834 627 834 l 236 834 l 236 544 l 441 544 l 441 415 l 236 415 l 236 129 z "},"đ":{"ha":814,"x_min":65,"x_max":772,"o":"m 313 826 l 313 944 l 556 944 l 556 1017 l 700 1017 l 700 944 l 772 944 l 772 826 l 700 826 l 700 0 l 571 -7 l 557 130 l 543 130 q 485 24 536 62 q 352 -14 435 -14 q 138 79 211 -14 q 65 353 65 172 q 138 636 65 540 q 352 732 211 732 q 483 694 433 732 q 543 589 534 656 l 556 589 l 556 826 l 313 826 m 556 335 l 556 384 q 384 610 556 610 q 208 353 208 610 q 384 109 208 109 q 556 335 556 109 z "},"Ē":{"ha":814,"x_min":109,"x_max":746,"o":"m 109 0 l 109 963 l 746 963 l 746 834 l 250 834 l 250 547 l 624 547 l 624 418 l 250 418 l 250 129 l 746 129 l 746 0 l 109 0 m 165 1072 l 165 1199 l 690 1199 l 690 1072 l 165 1072 z "},"ē":{"ha":814,"x_min":85,"x_max":715,"o":"m 469 -14 q 185 83 286 -14 q 85 361 85 180 q 170 635 85 537 q 410 732 255 732 q 635 644 555 732 q 715 388 715 556 q 711 296 715 338 l 225 296 q 311 159 244 205 q 486 113 377 113 q 574 118 530 113 q 662 132 617 123 l 680 5 q 563 -10 616 -7 q 469 -14 510 -14 m 220 406 l 585 406 q 538 554 585 503 q 411 606 492 606 q 278 554 328 606 q 220 406 229 502 m 115 846 l 115 974 l 699 974 l 699 846 l 115 846 z "},"Ĕ":{"ha":814,"x_min":109,"x_max":746,"o":"m 109 0 l 109 963 l 746 963 l 746 834 l 250 834 l 250 547 l 624 547 l 624 418 l 250 418 l 250 129 l 746 129 l 746 0 l 109 0 m 427 1065 q 240 1116 307 1065 q 174 1261 174 1168 l 292 1261 q 328 1184 292 1212 q 427 1157 363 1157 q 527 1184 492 1157 q 562 1261 562 1212 l 681 1261 q 614 1116 681 1168 q 427 1065 548 1065 z "},"ĕ":{"ha":814,"x_min":85,"x_max":715,"o":"m 469 -14 q 185 83 286 -14 q 85 361 85 180 q 170 635 85 537 q 410 732 255 732 q 635 644 555 732 q 715 388 715 556 q 711 296 715 338 l 225 296 q 311 159 244 205 q 486 113 377 113 q 574 118 530 113 q 662 132 617 123 l 680 5 q 563 -10 616 -7 q 469 -14 510 -14 m 220 406 l 585 406 q 538 554 585 503 q 411 606 492 606 q 278 554 328 606 q 220 406 229 502 m 407 840 q 232 897 294 840 q 170 1058 170 954 l 170 1087 l 289 1087 l 289 1058 q 319 965 289 998 q 407 932 350 932 q 494 965 464 932 q 525 1058 525 998 l 525 1087 l 644 1087 l 644 1058 q 582 897 644 954 q 407 840 520 840 z "},"Ė":{"ha":814,"x_min":109,"x_max":746,"o":"m 109 0 l 109 963 l 746 963 l 746 834 l 250 834 l 250 547 l 624 547 l 624 418 l 250 418 l 250 129 l 746 129 l 746 0 l 109 0 m 427 1072 q 363 1098 390 1072 q 336 1162 336 1125 q 363 1227 336 1200 q 427 1253 390 1253 q 492 1227 465 1253 q 518 1162 518 1200 q 492 1098 518 1125 q 427 1072 465 1072 z "},"ė":{"ha":814,"x_min":85,"x_max":715,"o":"m 469 -14 q 185 83 286 -14 q 85 361 85 180 q 170 635 85 537 q 410 732 255 732 q 635 644 555 732 q 715 388 715 556 q 711 296 715 338 l 225 296 q 311 159 244 205 q 486 113 377 113 q 574 118 530 113 q 662 132 617 123 l 680 5 q 563 -10 616 -7 q 469 -14 510 -14 m 220 406 l 585 406 q 538 554 585 503 q 411 606 492 606 q 278 554 328 606 q 220 406 229 502 m 406 840 q 341 866 368 840 q 315 930 315 893 q 341 995 315 968 q 406 1021 368 1021 q 470 995 444 1021 q 496 930 496 968 q 470 866 496 893 q 406 840 444 840 z "},"Ę":{"ha":814,"x_min":109,"x_max":746,"o":"m 655 -288 q 535 -250 577 -288 q 492 -144 492 -212 q 512 -60 492 -94 q 570 -14 532 -26 l 570 0 l 109 0 l 109 963 l 746 963 l 746 834 l 250 834 l 250 547 l 624 547 l 624 418 l 250 418 l 250 129 l 746 129 l 746 0 q 634 -30 674 0 q 594 -114 594 -60 q 673 -174 594 -174 q 728 -166 696 -174 l 716 -281 q 655 -288 685 -288 z "},"ę":{"ha":814,"x_min":85,"x_max":715,"o":"m 589 -288 q 468 -253 511 -288 q 426 -157 426 -219 q 503 -27 426 -53 l 503 -13 q 469 -14 487 -14 q 185 83 286 -14 q 85 361 85 180 q 170 635 85 537 q 410 732 255 732 q 635 644 555 732 q 715 388 715 556 q 711 296 715 338 l 225 296 q 311 159 244 205 q 486 113 377 113 q 574 118 530 113 q 662 132 617 123 l 680 5 q 610 -16 645 -3 q 551 -53 575 -29 q 528 -114 528 -76 q 543 -153 528 -132 q 606 -174 559 -174 q 662 -166 631 -174 l 650 -281 q 589 -288 615 -288 m 220 406 l 585 406 q 538 554 585 503 q 411 606 492 606 q 278 554 328 606 q 220 406 229 502 z "},"Ě":{"ha":814,"x_min":109,"x_max":746,"o":"m 109 0 l 109 963 l 746 963 l 746 834 l 250 834 l 250 547 l 624 547 l 624 418 l 250 418 l 250 129 l 746 129 l 746 0 l 109 0 m 369 1072 l 193 1248 l 343 1248 l 427 1150 l 511 1248 l 662 1248 l 486 1072 l 369 1072 z "},"ě":{"ha":814,"x_min":85,"x_max":715,"o":"m 469 -14 q 185 83 286 -14 q 85 361 85 180 q 170 635 85 537 q 410 732 255 732 q 635 644 555 732 q 715 388 715 556 q 711 296 715 338 l 225 296 q 311 159 244 205 q 486 113 377 113 q 574 118 530 113 q 662 132 617 123 l 680 5 q 563 -10 616 -7 q 469 -14 510 -14 m 220 406 l 585 406 q 538 554 585 503 q 411 606 492 606 q 278 554 328 606 q 220 406 229 502 m 349 821 l 186 1078 l 330 1078 l 407 925 l 484 1078 l 628 1078 l 465 821 l 349 821 z "},"Ĝ":{"ha":814,"x_min":45,"x_max":760,"o":"m 476 -14 q 45 483 45 -14 q 157 847 45 718 q 471 977 269 977 q 648 945 572 977 q 760 856 724 913 l 659 755 q 580 827 627 802 q 479 852 533 852 q 266 757 342 852 q 190 490 190 663 q 492 111 190 111 q 552 115 524 111 q 605 123 581 118 l 605 353 l 414 353 l 414 481 l 739 481 l 739 27 q 639 2 711 18 q 476 -14 568 -14 m 227 1072 l 403 1248 l 519 1248 l 696 1072 l 545 1072 l 461 1169 l 377 1072 l 227 1072 z "},"ĝ":{"ha":814,"x_min":65,"x_max":700,"o":"m 123 -324 l 117 -193 l 347 -186 q 506 -125 456 -182 q 556 42 555 -68 l 556 130 l 543 130 q 485 24 536 62 q 352 -14 435 -14 q 138 79 211 -14 q 65 353 65 172 q 138 636 65 540 q 352 732 211 732 q 488 694 436 732 q 549 589 541 656 l 558 589 l 570 719 l 700 719 l 700 64 q 612 -220 700 -128 q 334 -317 525 -311 l 123 -324 m 556 384 q 384 610 556 610 q 208 353 208 610 q 384 109 208 109 q 556 335 556 109 l 556 384 m 159 846 l 321 1104 l 438 1104 l 601 846 l 457 846 l 380 1000 l 302 846 l 159 846 z "},"Ğ":{"ha":814,"x_min":45,"x_max":760,"o":"m 476 -14 q 45 483 45 -14 q 157 847 45 718 q 471 977 269 977 q 648 945 572 977 q 760 856 724 913 l 659 755 q 580 827 627 802 q 479 852 533 852 q 266 757 342 852 q 190 490 190 663 q 492 111 190 111 q 552 115 524 111 q 605 123 581 118 l 605 353 l 414 353 l 414 481 l 739 481 l 739 27 q 639 2 711 18 q 476 -14 568 -14 m 458 1065 q 271 1116 337 1065 q 204 1261 204 1168 l 323 1261 q 358 1184 323 1212 q 458 1157 394 1157 q 557 1184 522 1157 q 593 1261 593 1212 l 711 1261 q 645 1116 711 1168 q 458 1065 578 1065 z "},"ğ":{"ha":814,"x_min":65,"x_max":700,"o":"m 123 -324 l 117 -193 l 347 -186 q 506 -125 456 -182 q 556 42 555 -68 l 556 130 l 543 130 q 485 24 536 62 q 352 -14 435 -14 q 138 79 211 -14 q 65 353 65 172 q 138 636 65 540 q 352 732 211 732 q 488 694 436 732 q 549 589 541 656 l 558 589 l 570 719 l 700 719 l 700 64 q 612 -220 700 -128 q 334 -317 525 -311 l 123 -324 m 556 384 q 384 610 556 610 q 208 353 208 610 q 384 109 208 109 q 556 335 556 109 l 556 384 m 380 840 q 205 897 267 840 q 143 1058 143 954 l 143 1087 l 262 1087 l 262 1058 q 292 965 262 998 q 380 932 323 932 q 467 965 437 932 q 498 1058 498 998 l 498 1087 l 616 1087 l 616 1058 q 555 897 616 954 q 380 840 493 840 z "},"Ġ":{"ha":814,"x_min":45,"x_max":760,"o":"m 476 -14 q 45 483 45 -14 q 157 847 45 718 q 471 977 269 977 q 648 945 572 977 q 760 856 724 913 l 659 755 q 580 827 627 802 q 479 852 533 852 q 266 757 342 852 q 190 490 190 663 q 492 111 190 111 q 552 115 524 111 q 605 123 581 118 l 605 353 l 414 353 l 414 481 l 739 481 l 739 27 q 639 2 711 18 q 476 -14 568 -14 m 458 1072 q 394 1098 420 1072 q 367 1162 367 1125 q 394 1227 367 1200 q 458 1253 420 1253 q 522 1227 496 1253 q 549 1162 549 1200 q 522 1098 549 1125 q 458 1072 496 1072 z "},"ġ":{"ha":814,"x_min":65,"x_max":700,"o":"m 123 -324 l 117 -193 l 347 -186 q 506 -125 456 -182 q 556 42 555 -68 l 556 130 l 543 130 q 485 24 536 62 q 352 -14 435 -14 q 138 79 211 -14 q 65 353 65 172 q 138 636 65 540 q 352 732 211 732 q 488 694 436 732 q 549 589 541 656 l 558 589 l 570 719 l 700 719 l 700 64 q 612 -220 700 -128 q 334 -317 525 -311 l 123 -324 m 556 384 q 384 610 556 610 q 208 353 208 610 q 384 109 208 109 q 556 335 556 109 l 556 384 m 378 840 q 314 866 341 840 q 288 930 288 893 q 314 995 288 968 q 378 1021 341 1021 q 443 995 416 1021 q 469 930 469 968 q 443 866 469 893 q 378 840 416 840 z "},"Ģ":{"ha":814,"x_min":45,"x_max":760,"o":"m 476 -14 q 45 483 45 -14 q 157 847 45 718 q 471 977 269 977 q 648 945 572 977 q 760 856 724 913 l 659 755 q 580 827 627 802 q 479 852 533 852 q 266 757 342 852 q 190 490 190 663 q 492 111 190 111 q 552 115 524 111 q 605 123 581 118 l 605 353 l 414 353 l 414 481 l 739 481 l 739 27 q 639 2 711 18 q 476 -14 568 -14 z "},"ģ":{"ha":814,"x_min":65,"x_max":700,"o":"m 123 -324 l 117 -193 l 347 -186 q 506 -125 456 -182 q 556 42 555 -68 l 556 130 l 543 130 q 485 24 536 62 q 352 -14 435 -14 q 138 79 211 -14 q 65 353 65 172 q 138 636 65 540 q 352 732 211 732 q 488 694 436 732 q 549 589 541 656 l 558 589 l 570 719 l 700 719 l 700 64 q 612 -220 700 -128 q 334 -317 525 -311 l 123 -324 m 556 384 q 384 610 556 610 q 208 353 208 610 q 384 109 208 109 q 556 335 556 109 l 556 384 m 385 1122 l 466 1055 q 372 942 372 981 q 422 916 372 916 l 466 916 l 466 814 l 415 814 q 262 928 262 814 q 385 1122 262 1004 z "},"Ĥ":{"ha":814,"x_min":95,"x_max":719,"o":"m 578 0 l 578 415 l 236 415 l 236 0 l 95 0 l 95 963 l 236 963 l 236 544 l 578 544 l 578 963 l 719 963 l 719 0 l 578 0 m 176 1072 l 352 1248 l 469 1248 l 645 1072 l 494 1072 l 410 1169 l 326 1072 l 176 1072 z "},"ĥ":{"ha":814,"x_min":-45,"x_max":700,"o":"m 556 0 l 556 468 q 522 573 556 536 q 427 610 488 610 q 258 404 258 610 l 258 0 l 114 0 l 114 1017 l 258 1017 l 258 589 l 271 589 q 461 732 283 732 q 637 663 575 732 q 700 468 700 594 l 700 0 l 556 0 m -45 1126 l 131 1302 l 248 1302 l 424 1126 l 273 1126 l 189 1223 l 105 1126 l -45 1126 z "},"Ħ":{"ha":814,"x_min":28,"x_max":785,"o":"m 28 680 l 28 808 l 95 808 l 95 963 l 236 963 l 236 808 l 578 808 l 578 963 l 719 963 l 719 808 l 785 808 l 785 680 l 719 680 l 719 0 l 578 0 l 578 415 l 236 415 l 236 0 l 95 0 l 95 680 l 28 680 m 236 544 l 578 544 l 578 680 l 236 680 l 236 544 z "},"ħ":{"ha":814,"x_min":15,"x_max":700,"o":"m 15 826 l 15 944 l 114 944 l 114 1017 l 258 1017 l 258 944 l 500 944 l 500 826 l 258 826 l 258 589 l 271 589 q 461 732 283 732 q 637 663 575 732 q 700 468 700 594 l 700 0 l 556 0 l 556 468 q 522 573 556 536 q 427 610 488 610 q 258 404 258 610 l 258 0 l 114 0 l 114 826 l 15 826 z "},"Ĩ":{"ha":814,"x_min":114,"x_max":700,"o":"m 114 0 l 114 129 l 336 129 l 336 834 l 114 834 l 114 963 l 700 963 l 700 834 l 477 834 l 477 129 l 700 129 l 700 0 l 114 0 m 153 1062 l 153 1096 q 295 1265 153 1265 q 353 1257 323 1265 q 422 1232 383 1249 q 484 1207 463 1216 q 522 1198 505 1198 q 558 1241 558 1198 l 558 1282 l 675 1282 l 675 1248 q 547 1085 675 1085 q 492 1095 524 1085 q 416 1122 460 1104 q 363 1144 387 1135 q 321 1153 338 1153 q 271 1103 271 1153 l 271 1062 l 153 1062 z "},"ĩ":{"ha":814,"x_min":109,"x_max":747,"o":"m 109 0 l 109 126 l 382 126 l 382 593 l 149 593 l 149 719 l 526 719 l 526 126 l 747 126 l 747 0 l 109 0 m 203 852 l 203 879 q 346 1048 203 1048 q 397 1040 373 1048 q 446 1019 420 1031 q 504 991 480 1002 q 545 981 528 981 q 582 1024 582 981 l 582 1085 l 699 1085 l 699 1031 q 571 868 699 868 q 524 876 552 868 q 460 902 496 884 q 416 925 438 913 q 372 936 393 936 q 321 886 321 936 l 321 852 l 203 852 z "},"Ī":{"ha":814,"x_min":114,"x_max":700,"o":"m 114 0 l 114 129 l 336 129 l 336 834 l 114 834 l 114 963 l 700 963 l 700 834 l 477 834 l 477 129 l 700 129 l 700 0 l 114 0 m 144 1072 l 144 1199 l 669 1199 l 669 1072 l 144 1072 z "},"ī":{"ha":814,"x_min":109,"x_max":747,"o":"m 109 0 l 109 126 l 382 126 l 382 593 l 149 593 l 149 719 l 526 719 l 526 126 l 747 126 l 747 0 l 109 0 m 149 846 l 149 974 l 732 974 l 732 846 l 149 846 z "},"Ĭ":{"ha":814,"x_min":114,"x_max":700,"o":"m 114 0 l 114 129 l 336 129 l 336 834 l 114 834 l 114 963 l 700 963 l 700 834 l 477 834 l 477 129 l 700 129 l 700 0 l 114 0 m 407 1065 q 220 1116 286 1065 q 153 1261 153 1168 l 272 1261 q 308 1184 272 1212 q 407 1157 343 1157 q 507 1184 471 1157 q 542 1261 542 1212 l 661 1261 q 594 1116 661 1168 q 407 1065 528 1065 z "},"ĭ":{"ha":814,"x_min":109,"x_max":747,"o":"m 109 0 l 109 126 l 382 126 l 382 593 l 149 593 l 149 719 l 526 719 l 526 126 l 747 126 l 747 0 l 109 0 m 441 840 q 266 897 328 840 q 204 1058 204 954 l 204 1087 l 323 1087 l 323 1058 q 353 965 323 998 q 441 932 384 932 q 528 965 498 932 q 559 1058 559 998 l 559 1087 l 677 1087 l 677 1058 q 616 897 677 954 q 441 840 554 840 z "},"Į":{"ha":814,"x_min":114,"x_max":700,"o":"m 431 -288 q 311 -250 353 -288 q 269 -144 269 -212 q 289 -60 269 -94 q 346 -14 309 -26 l 346 0 l 114 0 l 114 129 l 336 129 l 336 834 l 114 834 l 114 963 l 700 963 l 700 834 l 477 834 l 477 129 l 700 129 l 700 0 l 522 0 q 410 -30 450 0 q 370 -114 370 -60 q 449 -174 370 -174 q 505 -166 473 -174 l 492 -281 q 431 -288 461 -288 z "},"į":{"ha":814,"x_min":109,"x_max":747,"o":"m 454 -288 q 334 -250 376 -288 q 292 -144 292 -212 q 312 -60 292 -94 q 369 -14 332 -26 l 369 0 l 109 0 l 109 126 l 382 126 l 382 593 l 149 593 l 149 719 l 526 719 l 526 126 l 747 126 l 747 0 l 545 0 q 433 -30 473 0 q 393 -114 393 -60 q 472 -174 393 -174 q 528 -166 496 -174 l 515 -281 q 454 -288 484 -288 m 450 833 q 379 862 408 833 q 349 933 349 892 q 379 1004 349 975 q 450 1034 408 1034 q 521 1004 492 1034 q 550 933 550 975 q 521 862 550 892 q 450 833 492 833 z "},"İ":{"ha":814,"x_min":114,"x_max":700,"o":"m 114 0 l 114 129 l 336 129 l 336 834 l 114 834 l 114 963 l 700 963 l 700 834 l 477 834 l 477 129 l 700 129 l 700 0 l 114 0 m 407 1072 q 343 1098 370 1072 q 316 1162 316 1125 q 343 1227 316 1200 q 407 1253 370 1253 q 471 1227 445 1253 q 498 1162 498 1200 q 471 1098 498 1125 q 407 1072 445 1072 z "},"ı":{"ha":814,"x_min":109,"x_max":747,"o":"m 109 0 l 109 126 l 382 126 l 382 593 l 149 593 l 149 719 l 526 719 l 526 126 l 747 126 l 747 0 l 109 0 z "},"Ĳ":{"ha":814,"x_min":37,"x_max":734,"o":"m 430 -14 q 151 241 151 -14 l 292 241 q 433 109 292 109 q 593 296 593 109 l 593 834 l 468 834 l 468 963 l 734 963 l 734 296 q 430 -14 734 -14 m 37 337 l 37 466 l 154 466 l 154 834 l 37 834 l 37 963 l 393 963 l 393 834 l 288 834 l 288 466 l 406 466 l 406 337 l 37 337 z "},"ĳ":{"ha":814,"x_min":136,"x_max":678,"o":"m 171 -326 l 164 -198 l 300 -186 q 458 -122 409 -176 q 507 42 507 -68 l 507 719 l 651 719 l 651 64 q 564 -216 651 -128 q 286 -317 477 -304 l 171 -326 m 165 0 l 165 719 l 309 719 l 309 0 l 165 0 m 236 833 q 165 862 195 833 q 136 933 136 892 q 165 1004 136 975 q 236 1034 195 1034 q 307 1004 278 1034 q 336 933 336 975 q 307 862 336 892 q 236 833 278 833 m 578 833 q 507 862 536 833 q 477 933 477 892 q 507 1004 477 975 q 578 1034 536 1034 q 649 1004 620 1034 q 678 933 678 975 q 649 862 678 892 q 578 833 620 833 z "},"Ĵ":{"ha":814,"x_min":58,"x_max":774,"o":"m 389 -14 q 144 75 231 -14 q 58 323 58 163 l 199 323 q 250 165 199 221 q 393 109 300 109 q 531 164 482 109 q 579 323 579 220 l 579 834 l 332 834 l 332 963 l 720 963 l 720 323 q 633 75 720 163 q 389 -14 545 -14 m 304 1072 l 481 1248 l 597 1248 l 774 1072 l 623 1072 l 539 1169 l 455 1072 l 304 1072 z "},"ĵ":{"ha":814,"x_min":115,"x_max":751,"o":"m 122 -326 l 115 -198 l 251 -186 q 409 -122 360 -176 q 458 42 458 -68 l 458 601 l 179 601 l 179 719 l 602 719 l 602 64 q 515 -216 602 -128 q 237 -317 429 -304 l 122 -326 m 309 846 l 472 1104 l 589 1104 l 751 846 l 608 846 l 530 1000 l 453 846 l 309 846 z "},"Ķ":{"ha":814,"x_min":102,"x_max":788,"o":"m 102 0 l 102 963 l 243 963 l 243 443 q 404 499 336 452 q 515 618 471 546 q 581 780 559 691 q 602 963 602 869 l 742 963 q 692 680 742 814 q 548 452 642 545 l 788 0 l 624 0 l 433 367 q 343 329 391 344 q 243 309 296 315 l 243 0 l 102 0 z "},"ķ":{"ha":814,"x_min":109,"x_max":773,"o":"m 109 0 l 109 1017 l 252 1017 l 252 401 l 292 401 q 439 432 381 401 q 529 533 496 463 q 578 719 562 603 l 727 719 q 562 348 694 454 l 773 0 l 595 0 l 429 284 q 326 273 381 273 l 252 273 l 252 0 l 109 0 z "},"ĸ":{"ha":814,"x_min":109,"x_max":773,"o":"m 109 0 l 109 719 l 252 719 l 252 401 l 292 401 q 439 432 381 401 q 529 533 496 463 q 578 719 562 603 l 727 719 q 562 348 694 454 l 773 0 l 595 0 l 429 284 q 326 273 381 273 l 252 273 l 252 0 l 109 0 z "},"Ĺ":{"ha":814,"x_min":90,"x_max":746,"o":"m 109 0 l 109 963 l 250 963 l 250 129 l 746 129 l 746 0 l 109 0 m 90 1072 l 239 1241 l 431 1241 l 248 1072 l 90 1072 z "},"ĺ":{"ha":814,"x_min":66,"x_max":728,"o":"m 514 -14 q 334 54 389 -14 q 278 271 278 122 l 278 891 l 66 891 l 66 1017 l 422 1017 l 422 278 q 433 185 422 221 q 475 132 444 149 q 568 115 507 115 q 712 141 625 115 l 728 15 q 623 -7 673 0 q 514 -14 572 -14 m 261 1126 l 410 1295 l 602 1295 l 418 1126 l 261 1126 z "},"Ļ":{"ha":814,"x_min":109,"x_max":746,"o":"m 109 0 l 109 963 l 250 963 l 250 129 l 746 129 l 746 0 l 109 0 z "},"ļ":{"ha":814,"x_min":66,"x_max":728,"o":"m 514 -14 q 334 54 389 -14 q 278 271 278 122 l 278 891 l 66 891 l 66 1017 l 422 1017 l 422 278 q 433 185 422 221 q 475 132 444 149 q 568 115 507 115 q 712 141 625 115 l 728 15 q 623 -7 673 0 q 514 -14 572 -14 z "},"Ľ":{"ha":814,"x_min":109,"x_max":746,"o":"m 109 0 l 109 963 l 250 963 l 250 129 l 746 129 l 746 0 l 109 0 m 517 806 l 551 1063 l 694 1063 l 633 806 l 517 806 z "},"ľ":{"ha":814,"x_min":66,"x_max":728,"o":"m 514 -14 q 334 54 389 -14 q 278 271 278 122 l 278 891 l 66 891 l 66 1017 l 422 1017 l 422 278 q 433 185 422 221 q 475 132 444 149 q 568 115 507 115 q 712 141 625 115 l 728 15 q 623 -7 673 0 q 514 -14 572 -14 m 524 806 l 557 1063 l 701 1063 l 640 806 l 524 806 z "},"Ŀ":{"ha":814,"x_min":109,"x_max":746,"o":"m 109 0 l 109 963 l 250 963 l 250 129 l 746 129 l 746 0 l 109 0 m 543 530 q 472 560 501 530 q 442 631 442 589 q 472 702 442 673 q 543 731 501 731 q 614 702 585 731 q 643 631 643 673 q 614 560 643 589 q 543 530 585 530 z "},"ŀ":{"ha":814,"x_min":66,"x_max":728,"o":"m 514 -14 q 334 54 389 -14 q 278 271 278 122 l 278 891 l 66 891 l 66 1017 l 422 1017 l 422 278 q 433 185 422 221 q 475 132 444 149 q 568 115 507 115 q 712 141 625 115 l 728 15 q 623 -7 673 0 q 514 -14 572 -14 m 621 585 q 550 614 580 585 q 521 685 521 644 q 550 756 521 727 q 621 785 580 785 q 692 756 663 785 q 722 685 722 727 q 692 614 722 644 q 621 585 663 585 z "},"Ł":{"ha":814,"x_min":39,"x_max":746,"o":"m 39 309 l 39 434 l 176 505 l 176 963 l 317 963 l 317 579 l 586 719 l 586 593 l 317 454 l 317 129 l 746 129 l 746 0 l 176 0 l 176 380 l 39 309 z "},"ł":{"ha":814,"x_min":66,"x_max":728,"o":"m 87 309 l 87 434 l 278 534 l 278 891 l 66 891 l 66 1017 l 422 1017 l 422 608 l 633 719 l 633 593 l 422 483 l 422 278 q 433 185 422 221 q 475 132 444 149 q 568 115 507 115 q 712 141 625 115 l 728 15 q 623 -7 673 0 q 514 -14 572 -14 q 334 54 389 -14 q 278 271 278 122 l 278 408 l 87 309 z "},"Ń":{"ha":814,"x_min":100,"x_max":713,"o":"m 532 0 l 255 732 l 241 732 l 241 0 l 100 0 l 100 963 l 282 963 l 559 231 l 572 231 l 572 963 l 713 963 l 713 0 l 532 0 m 318 1072 l 467 1241 l 659 1241 l 475 1072 l 318 1072 z "},"ń":{"ha":814,"x_min":114,"x_max":700,"o":"m 556 0 l 556 468 q 522 568 556 533 q 427 604 488 604 q 258 404 258 604 l 258 0 l 114 0 l 114 719 l 244 719 l 256 589 l 271 589 q 461 732 283 732 q 637 663 575 732 q 700 468 700 594 l 700 0 l 556 0 m 332 846 l 447 1104 l 591 1104 l 462 846 l 332 846 z "},"Ņ":{"ha":814,"x_min":100,"x_max":713,"o":"m 532 0 l 255 732 l 241 732 l 241 0 l 100 0 l 100 963 l 282 963 l 559 231 l 572 231 l 572 963 l 713 963 l 713 0 l 532 0 z "},"ņ":{"ha":814,"x_min":114,"x_max":700,"o":"m 556 0 l 556 468 q 522 568 556 533 q 427 604 488 604 q 258 404 258 604 l 258 0 l 114 0 l 114 719 l 244 719 l 256 589 l 271 589 q 461 732 283 732 q 637 663 575 732 q 700 468 700 594 l 700 0 l 556 0 z "},"Ň":{"ha":814,"x_min":100,"x_max":713,"o":"m 532 0 l 255 732 l 241 732 l 241 0 l 100 0 l 100 963 l 282 963 l 559 231 l 572 231 l 572 963 l 713 963 l 713 0 l 532 0 m 349 1072 l 172 1248 l 323 1248 l 407 1150 l 491 1248 l 642 1248 l 465 1072 l 349 1072 z "},"ň":{"ha":814,"x_min":114,"x_max":700,"o":"m 556 0 l 556 468 q 522 568 556 533 q 427 604 488 604 q 258 404 258 604 l 258 0 l 114 0 l 114 719 l 244 719 l 256 589 l 271 589 q 461 732 283 732 q 637 663 575 732 q 700 468 700 594 l 700 0 l 556 0 m 342 821 l 179 1078 l 323 1078 l 400 925 l 477 1078 l 621 1078 l 458 821 l 342 821 z "},"ŉ":{"ha":814,"x_min":11,"x_max":700,"o":"m 556 0 l 556 468 q 522 568 556 533 q 427 604 488 604 q 258 404 258 604 l 258 0 l 114 0 l 114 719 l 244 719 l 256 589 l 271 589 q 461 732 283 732 q 637 663 575 732 q 700 468 700 594 l 700 0 l 556 0 m 115 773 l 13 863 l 54 907 q 95 989 95 950 q 41 1027 95 1027 l 11 1027 l 11 1153 l 62 1153 q 234 989 234 1153 q 153 814 234 904 l 115 773 z "},"Ŋ":{"ha":814,"x_min":100,"x_max":713,"o":"m 402 -326 l 389 -190 l 470 -178 q 547 -142 521 -170 q 572 -58 572 -113 l 572 0 l 532 0 l 255 732 l 241 732 l 241 0 l 100 0 l 100 963 l 282 963 l 559 231 l 572 231 l 572 963 l 713 963 l 713 -65 q 655 -242 713 -176 q 490 -317 597 -308 l 402 -326 z "},"ŋ":{"ha":814,"x_min":114,"x_max":700,"o":"m 315 -326 l 308 -198 l 396 -186 q 518 -122 480 -176 q 556 42 556 -68 l 556 468 q 522 573 556 536 q 427 610 488 610 q 258 404 258 610 l 258 0 l 114 0 l 114 719 l 244 719 l 256 589 l 271 589 q 461 732 283 732 q 637 663 575 732 q 700 468 700 594 l 700 64 q 624 -215 700 -128 q 382 -317 549 -302 l 315 -326 z "},"Ō":{"ha":814,"x_min":52,"x_max":762,"o":"m 407 -14 q 52 475 52 -14 q 407 977 52 977 q 762 475 762 977 q 407 -14 762 -14 m 407 111 q 617 475 617 111 q 407 852 617 852 q 197 475 197 852 q 407 111 197 111 m 144 1072 l 144 1199 l 669 1199 l 669 1072 l 144 1072 z "},"ō":{"ha":814,"x_min":92,"x_max":722,"o":"m 407 -14 q 175 84 258 -14 q 92 359 92 182 q 175 635 92 538 q 407 732 258 732 q 639 635 557 732 q 722 359 722 538 q 639 84 722 182 q 407 -14 557 -14 m 407 115 q 529 179 486 115 q 572 359 572 243 q 529 540 572 477 q 407 604 486 604 q 284 540 328 604 q 241 359 241 477 q 284 179 241 243 q 407 115 328 115 m 115 846 l 115 974 l 699 974 l 699 846 l 115 846 z "},"Ŏ":{"ha":814,"x_min":52,"x_max":762,"o":"m 407 -14 q 52 475 52 -14 q 407 977 52 977 q 762 475 762 977 q 407 -14 762 -14 m 407 111 q 617 475 617 111 q 407 852 617 852 q 197 475 197 852 q 407 111 197 111 m 407 1065 q 220 1116 286 1065 q 153 1261 153 1168 l 272 1261 q 308 1184 272 1212 q 407 1157 343 1157 q 507 1184 471 1157 q 542 1261 542 1212 l 661 1261 q 594 1116 661 1168 q 407 1065 528 1065 z "},"ŏ":{"ha":814,"x_min":92,"x_max":722,"o":"m 407 -14 q 175 84 258 -14 q 92 359 92 182 q 175 635 92 538 q 407 732 258 732 q 639 635 557 732 q 722 359 722 538 q 639 84 722 182 q 407 -14 557 -14 m 407 115 q 529 179 486 115 q 572 359 572 243 q 529 540 572 477 q 407 604 486 604 q 284 540 328 604 q 241 359 241 477 q 284 179 241 243 q 407 115 328 115 m 407 840 q 232 897 294 840 q 170 1058 170 954 l 170 1087 l 289 1087 l 289 1058 q 319 965 289 998 q 407 932 350 932 q 494 965 464 932 q 525 1058 525 998 l 525 1087 l 644 1087 l 644 1058 q 582 897 644 954 q 407 840 520 840 z "},"Ő":{"ha":814,"x_min":52,"x_max":762,"o":"m 407 -14 q 52 475 52 -14 q 407 977 52 977 q 762 475 762 977 q 407 -14 762 -14 m 407 111 q 617 475 617 111 q 407 852 617 852 q 197 475 197 852 q 407 111 197 111 m 169 1072 l 277 1241 l 469 1241 l 333 1072 l 169 1072 m 447 1072 l 555 1241 l 747 1241 l 611 1072 l 447 1072 z "},"ő":{"ha":814,"x_min":92,"x_max":722,"o":"m 407 -14 q 175 84 258 -14 q 92 359 92 182 q 175 635 92 538 q 407 732 258 732 q 639 635 557 732 q 722 359 722 538 q 639 84 722 182 q 407 -14 557 -14 m 407 115 q 529 179 486 115 q 572 359 572 243 q 529 540 572 477 q 407 604 486 604 q 284 540 328 604 q 241 359 241 477 q 284 179 241 243 q 407 115 328 115 m 196 846 l 298 1104 l 448 1104 l 333 846 l 196 846 m 454 846 l 555 1104 l 706 1104 l 591 846 l 454 846 z "},"Œ":{"ha":814,"x_min":52,"x_max":746,"o":"m 353 -14 q 131 114 210 -14 q 52 475 52 242 q 131 845 52 714 q 353 977 210 977 q 412 970 387 977 q 468 963 437 963 l 746 963 l 746 841 l 536 841 l 536 543 l 705 543 l 705 421 l 536 421 l 536 122 l 746 122 l 746 0 l 475 0 q 421 -7 451 0 q 353 -14 391 -14 m 359 111 q 393 115 378 111 l 393 837 q 353 852 376 852 q 235 753 277 852 q 194 475 194 654 q 237 206 194 301 q 359 111 281 111 z "},"œ":{"ha":814,"x_min":14,"x_max":796,"o":"m 247 -14 q 14 359 14 -14 q 247 732 14 732 q 418 605 368 732 q 589 732 473 732 q 742 642 688 732 q 796 388 796 552 q 795 340 796 365 q 792 296 794 316 l 481 296 q 543 155 494 205 q 669 106 591 106 q 750 115 707 106 l 768 -1 q 710 -10 741 -7 q 652 -14 680 -14 q 423 127 493 -14 q 247 -14 374 -14 m 247 115 q 345 359 345 115 q 247 604 345 604 q 137 359 137 604 q 247 115 137 115 m 477 399 l 673 399 q 649 557 673 508 q 574 606 626 606 q 503 557 526 606 q 477 399 479 508 z "},"Ŕ":{"ha":814,"x_min":95,"x_max":774,"o":"m 95 0 l 95 963 l 426 963 q 657 887 576 963 q 739 671 739 811 q 697 497 739 568 q 576 393 655 426 l 774 0 l 612 0 l 437 366 q 426 366 431 366 l 236 366 l 236 0 l 95 0 m 236 495 l 426 495 q 552 538 507 495 q 597 658 597 581 q 552 788 597 743 q 426 834 507 834 l 236 834 l 236 495 m 291 1072 l 440 1241 l 631 1241 l 448 1072 l 291 1072 z "},"ŕ":{"ha":814,"x_min":54,"x_max":781,"o":"m 358 309 l 358 126 l 534 126 l 534 0 l 54 0 l 54 126 l 214 126 l 214 593 l 81 593 l 81 719 l 331 719 l 355 534 l 372 534 q 570 732 384 732 q 731 669 681 732 q 781 463 781 605 l 639 463 q 615 576 639 541 q 540 610 592 610 q 403 532 448 610 q 358 309 358 454 m 338 846 l 454 1104 l 597 1104 l 469 846 l 338 846 z "},"Ŗ":{"ha":814,"x_min":95,"x_max":774,"o":"m 95 0 l 95 963 l 426 963 q 657 887 576 963 q 739 671 739 811 q 697 497 739 568 q 576 393 655 426 l 774 0 l 612 0 l 437 366 q 426 366 431 366 l 236 366 l 236 0 l 95 0 m 236 495 l 426 495 q 552 538 507 495 q 597 658 597 581 q 552 788 597 743 q 426 834 507 834 l 236 834 l 236 495 z "},"ŗ":{"ha":814,"x_min":54,"x_max":781,"o":"m 358 309 l 358 126 l 534 126 l 534 0 l 54 0 l 54 126 l 214 126 l 214 593 l 81 593 l 81 719 l 331 719 l 355 534 l 372 534 q 570 732 384 732 q 731 669 681 732 q 781 463 781 605 l 639 463 q 615 576 639 541 q 540 610 592 610 q 403 532 448 610 q 358 309 358 454 z "},"Ř":{"ha":814,"x_min":95,"x_max":774,"o":"m 95 0 l 95 963 l 426 963 q 657 887 576 963 q 739 671 739 811 q 697 497 739 568 q 576 393 655 426 l 774 0 l 612 0 l 437 366 q 426 366 431 366 l 236 366 l 236 0 l 95 0 m 236 495 l 426 495 q 552 538 507 495 q 597 658 597 581 q 552 788 597 743 q 426 834 507 834 l 236 834 l 236 495 m 321 1072 l 145 1248 l 296 1248 l 380 1150 l 464 1248 l 614 1248 l 438 1072 l 321 1072 z "},"ř":{"ha":814,"x_min":54,"x_max":781,"o":"m 358 309 l 358 126 l 534 126 l 534 0 l 54 0 l 54 126 l 214 126 l 214 593 l 81 593 l 81 719 l 331 719 l 355 534 l 372 534 q 570 732 384 732 q 731 669 681 732 q 781 463 781 605 l 639 463 q 615 576 639 541 q 540 610 592 610 q 403 532 448 610 q 358 309 358 454 m 349 821 l 186 1078 l 330 1078 l 407 925 l 484 1078 l 628 1078 l 465 821 l 349 821 z "},"Ś":{"ha":814,"x_min":87,"x_max":720,"o":"m 374 -14 q 87 39 210 -14 l 105 176 q 249 128 180 144 q 385 111 319 111 q 572 245 572 111 q 484 372 572 332 l 317 448 q 166 555 218 492 q 113 712 113 618 q 189 907 113 838 q 404 977 265 977 q 576 948 501 977 q 720 855 650 920 l 625 759 q 513 830 565 808 q 405 852 461 852 q 297 818 335 852 q 258 719 258 785 q 283 643 258 672 q 357 590 309 613 l 498 524 q 661 410 606 473 q 717 248 717 347 q 374 -14 717 -14 m 332 1072 l 481 1241 l 672 1241 l 489 1072 l 332 1072 z "},"ś":{"ha":814,"x_min":106,"x_max":708,"o":"m 351 -14 q 212 -9 270 -14 q 106 7 154 -4 l 122 137 q 248 121 193 126 q 351 115 302 115 q 510 137 460 115 q 559 205 559 158 q 542 253 559 237 q 488 278 524 269 l 323 320 q 166 387 216 347 q 117 509 117 427 q 207 680 117 627 q 499 732 298 732 q 689 719 598 732 l 674 594 q 577 602 619 600 q 495 604 535 604 q 320 583 374 604 q 266 515 266 562 q 288 470 266 484 q 357 445 311 456 l 490 412 q 655 340 603 385 q 708 208 708 294 q 623 39 708 92 q 351 -14 538 -14 m 359 846 l 474 1104 l 618 1104 l 489 846 l 359 846 z "},"Ŝ":{"ha":814,"x_min":87,"x_max":720,"o":"m 374 -14 q 87 39 210 -14 l 105 176 q 249 128 180 144 q 385 111 319 111 q 572 245 572 111 q 484 372 572 332 l 317 448 q 166 555 218 492 q 113 712 113 618 q 189 907 113 838 q 404 977 265 977 q 576 948 501 977 q 720 855 650 920 l 625 759 q 513 830 565 808 q 405 852 461 852 q 297 818 335 852 q 258 719 258 785 q 283 643 258 672 q 357 590 309 613 l 498 524 q 661 410 606 473 q 717 248 717 347 q 374 -14 717 -14 m 189 1072 l 366 1248 l 482 1248 l 659 1072 l 508 1072 l 424 1169 l 340 1072 l 189 1072 z "},"ŝ":{"ha":814,"x_min":106,"x_max":708,"o":"m 351 -14 q 212 -9 270 -14 q 106 7 154 -4 l 122 137 q 248 121 193 126 q 351 115 302 115 q 510 137 460 115 q 559 205 559 158 q 542 253 559 237 q 488 278 524 269 l 323 320 q 166 387 216 347 q 117 509 117 427 q 207 680 117 627 q 499 732 298 732 q 689 719 598 732 l 674 594 q 577 602 619 600 q 495 604 535 604 q 320 583 374 604 q 266 515 266 562 q 288 470 266 484 q 357 445 311 456 l 490 412 q 655 340 603 385 q 708 208 708 294 q 623 39 708 92 q 351 -14 538 -14 m 206 846 l 369 1104 l 486 1104 l 648 846 l 505 846 l 427 1000 l 350 846 l 206 846 z "},"Ş":{"ha":814,"x_min":87,"x_max":720,"o":"m 374 -14 q 87 39 210 -14 l 105 176 q 249 128 180 144 q 385 111 319 111 q 572 245 572 111 q 484 372 572 332 l 317 448 q 166 555 218 492 q 113 712 113 618 q 189 907 113 838 q 404 977 265 977 q 576 948 501 977 q 720 855 650 920 l 625 759 q 513 830 565 808 q 405 852 461 852 q 297 818 335 852 q 258 719 258 785 q 283 643 258 672 q 357 590 309 613 l 498 524 q 661 410 606 473 q 717 248 717 347 q 374 -14 717 -14 m 304 -326 l 304 -224 q 432 -175 432 -224 q 322 -129 432 -129 l 369 4 l 461 -3 l 444 -68 q 561 -181 561 -92 q 304 -326 561 -326 z "},"ş":{"ha":814,"x_min":106,"x_max":708,"o":"m 351 -14 q 212 -9 270 -14 q 106 7 154 -4 l 122 137 q 248 121 193 126 q 351 115 302 115 q 510 137 460 115 q 559 205 559 158 q 542 253 559 237 q 488 278 524 269 l 323 320 q 166 387 216 347 q 117 509 117 427 q 207 680 117 627 q 499 732 298 732 q 689 719 598 732 l 674 594 q 577 602 619 600 q 495 604 535 604 q 320 583 374 604 q 266 515 266 562 q 288 470 266 484 q 357 445 311 456 l 490 412 q 655 340 603 385 q 708 208 708 294 q 623 39 708 92 q 351 -14 538 -14 m 291 -326 l 291 -224 q 418 -175 418 -224 q 309 -129 418 -129 l 355 4 l 448 -3 l 431 -68 q 547 -181 547 -92 q 291 -326 547 -326 z "},"Š":{"ha":814,"x_min":87,"x_max":720,"o":"m 374 -14 q 87 39 210 -14 l 105 176 q 249 128 180 144 q 385 111 319 111 q 572 245 572 111 q 484 372 572 332 l 317 448 q 166 555 218 492 q 113 712 113 618 q 189 907 113 838 q 404 977 265 977 q 576 948 501 977 q 720 855 650 920 l 625 759 q 513 830 565 808 q 405 852 461 852 q 297 818 335 852 q 258 719 258 785 q 283 643 258 672 q 357 590 309 613 l 498 524 q 661 410 606 473 q 717 248 717 347 q 374 -14 717 -14 m 362 1072 l 186 1248 l 336 1248 l 420 1150 l 505 1248 l 655 1248 l 479 1072 l 362 1072 z "},"š":{"ha":814,"x_min":106,"x_max":708,"o":"m 351 -14 q 212 -9 270 -14 q 106 7 154 -4 l 122 137 q 248 121 193 126 q 351 115 302 115 q 510 137 460 115 q 559 205 559 158 q 542 253 559 237 q 488 278 524 269 l 323 320 q 166 387 216 347 q 117 509 117 427 q 207 680 117 627 q 499 732 298 732 q 689 719 598 732 l 674 594 q 577 602 619 600 q 495 604 535 604 q 320 583 374 604 q 266 515 266 562 q 288 470 266 484 q 357 445 311 456 l 490 412 q 655 340 603 385 q 708 208 708 294 q 623 39 708 92 q 351 -14 538 -14 m 369 821 l 206 1078 l 350 1078 l 427 925 l 505 1078 l 648 1078 l 486 821 l 369 821 z "},"Ţ":{"ha":814,"x_min":54,"x_max":760,"o":"m 336 0 l 336 834 l 54 834 l 54 963 l 760 963 l 760 834 l 477 834 l 477 0 l 336 0 m 294 -326 l 294 -224 q 422 -175 422 -224 q 312 -129 422 -129 l 359 4 l 451 -3 l 434 -68 q 551 -181 551 -92 q 294 -326 551 -326 z "},"ţ":{"ha":814,"x_min":47,"x_max":726,"o":"m 537 -14 q 301 54 374 -14 q 228 271 228 122 l 228 593 l 47 593 l 47 719 l 228 719 l 228 936 l 372 936 l 372 719 l 699 719 l 699 593 l 372 593 l 372 278 q 413 154 372 193 q 551 115 455 115 q 623 119 585 115 q 709 129 661 123 l 726 3 q 633 -9 678 -5 q 537 -14 588 -14 m 342 -326 l 342 -224 q 469 -175 469 -224 q 359 -129 469 -129 l 406 4 l 498 -3 l 481 -68 q 598 -181 598 -92 q 342 -326 598 -326 z "},"Ť":{"ha":814,"x_min":54,"x_max":760,"o":"m 336 0 l 336 834 l 54 834 l 54 963 l 760 963 l 760 834 l 477 834 l 477 0 l 336 0 m 349 1072 l 172 1248 l 323 1248 l 407 1150 l 491 1248 l 642 1248 l 465 1072 l 349 1072 z "},"ť":{"ha":814,"x_min":47,"x_max":726,"o":"m 537 -14 q 301 54 374 -14 q 228 271 228 122 l 228 593 l 47 593 l 47 719 l 228 719 l 228 936 l 372 936 l 372 719 l 699 719 l 699 593 l 372 593 l 372 278 q 413 154 372 193 q 551 115 455 115 q 623 119 585 115 q 709 129 661 123 l 726 3 q 633 -9 678 -5 q 537 -14 588 -14 m 483 833 l 517 1090 l 661 1090 l 600 833 l 483 833 z "},"Ŧ":{"ha":814,"x_min":54,"x_max":760,"o":"m 130 398 l 130 527 l 336 527 l 336 834 l 54 834 l 54 963 l 760 963 l 760 834 l 477 834 l 477 527 l 684 527 l 684 398 l 477 398 l 477 0 l 336 0 l 336 398 l 130 398 z "},"ŧ":{"ha":814,"x_min":47,"x_max":726,"o":"m 47 336 l 47 454 l 228 454 l 228 593 l 47 593 l 47 719 l 228 719 l 228 936 l 372 936 l 372 719 l 699 719 l 699 593 l 372 593 l 372 454 l 699 454 l 699 336 l 372 336 l 372 278 q 413 154 372 193 q 551 115 455 115 q 623 119 585 115 q 709 129 661 123 l 726 3 q 633 -9 678 -5 q 537 -14 588 -14 q 301 54 374 -14 q 228 271 228 122 l 228 336 l 47 336 z "},"Ũ":{"ha":814,"x_min":95,"x_max":719,"o":"m 404 -14 q 95 309 95 -14 l 95 963 l 236 963 l 236 309 q 277 164 236 213 q 407 115 319 115 q 578 309 578 115 l 578 963 l 719 963 l 719 309 q 639 67 719 148 q 404 -14 559 -14 m 153 1062 l 153 1096 q 295 1265 153 1265 q 353 1257 323 1265 q 422 1232 383 1249 q 484 1207 463 1216 q 522 1198 505 1198 q 558 1241 558 1198 l 558 1282 l 675 1282 l 675 1248 q 547 1085 675 1085 q 492 1095 524 1085 q 416 1122 460 1104 q 363 1144 387 1135 q 321 1153 338 1153 q 271 1103 271 1153 l 271 1062 l 153 1062 z "},"ũ":{"ha":814,"x_min":99,"x_max":779,"o":"m 336 -14 q 161 54 223 -14 q 99 244 99 121 l 99 719 l 243 719 l 243 244 q 278 149 243 182 q 377 115 313 115 q 496 165 456 115 q 536 332 536 215 l 536 719 l 680 719 l 680 130 l 779 115 l 779 0 l 548 -7 l 538 138 l 525 138 q 458 26 508 65 q 336 -14 409 -14 m 156 852 l 156 879 q 298 1048 156 1048 q 349 1040 326 1048 q 399 1019 373 1031 q 457 991 433 1002 q 498 981 481 981 q 534 1024 534 981 l 534 1085 l 651 1085 l 651 1031 q 524 868 651 868 q 477 876 505 868 q 413 902 449 884 q 368 925 391 913 q 324 936 346 936 q 274 886 274 936 l 274 852 l 156 852 z "},"Ū":{"ha":814,"x_min":95,"x_max":719,"o":"m 404 -14 q 95 309 95 -14 l 95 963 l 236 963 l 236 309 q 277 164 236 213 q 407 115 319 115 q 578 309 578 115 l 578 963 l 719 963 l 719 309 q 639 67 719 148 q 404 -14 559 -14 m 144 1072 l 144 1199 l 669 1199 l 669 1072 l 144 1072 z "},"ū":{"ha":814,"x_min":99,"x_max":779,"o":"m 336 -14 q 161 54 223 -14 q 99 244 99 121 l 99 719 l 243 719 l 243 244 q 278 149 243 182 q 377 115 313 115 q 496 165 456 115 q 536 332 536 215 l 536 719 l 680 719 l 680 130 l 779 115 l 779 0 l 548 -7 l 538 138 l 525 138 q 458 26 508 65 q 336 -14 409 -14 m 102 846 l 102 974 l 685 974 l 685 846 l 102 846 z "},"Ŭ":{"ha":814,"x_min":95,"x_max":719,"o":"m 404 -14 q 95 309 95 -14 l 95 963 l 236 963 l 236 309 q 277 164 236 213 q 407 115 319 115 q 578 309 578 115 l 578 963 l 719 963 l 719 309 q 639 67 719 148 q 404 -14 559 -14 m 407 1065 q 220 1116 286 1065 q 153 1261 153 1168 l 272 1261 q 308 1184 272 1212 q 407 1157 343 1157 q 507 1184 471 1157 q 542 1261 542 1212 l 661 1261 q 594 1116 661 1168 q 407 1065 528 1065 z "},"ŭ":{"ha":814,"x_min":99,"x_max":779,"o":"m 336 -14 q 161 54 223 -14 q 99 244 99 121 l 99 719 l 243 719 l 243 244 q 278 149 243 182 q 377 115 313 115 q 496 165 456 115 q 536 332 536 215 l 536 719 l 680 719 l 680 130 l 779 115 l 779 0 l 548 -7 l 538 138 l 525 138 q 458 26 508 65 q 336 -14 409 -14 m 393 840 q 219 897 281 840 q 157 1058 157 954 l 157 1087 l 275 1087 l 275 1058 q 306 965 275 998 q 393 932 336 932 q 481 965 450 932 q 511 1058 511 998 l 511 1087 l 630 1087 l 630 1058 q 568 897 630 954 q 393 840 507 840 z "},"Ů":{"ha":814,"x_min":95,"x_max":719,"o":"m 404 -14 q 95 309 95 -14 l 95 963 l 236 963 l 236 309 q 277 164 236 213 q 407 115 319 115 q 578 309 578 115 l 578 963 l 719 963 l 719 309 q 639 67 719 148 q 404 -14 559 -14 m 407 1009 q 288 1046 330 1009 q 245 1149 245 1082 q 288 1252 245 1215 q 407 1289 330 1289 q 526 1252 484 1289 q 568 1149 568 1215 q 526 1046 568 1082 q 407 1009 484 1009 m 407 1088 q 472 1149 472 1088 q 407 1211 472 1211 q 342 1149 342 1211 q 407 1088 342 1088 z "},"ů":{"ha":814,"x_min":99,"x_max":779,"o":"m 336 -14 q 161 54 223 -14 q 99 244 99 121 l 99 719 l 243 719 l 243 244 q 278 149 243 182 q 377 115 313 115 q 496 165 456 115 q 536 332 536 215 l 536 719 l 680 719 l 680 130 l 779 115 l 779 0 l 548 -7 l 538 138 l 525 138 q 458 26 508 65 q 336 -14 409 -14 m 393 812 q 274 851 317 812 q 232 959 232 889 q 274 1067 232 1029 q 393 1105 317 1105 q 512 1067 470 1105 q 555 959 555 1029 q 512 851 555 889 q 393 812 470 812 m 393 891 q 458 959 458 891 q 393 1027 458 1027 q 328 959 328 1027 q 393 891 328 891 z "},"Ű":{"ha":814,"x_min":95,"x_max":747,"o":"m 404 -14 q 95 309 95 -14 l 95 963 l 236 963 l 236 309 q 277 164 236 213 q 407 115 319 115 q 578 309 578 115 l 578 963 l 719 963 l 719 309 q 639 67 719 148 q 404 -14 559 -14 m 169 1072 l 277 1241 l 469 1241 l 333 1072 l 169 1072 m 447 1072 l 555 1241 l 747 1241 l 611 1072 l 447 1072 z "},"ű":{"ha":814,"x_min":99,"x_max":779,"o":"m 336 -14 q 161 54 223 -14 q 99 244 99 121 l 99 719 l 243 719 l 243 244 q 278 149 243 182 q 377 115 313 115 q 496 165 456 115 q 536 332 536 215 l 536 719 l 680 719 l 680 130 l 779 115 l 779 0 l 548 -7 l 538 138 l 525 138 q 458 26 508 65 q 336 -14 409 -14 m 182 846 l 284 1104 l 435 1104 l 319 846 l 182 846 m 440 846 l 542 1104 l 692 1104 l 577 846 l 440 846 z "},"Ų":{"ha":814,"x_min":95,"x_max":719,"o":"m 453 -288 q 333 -253 375 -288 q 290 -157 290 -219 q 368 -27 290 -53 l 368 -12 q 95 309 95 6 l 95 963 l 236 963 l 236 309 q 277 164 236 213 q 407 115 319 115 q 578 309 578 115 l 578 963 l 719 963 l 719 309 q 522 1 719 56 q 460 -23 490 -9 q 411 -58 430 -36 q 392 -114 392 -79 q 408 -153 392 -132 q 471 -174 423 -174 q 526 -166 496 -174 l 514 -281 q 453 -288 479 -288 z "},"ų":{"ha":814,"x_min":99,"x_max":779,"o":"m 685 -288 q 565 -250 607 -288 q 522 -144 522 -212 q 542 -66 522 -98 q 600 -24 562 -35 l 600 -5 l 548 -7 l 538 138 l 525 138 q 458 26 508 65 q 336 -14 409 -14 q 161 54 223 -14 q 99 244 99 121 l 99 719 l 243 719 l 243 244 q 278 149 243 182 q 377 115 313 115 q 496 165 456 115 q 536 332 536 215 l 536 719 l 680 719 l 680 130 l 779 115 l 779 0 l 755 -1 q 658 -34 692 -5 q 624 -114 624 -64 q 703 -174 624 -174 q 758 -166 726 -174 l 746 -281 q 685 -288 715 -288 z "},"Ŵ":{"ha":814,"x_min":14,"x_max":800,"o":"m 122 0 l 14 963 l 156 963 l 237 109 l 251 109 l 340 719 l 475 719 l 563 109 l 576 109 l 658 963 l 800 963 l 692 0 l 482 0 l 411 585 l 403 585 l 332 0 l 122 0 m 176 1072 l 352 1248 l 469 1248 l 645 1072 l 494 1072 l 410 1169 l 326 1072 l 176 1072 z "},"ŵ":{"ha":814,"x_min":47,"x_max":766,"o":"m 488 0 l 404 571 l 396 571 l 312 0 l 129 0 l 47 719 l 183 719 l 237 109 l 250 109 l 334 719 l 466 719 l 551 109 l 563 109 l 624 719 l 766 719 l 665 0 l 488 0 m 179 846 l 342 1104 l 458 1104 l 621 846 l 477 846 l 400 1000 l 323 846 l 179 846 z "},"Ŷ":{"ha":814,"x_min":17,"x_max":797,"o":"m 336 0 l 336 347 l 17 963 l 166 963 l 401 481 l 413 481 l 648 963 l 797 963 l 477 347 l 477 0 l 336 0 m 176 1072 l 352 1248 l 469 1248 l 645 1072 l 494 1072 l 410 1169 l 326 1072 l 176 1072 z "},"ŷ":{"ha":814,"x_min":37,"x_max":756,"o":"m 51 -326 l 44 -197 l 157 -183 q 299 -131 243 -173 q 393 0 355 -89 l 323 0 l 37 719 l 186 719 l 421 109 l 431 109 l 607 719 l 756 719 l 549 64 q 457 -144 508 -65 q 338 -262 407 -222 q 173 -312 269 -301 l 51 -326 m 196 846 l 359 1104 l 475 1104 l 638 846 l 494 846 l 417 1000 l 340 846 l 196 846 z "},"Ÿ":{"ha":814,"x_min":17,"x_max":797,"o":"m 336 0 l 336 347 l 17 963 l 166 963 l 401 481 l 413 481 l 648 963 l 797 963 l 477 347 l 477 0 l 336 0 m 266 1072 q 202 1098 229 1072 q 175 1162 175 1125 q 202 1227 175 1200 q 266 1253 229 1253 q 330 1227 304 1253 q 357 1162 357 1200 q 330 1098 357 1125 q 266 1072 304 1072 m 548 1072 q 484 1098 511 1072 q 457 1162 457 1125 q 484 1227 457 1200 q 548 1253 511 1253 q 612 1227 586 1253 q 639 1162 639 1200 q 612 1098 639 1125 q 548 1072 586 1072 z "},"Ź":{"ha":814,"x_min":102,"x_max":726,"o":"m 102 0 l 102 129 l 552 834 l 102 834 l 102 963 l 712 963 l 712 834 l 258 129 l 726 129 l 726 0 l 102 0 m 318 1072 l 467 1241 l 659 1241 l 475 1072 l 318 1072 z "},"ź":{"ha":814,"x_min":111,"x_max":703,"o":"m 111 0 l 111 127 l 519 591 l 111 591 l 111 719 l 689 719 l 689 591 l 283 127 l 703 127 l 703 0 l 111 0 m 338 846 l 454 1104 l 597 1104 l 469 846 l 338 846 z "},"Ż":{"ha":814,"x_min":102,"x_max":726,"o":"m 102 0 l 102 129 l 552 834 l 102 834 l 102 963 l 712 963 l 712 834 l 258 129 l 726 129 l 726 0 l 102 0 m 407 1072 q 343 1098 370 1072 q 316 1162 316 1125 q 343 1227 316 1200 q 407 1253 370 1253 q 471 1227 445 1253 q 498 1162 498 1200 q 471 1098 498 1125 q 407 1072 445 1072 z "},"ż":{"ha":814,"x_min":111,"x_max":703,"o":"m 111 0 l 111 127 l 519 591 l 111 591 l 111 719 l 689 719 l 689 591 l 283 127 l 703 127 l 703 0 l 111 0 m 406 840 q 341 866 368 840 q 315 930 315 893 q 341 995 315 968 q 406 1021 368 1021 q 470 995 444 1021 q 496 930 496 968 q 470 866 496 893 q 406 840 444 840 z "},"Ž":{"ha":814,"x_min":102,"x_max":726,"o":"m 102 0 l 102 129 l 552 834 l 102 834 l 102 963 l 712 963 l 712 834 l 258 129 l 726 129 l 726 0 l 102 0 m 349 1072 l 172 1248 l 323 1248 l 407 1150 l 491 1248 l 642 1248 l 465 1072 l 349 1072 z "},"ž":{"ha":814,"x_min":111,"x_max":703,"o":"m 111 0 l 111 127 l 519 591 l 111 591 l 111 719 l 689 719 l 689 591 l 283 127 l 703 127 l 703 0 l 111 0 m 349 821 l 186 1078 l 330 1078 l 407 925 l 484 1078 l 628 1078 l 465 821 l 349 821 z "},"ſ":{"ha":814,"x_min":46,"x_max":789,"o":"m 313 0 l 313 437 l 46 437 l 46 556 l 313 556 l 313 658 q 633 1031 313 1031 q 789 1010 715 1031 l 761 886 q 629 902 684 902 q 457 665 457 902 l 457 0 l 313 0 z "},"Ɔ":{"ha":814,"x_min":32,"x_max":769,"o":"m 343 -14 q 172 16 252 -14 q 32 102 92 45 l 130 198 q 237 130 190 149 q 351 111 284 111 q 555 209 482 111 q 629 478 629 307 q 547 754 629 656 q 306 852 466 852 q 110 811 205 852 l 79 930 q 329 977 197 977 q 657 850 546 977 q 769 484 769 723 q 663 119 769 251 q 343 -14 556 -14 z "},"Ɖ":{"ha":814,"x_min":8,"x_max":769,"o":"m 8 415 l 8 544 l 95 544 l 95 963 l 328 963 q 769 468 769 963 q 328 0 769 0 l 95 0 l 95 415 l 8 415 m 236 129 l 328 129 q 627 468 627 129 q 328 834 627 834 l 236 834 l 236 544 l 441 544 l 441 415 l 236 415 l 236 129 z "},"Ǝ":{"ha":814,"x_min":68,"x_max":705,"o":"m 705 0 l 68 0 l 68 129 l 564 129 l 564 418 l 190 418 l 190 547 l 564 547 l 564 834 l 68 834 l 68 963 l 705 963 l 705 0 z "},"Ə":{"ha":814,"x_min":52,"x_max":762,"o":"m 407 -14 q 52 461 52 -14 q 52 502 52 482 q 54 541 53 522 l 617 541 q 339 852 594 852 q 133 825 229 852 l 114 945 q 339 977 220 977 q 762 475 762 977 q 407 -14 762 -14 m 618 412 l 195 412 q 407 111 210 111 q 618 412 601 111 z "},"Ɛ":{"ha":814,"x_min":87,"x_max":763,"o":"m 468 977 q 653 945 578 977 q 763 855 728 913 l 663 755 q 583 827 633 803 q 469 852 532 852 q 311 813 359 852 q 263 718 263 774 q 334 610 263 646 q 568 570 404 575 l 553 442 l 452 442 q 290 400 351 442 q 228 281 228 359 q 288 156 228 201 q 454 111 348 111 q 549 115 509 111 q 628 126 589 118 q 715 151 666 135 l 746 33 q 662 5 703 15 q 573 -9 621 -5 q 457 -14 524 -14 q 260 21 343 -14 q 132 119 177 56 q 87 267 87 182 q 125 398 87 345 q 225 480 163 452 q 359 512 287 509 l 359 519 q 179 598 234 539 q 125 741 125 656 q 205 911 125 846 q 468 977 286 977 z "},"Ƒ":{"ha":814,"x_min":-31,"x_max":760,"o":"m -24 -323 l -31 -187 l 16 -180 q 95 -141 68 -172 q 122 -54 122 -111 l 122 963 l 760 963 l 760 834 l 263 834 l 263 506 l 637 506 l 637 377 l 263 377 l 263 -65 q 202 -242 263 -178 q 30 -317 141 -306 l -24 -323 z "},"ƒ":{"ha":814,"x_min":46,"x_max":762,"o":"m 66 -323 l 60 -196 l 133 -186 q 239 -122 205 -176 q 273 42 273 -68 l 273 434 l 46 434 l 46 560 l 273 560 l 273 658 q 613 1031 273 1031 q 762 1017 690 1031 l 747 892 q 672 900 705 898 q 609 902 640 902 q 416 665 416 902 l 416 560 l 711 560 l 711 434 l 416 434 l 416 64 q 385 -144 416 -64 q 289 -264 354 -224 q 119 -317 223 -305 l 66 -323 z "},"Ɣ":{"ha":814,"x_min":31,"x_max":783,"o":"m 407 -313 q 249 -268 305 -313 q 193 -140 193 -223 q 214 -52 193 -96 q 290 41 235 -7 l 31 963 l 176 963 l 401 115 l 413 115 l 638 963 l 783 963 l 524 41 q 600 -52 579 -7 q 621 -140 621 -96 q 565 -268 621 -223 q 407 -313 509 -313 m 328 -110 q 407 -191 328 -191 q 486 -110 486 -191 q 469 -58 486 -86 q 407 20 452 -30 q 345 -58 361 -30 q 328 -110 328 -86 z "},"Ɩ":{"ha":814,"x_min":66,"x_max":728,"o":"m 514 -14 q 334 54 389 -14 q 278 271 278 122 l 278 891 l 66 891 l 66 1017 l 422 1017 l 422 278 q 433 185 422 221 q 475 132 444 149 q 568 115 507 115 q 712 141 625 115 l 728 15 q 623 -7 673 0 q 514 -14 572 -14 z "},"ƚ":{"ha":814,"x_min":66,"x_max":728,"o":"m 66 439 l 66 568 l 278 568 l 278 891 l 66 891 l 66 1017 l 422 1017 l 422 568 l 633 568 l 633 439 l 422 439 l 422 278 q 433 185 422 221 q 475 132 444 149 q 568 115 507 115 q 712 141 625 115 l 728 15 q 623 -7 673 0 q 514 -14 572 -14 q 334 54 389 -14 q 278 271 278 122 l 278 439 l 66 439 z "},"ƛ":{"ha":814,"x_min":45,"x_max":796,"o":"m 94 608 l 66 727 l 314 807 q 270 881 296 860 q 208 902 244 902 q 166 897 190 902 l 150 1023 q 222 1031 184 1031 q 361 993 309 1031 q 443 854 414 955 l 444 849 l 654 917 l 681 798 l 478 732 l 622 231 q 668 141 640 166 q 738 115 696 115 q 780 121 756 115 l 796 -5 q 724 -14 762 -14 q 582 26 636 -14 q 498 170 528 66 l 382 574 l 357 567 q 367 481 368 522 q 351 401 366 439 l 199 0 l 45 0 l 329 684 l 94 608 z "},"Ɲ":{"ha":814,"x_min":-53,"x_max":713,"o":"m -46 -323 l -53 -187 l -5 -180 q 74 -141 47 -172 q 100 -54 100 -111 l 100 963 l 282 963 l 559 231 l 572 231 l 572 963 l 713 963 l 713 0 l 532 0 l 255 732 l 241 732 l 241 -65 q 180 -242 241 -178 q 8 -317 119 -306 l -46 -323 z "},"Ơ":{"ha":814,"x_min":52,"x_max":846,"o":"m 407 -14 q 52 475 52 -14 q 407 977 52 977 q 762 475 762 977 q 407 -14 762 -14 m 407 111 q 617 475 617 111 q 407 852 617 852 q 197 475 197 852 q 407 111 197 111 m 570 817 l 536 929 l 577 936 q 716 1121 716 959 l 846 1121 q 611 824 846 863 l 570 817 z "},"ơ":{"ha":814,"x_min":92,"x_max":804,"o":"m 407 -14 q 175 84 258 -14 q 92 359 92 182 q 175 635 92 538 q 407 732 258 732 q 639 635 557 732 q 722 359 722 538 q 639 84 722 182 q 407 -14 557 -14 m 407 115 q 529 179 486 115 q 572 359 572 243 q 529 540 572 477 q 407 604 486 604 q 284 540 328 604 q 241 359 241 477 q 284 179 241 243 q 407 115 328 115 m 528 607 l 494 719 l 534 726 q 661 911 661 747 l 804 911 q 568 614 804 653 l 528 607 z "},"Ʃ":{"ha":814,"x_min":102,"x_max":726,"o":"m 102 0 l 102 129 l 401 484 l 102 834 l 102 963 l 712 963 l 712 834 l 286 834 l 574 484 l 271 129 l 726 129 l 726 0 l 102 0 z "},"Ư":{"ha":814,"x_min":95,"x_max":880,"o":"m 404 -14 q 95 309 95 -14 l 95 963 l 236 963 l 236 309 q 277 164 236 213 q 407 115 319 115 q 578 309 578 115 l 578 963 l 583 963 l 625 970 q 750 1121 750 990 l 880 1121 q 719 873 880 927 l 719 309 q 639 67 719 148 q 404 -14 559 -14 z "},"ư":{"ha":814,"x_min":99,"x_max":833,"o":"m 336 -14 q 161 54 223 -14 q 99 244 99 121 l 99 719 l 243 719 l 243 244 q 278 149 243 182 q 377 115 313 115 q 496 165 456 115 q 536 332 536 215 l 536 719 l 536 719 l 564 726 q 655 785 627 741 q 684 911 684 829 l 833 911 q 796 744 833 809 q 680 642 760 678 l 680 130 l 779 115 l 779 0 l 548 -7 l 538 138 l 525 138 q 458 26 508 65 q 336 -14 409 -14 z "},"Ʊ":{"ha":814,"x_min":52,"x_max":762,"o":"m 71 963 l 359 963 l 359 837 q 194 434 194 775 q 250 196 194 280 q 407 111 305 111 q 564 196 509 111 q 620 434 620 280 q 471 837 620 781 l 471 963 l 743 963 l 743 837 l 593 837 l 593 823 q 762 434 762 770 q 669 103 762 220 q 407 -14 576 -14 q 144 103 237 -14 q 52 434 52 220 q 237 825 52 764 l 237 837 l 71 837 l 71 963 z "},"Ʋ":{"ha":814,"x_min":95,"x_max":719,"o":"m 426 963 l 513 963 q 673 918 627 963 q 719 760 719 872 l 719 309 q 639 67 719 148 q 404 -14 559 -14 q 95 309 95 -14 l 95 963 l 236 963 l 236 309 q 277 164 236 213 q 407 115 319 115 q 578 309 578 115 l 578 726 q 556 810 578 786 q 480 834 534 834 l 426 834 l 426 963 z "},"Ʒ":{"ha":814,"x_min":50,"x_max":734,"o":"m 377 -14 q 50 102 176 -14 l 148 198 q 258 131 208 151 q 380 111 309 111 q 536 155 480 111 q 593 275 593 198 q 522 409 593 361 q 321 456 451 456 l 230 456 l 216 540 l 527 837 l 111 837 l 111 963 l 689 963 l 689 827 l 406 559 q 648 477 562 551 q 734 277 734 404 q 690 124 734 189 q 567 22 647 58 q 377 -14 487 -14 z "},"Ǎ":{"ha":814,"x_min":31,"x_max":783,"o":"m 31 0 l 309 963 l 505 963 l 783 0 l 641 0 l 578 235 l 236 235 l 173 0 l 31 0 m 271 363 l 543 363 l 413 846 l 401 846 l 271 363 m 349 1072 l 172 1248 l 323 1248 l 407 1150 l 491 1248 l 642 1248 l 465 1072 l 349 1072 z "},"ǎ":{"ha":814,"x_min":65,"x_max":785,"o":"m 555 -7 l 548 152 l 534 152 q 464 28 526 69 q 301 -14 401 -14 q 127 41 189 -14 q 65 194 65 95 q 150 369 65 308 q 391 430 235 430 q 526 418 468 430 l 526 452 q 476 557 526 524 q 326 593 425 591 l 153 598 l 167 726 l 312 724 q 577 647 490 721 q 663 430 663 572 l 663 130 l 785 115 l 785 0 l 555 -7 m 526 308 q 457 314 492 313 q 388 315 423 315 q 201 201 201 315 q 233 127 201 153 q 324 102 265 102 q 436 125 391 102 q 504 184 481 148 q 526 258 526 220 l 526 308 m 335 821 l 172 1078 l 316 1078 l 393 925 l 471 1078 l 614 1078 l 452 821 l 335 821 z "},"ǝ":{"ha":814,"x_min":92,"x_max":722,"o":"m 397 -14 q 172 75 252 -14 q 92 331 92 163 q 96 423 92 380 l 582 423 q 496 560 563 513 q 321 606 430 606 q 233 600 277 606 q 145 581 190 593 l 127 700 q 244 727 192 721 q 338 732 297 732 q 622 636 522 732 q 722 358 722 539 q 637 84 722 182 q 397 -14 552 -14 m 587 313 l 222 313 q 269 165 222 217 q 396 113 315 113 q 529 165 479 113 q 587 313 578 217 z "},"Ǥ":{"ha":814,"x_min":45,"x_max":814,"o":"m 476 -14 q 45 483 45 -14 q 157 847 45 718 q 471 977 269 977 q 648 945 572 977 q 760 856 724 913 l 659 755 q 580 827 627 802 q 479 852 533 852 q 266 757 342 852 q 190 490 190 663 q 492 111 190 111 q 545 114 520 111 q 591 122 570 117 l 591 251 l 434 251 l 434 380 l 591 380 l 591 481 l 726 481 l 726 380 l 814 380 l 814 251 l 726 251 l 726 27 q 631 2 699 18 q 476 -14 563 -14 z "},"ǥ":{"ha":814,"x_min":30,"x_max":784,"o":"m 30 -131 l 30 -58 l 543 -58 q 556 42 555 -16 l 556 130 l 543 130 q 485 24 536 62 q 352 -14 435 -14 q 138 79 211 -14 q 65 353 65 172 q 138 636 65 540 q 352 732 211 732 q 488 694 436 732 q 549 589 541 656 l 558 589 l 570 719 l 700 719 l 700 64 q 690 -58 700 -3 l 784 -58 l 784 -131 l 669 -131 q 550 -268 632 -222 q 334 -317 467 -313 l 123 -324 l 117 -193 l 347 -186 q 500 -131 450 -183 l 30 -131 m 556 384 q 384 610 556 610 q 208 353 208 610 q 384 109 208 109 q 556 335 556 109 l 556 384 z "},"Ǧ":{"ha":814,"x_min":45,"x_max":760,"o":"m 476 -14 q 45 483 45 -14 q 157 847 45 718 q 471 977 269 977 q 648 945 572 977 q 760 856 724 913 l 659 755 q 580 827 627 802 q 479 852 533 852 q 266 757 342 852 q 190 490 190 663 q 492 111 190 111 q 552 115 524 111 q 605 123 581 118 l 605 353 l 414 353 l 414 481 l 739 481 l 739 27 q 639 2 711 18 q 476 -14 568 -14 m 399 1072 l 223 1248 l 374 1248 l 458 1150 l 542 1248 l 692 1248 l 516 1072 l 399 1072 z "},"ǧ":{"ha":814,"x_min":65,"x_max":700,"o":"m 123 -324 l 117 -193 l 347 -186 q 506 -125 456 -182 q 556 42 555 -68 l 556 130 l 543 130 q 485 24 536 62 q 352 -14 435 -14 q 138 79 211 -14 q 65 353 65 172 q 138 636 65 540 q 352 732 211 732 q 488 694 436 732 q 549 589 541 656 l 558 589 l 570 719 l 700 719 l 700 64 q 612 -220 700 -128 q 334 -317 525 -311 l 123 -324 m 556 384 q 384 610 556 610 q 208 353 208 610 q 384 109 208 109 q 556 335 556 109 l 556 384 m 321 821 l 159 1078 l 302 1078 l 380 925 l 457 1078 l 601 1078 l 438 821 l 321 821 z "},"Ǫ":{"ha":814,"x_min":52,"x_max":762,"o":"m 446 -288 q 326 -253 368 -288 q 283 -157 283 -219 q 361 -27 283 -53 l 361 -12 q 52 475 52 19 q 407 977 52 977 q 762 475 762 977 q 530 4 762 79 q 463 -20 496 -7 q 408 -55 430 -33 q 385 -114 385 -77 q 401 -153 385 -132 q 464 -174 416 -174 q 519 -166 489 -174 l 507 -281 q 446 -288 473 -288 m 407 111 q 617 475 617 111 q 407 852 617 852 q 197 475 197 852 q 407 111 197 111 z "},"ǫ":{"ha":814,"x_min":92,"x_max":722,"o":"m 454 -288 q 333 -253 376 -288 q 291 -157 291 -219 q 368 -27 291 -53 l 368 -12 q 164 97 237 1 q 92 359 92 193 q 175 635 92 538 q 407 732 258 732 q 639 635 557 732 q 722 359 722 538 q 670 130 722 220 q 525 5 619 39 q 466 -19 497 -5 q 414 -54 435 -32 q 393 -114 393 -76 q 408 -153 393 -132 q 471 -174 424 -174 q 527 -166 496 -174 l 515 -281 q 454 -288 480 -288 m 407 115 q 529 179 486 115 q 572 359 572 243 q 529 540 572 477 q 407 604 486 604 q 284 540 328 604 q 241 359 241 477 q 284 179 241 243 q 407 115 328 115 z "},"ǰ":{"ha":814,"x_min":115,"x_max":751,"o":"m 122 -326 l 115 -198 l 251 -186 q 409 -122 360 -176 q 458 42 458 -68 l 458 601 l 179 601 l 179 719 l 602 719 l 602 64 q 515 -216 602 -128 q 237 -317 429 -304 l 122 -326 m 472 821 l 309 1078 l 453 1078 l 530 925 l 608 1078 l 751 1078 l 589 821 l 472 821 z "},"Ǻ":{"ha":814,"x_min":31,"x_max":783,"o":"m 271 1234 l 420 1404 l 611 1404 l 428 1234 l 271 1234 m 31 0 l 309 963 l 505 963 l 783 0 l 641 0 l 578 235 l 236 235 l 173 0 l 31 0 m 271 363 l 543 363 l 413 846 l 401 846 l 271 363 m 407 1009 q 288 1046 330 1009 q 245 1149 245 1082 q 288 1252 245 1215 q 407 1289 330 1289 q 526 1252 484 1289 q 568 1149 568 1215 q 526 1046 568 1082 q 407 1009 484 1009 m 407 1088 q 472 1149 472 1088 q 407 1211 472 1211 q 342 1149 342 1211 q 407 1088 342 1088 z "},"ǻ":{"ha":814,"x_min":65,"x_max":785,"o":"m 555 -7 l 548 152 l 534 152 q 464 28 526 69 q 301 -14 401 -14 q 127 41 189 -14 q 65 194 65 95 q 150 369 65 308 q 391 430 235 430 q 526 418 468 430 l 526 452 q 476 557 526 524 q 326 593 425 591 l 153 598 l 167 726 l 312 724 q 577 647 490 721 q 663 430 663 572 l 663 130 l 785 115 l 785 0 l 555 -7 m 526 308 q 457 314 492 313 q 388 315 423 315 q 201 201 201 315 q 233 127 201 153 q 324 102 265 102 q 436 125 391 102 q 504 184 481 148 q 526 258 526 220 l 526 308 m 393 812 q 274 851 317 812 q 232 959 232 889 q 274 1067 232 1029 q 393 1105 317 1105 q 512 1067 470 1105 q 555 959 555 1029 q 512 851 555 889 q 393 812 470 812 m 393 891 q 458 959 458 891 q 393 1027 458 1027 q 328 959 328 1027 q 393 891 328 891 m 304 1036 l 420 1294 l 564 1294 l 435 1036 l 304 1036 z "},"Ǽ":{"ha":814,"x_min":28,"x_max":746,"o":"m 28 0 l 293 963 l 746 963 l 746 834 l 529 834 l 529 547 l 705 547 l 705 418 l 529 418 l 529 129 l 746 129 l 746 0 l 400 0 l 400 163 l 202 163 l 157 0 l 28 0 m 235 282 l 400 282 l 400 846 l 389 846 l 235 282 m 345 1072 l 494 1241 l 686 1241 l 503 1072 l 345 1072 z "},"ǽ":{"ha":814,"x_min":14,"x_max":797,"o":"m 203 -14 q 66 43 118 -14 q 14 194 14 100 q 83 365 14 300 q 265 430 153 430 q 353 422 313 430 l 353 452 q 300 558 353 519 q 153 600 248 597 l 89 602 l 102 726 l 166 724 q 416 597 343 718 q 590 732 470 732 q 743 642 689 732 q 797 388 797 552 q 796 340 797 365 q 793 296 795 316 l 482 296 q 545 162 496 209 q 669 115 593 115 q 751 124 708 115 l 768 -1 q 711 -10 741 -7 q 653 -14 681 -14 q 412 152 477 -14 l 400 152 q 340 30 387 73 q 203 -14 294 -14 m 353 258 l 353 315 q 313 320 336 319 q 262 321 290 321 q 176 288 209 321 q 143 201 143 255 q 170 129 143 156 q 239 102 196 102 q 323 143 294 102 q 353 258 353 184 m 477 399 l 667 399 q 646 557 667 508 q 578 606 625 606 q 505 557 529 606 q 477 399 480 508 m 338 846 l 454 1104 l 597 1104 l 469 846 l 338 846 z "},"Ǿ":{"ha":814,"x_min":45,"x_max":762,"o":"m 136 -91 l 45 -40 l 135 117 q 52 475 52 239 q 407 977 52 977 q 598 925 521 977 l 664 1039 l 755 988 l 675 848 q 762 475 762 723 q 407 -14 762 -14 q 211 39 290 -14 l 136 -91 m 407 111 q 617 475 617 111 q 589 699 617 612 l 281 161 q 407 111 330 111 m 222 268 l 530 804 q 407 852 481 852 q 197 475 197 852 q 222 268 197 350 m 318 1072 l 467 1241 l 659 1241 l 475 1072 l 318 1072 z "},"ǿ":{"ha":814,"x_min":92,"x_max":722,"o":"m 204 -91 l 133 -40 l 192 66 q 92 359 92 163 q 175 635 92 538 q 407 732 258 732 q 547 705 486 732 l 608 812 l 686 768 l 621 654 q 722 359 722 556 q 639 84 722 182 q 407 -14 557 -14 q 264 16 326 -14 l 204 -91 m 407 115 q 529 179 486 115 q 572 359 572 243 q 544 515 572 454 l 330 135 q 407 115 363 115 m 269 205 l 481 585 q 407 604 449 604 q 284 540 328 604 q 241 359 241 477 q 269 205 241 266 m 338 846 l 454 1104 l 597 1104 l 469 846 l 338 846 z "},"Ș":{"ha":814,"x_min":87,"x_max":720,"o":"m 374 -14 q 87 39 210 -14 l 105 176 q 249 128 180 144 q 385 111 319 111 q 572 245 572 111 q 484 372 572 332 l 317 448 q 166 555 218 492 q 113 712 113 618 q 189 907 113 838 q 404 977 265 977 q 576 948 501 977 q 720 855 650 920 l 625 759 q 513 830 565 808 q 405 852 461 852 q 297 818 335 852 q 258 719 258 785 q 283 643 258 672 q 357 590 309 613 l 498 524 q 661 410 606 473 q 717 248 717 347 q 374 -14 717 -14 z "},"ș":{"ha":814,"x_min":106,"x_max":708,"o":"m 351 -14 q 212 -9 270 -14 q 106 7 154 -4 l 122 137 q 248 121 193 126 q 351 115 302 115 q 510 137 460 115 q 559 205 559 158 q 542 253 559 237 q 488 278 524 269 l 323 320 q 166 387 216 347 q 117 509 117 427 q 207 680 117 627 q 499 732 298 732 q 689 719 598 732 l 674 594 q 577 602 619 600 q 495 604 535 604 q 320 583 374 604 q 266 515 266 562 q 288 470 266 484 q 357 445 311 456 l 490 412 q 655 340 603 385 q 708 208 708 294 q 623 39 708 92 q 351 -14 538 -14 z "},"Ț":{"ha":814,"x_min":54,"x_max":760,"o":"m 336 0 l 336 834 l 54 834 l 54 963 l 760 963 l 760 834 l 477 834 l 477 0 l 336 0 z "},"ț":{"ha":814,"x_min":47,"x_max":726,"o":"m 537 -14 q 301 54 374 -14 q 228 271 228 122 l 228 593 l 47 593 l 47 719 l 228 719 l 228 936 l 372 936 l 372 719 l 699 719 l 699 593 l 372 593 l 372 278 q 413 154 372 193 q 551 115 455 115 q 623 119 585 115 q 709 129 661 123 l 726 3 q 633 -9 678 -5 q 537 -14 588 -14 z "},"Ȟ":{"ha":814,"x_min":95,"x_max":719,"o":"m 578 0 l 578 415 l 236 415 l 236 0 l 95 0 l 95 963 l 236 963 l 236 544 l 578 544 l 578 963 l 719 963 l 719 0 l 578 0 m 349 1072 l 172 1248 l 323 1248 l 407 1150 l 491 1248 l 642 1248 l 465 1072 l 349 1072 z "},"ȟ":{"ha":814,"x_min":-49,"x_max":700,"o":"m 556 0 l 556 468 q 522 573 556 536 q 427 610 488 610 q 258 404 258 610 l 258 0 l 114 0 l 114 1017 l 258 1017 l 258 589 l 271 589 q 461 732 283 732 q 637 663 575 732 q 700 468 700 594 l 700 0 l 556 0 m 127 1126 l -49 1302 l 102 1302 l 186 1204 l 270 1302 l 420 1302 l 244 1126 l 127 1126 z "},"Ȳ":{"ha":814,"x_min":17,"x_max":797,"o":"m 336 0 l 336 347 l 17 963 l 166 963 l 401 481 l 413 481 l 648 963 l 797 963 l 477 347 l 477 0 l 336 0 m 144 1072 l 144 1199 l 669 1199 l 669 1072 l 144 1072 z "},"ȳ":{"ha":814,"x_min":37,"x_max":756,"o":"m 51 -326 l 44 -197 l 157 -183 q 299 -131 243 -173 q 393 0 355 -89 l 323 0 l 37 719 l 186 719 l 421 109 l 431 109 l 607 719 l 756 719 l 549 64 q 457 -144 508 -65 q 338 -262 407 -222 q 173 -312 269 -301 l 51 -326 m 125 846 l 125 974 l 709 974 l 709 846 l 125 846 z "},"ȷ":{"ha":814,"x_min":115,"x_max":602,"o":"m 122 -326 l 115 -198 l 251 -186 q 409 -122 360 -176 q 458 42 458 -68 l 458 601 l 179 601 l 179 719 l 602 719 l 602 64 q 515 -216 602 -128 q 237 -317 429 -304 l 122 -326 z "},"Ⱥ":{"ha":814,"x_min":31,"x_max":783,"o":"m 348 -224 l 256 -208 l 334 235 l 236 235 l 173 0 l 31 0 l 309 963 l 462 963 l 497 1164 l 589 1147 l 537 852 l 783 0 l 641 0 l 578 235 l 429 235 l 348 -224 m 357 363 l 430 783 l 413 846 l 401 846 l 271 363 l 357 363 m 488 569 l 452 363 l 543 363 l 488 569 z "},"Ȼ":{"ha":814,"x_min":58,"x_max":772,"o":"m 389 -224 l 296 -208 l 334 9 q 58 483 58 94 q 172 847 58 718 q 491 977 285 977 q 505 977 498 977 l 538 1164 l 630 1147 l 598 966 q 772 855 724 939 l 672 755 q 575 836 635 811 l 449 118 q 530 111 487 111 q 724 152 629 111 l 755 33 q 507 -14 637 -14 q 427 -9 465 -14 l 389 -224 m 359 148 l 483 852 q 279 754 355 848 q 203 490 203 660 q 359 148 203 229 z "},"Ƚ":{"ha":814,"x_min":-14,"x_max":746,"o":"m -14 439 l -14 568 l 109 568 l 109 963 l 250 963 l 250 568 l 553 568 l 553 439 l 250 439 l 250 129 l 746 129 l 746 0 l 109 0 l 109 439 l -14 439 z "},"Ⱦ":{"ha":814,"x_min":54,"x_max":760,"o":"m 243 -237 l 161 -208 l 336 262 l 336 834 l 54 834 l 54 963 l 598 963 l 673 1164 l 755 1134 l 692 963 l 760 963 l 760 834 l 644 834 l 477 390 l 477 0 l 336 0 l 336 13 l 243 -237 m 477 640 l 550 834 l 477 834 l 477 640 z "},"Ʌ":{"ha":814,"x_min":31,"x_max":783,"o":"m 31 0 l 309 963 l 505 963 l 783 0 l 634 0 l 413 846 l 401 846 l 180 0 l 31 0 z "},"ɑ":{"ha":814,"x_min":52,"x_max":785,"o":"m 338 -14 q 126 81 201 -14 q 52 353 52 176 q 129 633 52 534 q 346 732 205 732 q 529 589 512 732 l 543 589 l 543 719 l 686 719 l 686 130 l 785 115 l 785 0 l 555 -7 l 545 130 l 529 130 q 470 22 522 58 q 338 -14 419 -14 m 543 312 l 543 407 q 499 557 543 503 q 380 610 456 610 q 242 543 291 610 q 194 353 194 476 q 373 109 194 109 q 498 162 453 109 q 543 312 543 216 z "},"ɔ":{"ha":814,"x_min":90,"x_max":722,"o":"m 357 -14 q 199 11 269 -14 q 90 70 130 35 l 160 178 q 247 134 194 153 q 362 115 300 115 q 522 177 465 115 q 579 351 579 239 q 512 539 579 475 q 321 604 445 604 q 236 597 276 604 q 144 576 196 591 l 122 701 q 223 725 174 718 q 338 732 271 732 q 622 636 522 732 q 722 358 722 539 q 627 84 722 182 q 357 -14 532 -14 z "},"ɖ":{"ha":814,"x_min":65,"x_max":892,"o":"m 352 -14 q 138 79 211 -14 q 65 353 65 172 q 138 636 65 540 q 352 732 211 732 q 483 694 433 732 q 543 589 534 656 l 556 589 l 556 1017 l 700 1017 l 700 42 q 738 -121 700 -68 q 860 -186 776 -173 l 892 -191 l 885 -318 l 873 -317 q 631 -218 707 -308 q 556 64 556 -128 l 556 130 l 539 130 q 483 24 532 62 q 352 -14 433 -14 m 556 335 l 556 384 q 384 610 556 610 q 208 353 208 610 q 384 109 208 109 q 556 335 556 109 z "},"ə":{"ha":814,"x_min":92,"x_max":722,"o":"m 397 -14 q 172 75 252 -14 q 92 331 92 163 q 96 423 92 380 l 582 423 q 496 560 563 513 q 321 606 430 606 q 233 600 277 606 q 145 581 190 593 l 127 700 q 244 727 192 721 q 338 732 297 732 q 622 636 522 732 q 722 358 722 539 q 637 84 722 182 q 397 -14 552 -14 m 587 313 l 222 313 q 269 165 222 217 q 396 113 315 113 q 529 165 479 113 q 587 313 578 217 z "},"ɛ":{"ha":814,"x_min":113,"x_max":712,"o":"m 425 -14 q 113 190 113 -14 q 320 359 113 331 l 320 373 q 133 557 133 420 q 435 732 133 732 q 712 693 627 732 l 668 570 q 450 608 574 608 q 283 524 283 608 q 566 418 283 429 l 549 295 l 528 295 q 262 197 262 295 q 430 111 262 111 q 569 124 514 111 q 668 149 625 137 l 705 19 q 580 -5 651 4 q 425 -14 509 -14 z "},"ɢ":{"ha":814,"x_min":58,"x_max":761,"o":"m 463 -10 q 58 367 58 -10 q 170 644 58 545 q 484 742 282 742 q 652 725 578 742 q 761 675 726 707 l 692 559 q 603 599 653 585 q 492 613 553 613 q 282 550 357 613 q 207 372 207 488 q 479 119 207 119 q 549 121 516 119 q 610 128 583 124 l 610 258 l 441 258 l 441 387 l 754 387 l 754 20 q 644 2 723 14 q 463 -10 565 -10 z "},"ɣ":{"ha":814,"x_min":54,"x_max":760,"o":"m 407 -313 q 244 -268 302 -313 q 186 -140 186 -223 q 209 -49 186 -94 q 294 47 233 -4 l 54 719 l 208 719 l 401 122 l 413 122 l 606 719 l 760 719 l 519 47 q 605 -49 581 -4 q 628 -140 628 -94 q 570 -268 628 -223 q 407 -313 512 -313 m 328 -110 q 407 -184 328 -184 q 486 -110 486 -184 q 469 -58 486 -86 q 407 20 452 -30 q 345 -58 361 -30 q 328 -110 328 -86 z "},"ɩ":{"ha":814,"x_min":88,"x_max":722,"o":"m 518 -14 q 345 54 398 -14 q 292 271 292 122 l 292 600 l 88 600 l 88 719 l 435 719 l 435 278 q 461 154 435 193 q 572 115 486 115 q 705 141 625 115 l 722 15 q 621 -7 669 0 q 518 -14 573 -14 z "},"ɪ":{"ha":814,"x_min":114,"x_max":700,"o":"m 114 0 l 114 118 l 335 118 l 335 601 l 114 601 l 114 719 l 700 719 l 700 601 l 479 601 l 479 118 l 700 118 l 700 0 l 114 0 z "},"ɫ":{"ha":814,"x_min":51,"x_max":728,"o":"m 51 399 l 51 456 q 87 583 51 543 q 204 622 124 622 q 242 619 224 622 q 278 610 260 616 l 278 891 l 66 891 l 66 1017 l 422 1017 l 422 544 q 453 532 437 536 q 485 527 468 527 q 524 578 524 527 l 524 640 l 648 640 l 648 583 q 615 457 648 496 q 511 418 583 418 q 465 422 487 418 q 422 434 443 427 l 422 278 q 433 185 422 221 q 475 132 444 149 q 568 115 507 115 q 712 141 625 115 l 728 15 q 623 -7 673 0 q 514 -14 572 -14 q 334 54 389 -14 q 278 271 278 122 l 278 503 q 225 513 251 513 q 174 462 174 513 l 174 399 l 51 399 z "},"ɬ":{"ha":814,"x_min":-3,"x_max":728,"o":"m 210 371 q 53 425 109 371 q -3 578 -3 479 q 38 724 -3 673 q 156 776 80 776 q 267 685 252 776 l 278 685 l 278 891 l 66 891 l 66 1017 l 422 1017 l 422 500 l 633 500 l 633 371 l 422 371 l 422 278 q 433 185 422 221 q 475 132 444 149 q 568 115 507 115 q 712 141 625 115 l 728 15 q 623 -7 673 0 q 514 -14 572 -14 q 334 54 389 -14 q 278 271 278 122 l 278 371 l 210 371 m 278 500 l 278 557 q 256 626 278 604 q 203 647 235 647 q 146 575 146 647 q 210 500 146 500 l 278 500 z "},"ɲ":{"ha":814,"x_min":-78,"x_max":700,"o":"m 556 0 l 556 468 q 522 573 556 536 q 427 610 488 610 q 258 404 258 610 l 258 64 q 182 -218 258 -128 q -60 -317 107 -308 l -71 -318 l -78 -191 l -46 -186 q 76 -121 39 -173 q 114 42 114 -68 l 114 719 l 244 719 l 256 589 l 271 589 q 461 732 283 732 q 637 663 575 732 q 700 468 700 594 l 700 0 l 556 0 z "},"ʃ":{"ha":814,"x_min":73,"x_max":789,"o":"m 80 -323 l 73 -196 l 146 -186 q 263 -121 227 -174 q 300 42 300 -68 l 300 658 q 640 1031 300 1031 q 789 1017 718 1031 l 774 892 q 699 900 732 898 q 636 902 667 902 q 444 665 444 902 l 444 64 q 379 -213 444 -127 q 174 -314 315 -300 l 80 -323 z "},"ʊ":{"ha":814,"x_min":65,"x_max":749,"o":"m 71 718 l 359 718 l 359 599 q 253 517 291 582 q 214 355 214 453 q 265 181 214 243 q 407 119 316 119 q 549 181 498 119 q 600 355 600 243 q 565 519 600 454 q 471 599 531 583 l 471 718 l 743 718 l 743 599 l 593 599 l 593 583 q 708 481 667 555 q 749 304 749 408 q 659 73 749 156 q 407 -10 568 -10 q 155 73 245 -10 q 65 304 65 156 q 111 480 65 406 q 237 585 156 554 l 237 599 l 71 599 l 71 718 z "},"ʋ":{"ha":814,"x_min":106,"x_max":708,"o":"m 407 -14 q 106 278 109 -14 l 106 719 l 250 719 l 250 278 q 407 115 250 115 q 564 278 564 115 l 564 495 q 547 569 564 547 q 488 590 530 590 l 442 590 l 442 719 l 515 719 q 665 676 622 719 q 708 529 707 634 l 708 278 q 407 -14 708 -14 z "},"ʌ":{"ha":814,"x_min":64,"x_max":749,"o":"m 64 0 l 309 719 l 505 719 l 749 0 l 600 0 l 413 602 l 401 602 l 214 0 l 64 0 z "},"ʒ":{"ha":814,"x_min":54,"x_max":720,"o":"m 367 -312 q 54 -191 171 -312 l 149 -90 q 253 -161 203 -139 q 374 -183 303 -183 q 520 -135 468 -183 q 572 -6 572 -87 q 513 135 572 85 q 347 185 454 185 l 230 185 l 216 269 l 522 595 l 117 595 l 117 713 l 675 713 l 675 576 l 406 288 q 637 206 555 281 q 720 -2 720 130 q 678 -163 720 -93 q 558 -272 637 -233 q 367 -312 479 -312 z "},"ʔ":{"ha":814,"x_min":85,"x_max":689,"o":"m 315 0 l 315 259 q 351 426 315 352 q 457 579 387 499 q 520 666 500 628 q 540 754 540 703 q 498 863 540 825 q 382 902 457 902 q 272 870 327 902 q 179 785 217 838 l 85 882 q 210 990 129 949 q 384 1031 290 1031 q 609 960 529 1031 q 689 761 689 889 q 657 625 689 682 q 566 500 626 568 q 480 369 504 431 q 456 250 456 308 l 456 0 l 315 0 z "},"ʕ":{"ha":814,"x_min":125,"x_max":728,"o":"m 358 0 l 358 243 q 334 363 358 301 q 248 500 311 425 q 182 586 210 547 q 140 667 155 625 q 125 761 125 708 q 205 960 125 889 q 430 1031 285 1031 q 604 990 524 1031 q 728 882 685 949 l 635 785 q 542 870 597 838 q 431 902 488 902 q 315 863 357 902 q 274 754 274 825 q 294 666 274 703 q 357 579 313 628 q 463 426 427 499 q 499 259 499 352 l 499 0 l 358 0 z "},"ʟ":{"ha":814,"x_min":108,"x_max":747,"o":"m 108 0 l 108 732 l 252 732 l 252 118 l 747 118 l 747 0 l 108 0 z "},"ʧ":{"ha":814,"x_min":7,"x_max":837,"o":"m 347 -14 q 184 35 235 -14 q 133 190 133 83 l 133 601 l 7 601 l 7 719 l 133 719 l 133 936 l 277 936 l 277 719 l 517 719 q 742 977 517 977 q 837 966 795 977 l 822 842 q 765 848 795 848 q 688 816 715 848 q 661 726 661 784 l 661 9 q 581 -229 661 -151 q 323 -319 500 -307 l 263 -323 l 256 -196 l 336 -188 q 474 -137 431 -178 q 517 -12 517 -95 l 517 601 l 277 601 l 277 197 q 297 135 277 154 q 361 115 317 115 q 387 117 373 115 q 418 122 401 119 l 434 -4 q 392 -11 412 -9 q 347 -14 371 -14 z "},"ʷ":{"ha":814,"x_min":156,"x_max":659,"o":"m 456 536 l 412 840 l 393 840 l 350 536 l 197 536 l 156 963 l 284 963 l 296 663 l 318 663 l 370 963 l 435 963 l 488 663 l 509 663 l 536 963 l 659 963 l 604 536 l 456 536 z "},"ʸ":{"ha":814,"x_min":171,"x_max":656,"o":"m 189 342 l 189 454 l 231 454 q 318 472 278 454 q 385 536 358 491 l 322 536 l 171 963 l 303 963 l 412 641 l 425 641 l 524 963 l 656 963 l 526 574 q 468 452 503 505 q 378 371 433 400 q 241 342 324 342 l 189 342 z "},"ʻ":{"ha":814,"x_min":271,"x_max":538,"o":"m 488 519 q 271 724 271 519 q 300 853 271 786 q 390 986 330 920 l 428 1027 l 530 938 l 489 894 q 410 724 410 809 q 508 644 410 644 l 538 644 l 538 519 l 488 519 z "},"ʼ":{"ha":814,"x_min":275,"x_max":543,"o":"m 386 454 l 284 544 l 325 588 q 404 758 404 673 q 306 838 404 838 l 275 838 l 275 963 l 326 963 q 543 758 543 963 q 513 629 543 696 q 424 496 484 562 l 386 454 z "},"ˀ":{"ha":814,"x_min":161,"x_max":618,"o":"m 323 536 l 323 604 q 346 692 323 662 q 414 755 370 722 q 465 808 454 786 q 476 861 476 831 q 450 922 476 901 q 376 944 424 944 q 227 888 291 944 l 161 978 q 260 1041 197 1019 q 401 1063 323 1063 q 562 1016 505 1063 q 618 882 618 968 q 590 774 618 812 q 510 690 562 735 q 464 641 479 664 q 449 575 449 617 l 449 536 l 323 536 z "},"ˆ":{"ha":814,"x_min":186,"x_max":628,"o":"m 186 846 l 349 1104 l 465 1104 l 628 846 l 484 846 l 407 1000 l 330 846 l 186 846 z "},"ˇ":{"ha":814,"x_min":186,"x_max":628,"o":"m 349 821 l 186 1078 l 330 1078 l 407 925 l 484 1078 l 628 1078 l 465 821 l 349 821 z "},"ˉ":{"ha":814,"x_min":115,"x_max":699,"o":"m 115 846 l 115 974 l 699 974 l 699 846 l 115 846 z "},"ː":{"ha":814,"x_min":271,"x_max":543,"o":"m 271 0 l 407 244 l 543 0 l 271 0 m 407 475 l 271 719 l 543 719 l 407 475 z "},"˘":{"ha":814,"x_min":170,"x_max":644,"o":"m 407 840 q 232 897 294 840 q 170 1058 170 954 l 170 1087 l 289 1087 l 289 1058 q 319 965 289 998 q 407 932 350 932 q 494 965 464 932 q 525 1058 525 998 l 525 1087 l 644 1087 l 644 1058 q 582 897 644 954 q 407 840 520 840 z "},"˙":{"ha":814,"x_min":316,"x_max":498,"o":"m 407 840 q 343 866 370 840 q 316 930 316 893 q 343 995 316 968 q 407 1021 370 1021 q 471 995 445 1021 q 498 930 498 968 q 471 866 498 893 q 407 840 445 840 z "},"˚":{"ha":814,"x_min":245,"x_max":568,"o":"m 407 812 q 288 851 330 812 q 245 959 245 889 q 288 1067 245 1029 q 407 1105 330 1105 q 526 1067 484 1105 q 568 959 568 1029 q 526 851 568 889 q 407 812 484 812 m 407 891 q 472 959 472 891 q 407 1027 472 1027 q 342 959 342 1027 q 407 891 342 891 z "},"˛":{"ha":814,"x_min":259,"x_max":513,"o":"m 422 -288 q 301 -253 344 -288 q 259 -157 259 -219 q 283 -73 259 -107 q 350 -27 307 -39 l 350 20 l 513 22 l 513 0 q 401 -30 441 0 q 361 -114 361 -60 q 439 -174 361 -174 q 495 -166 463 -174 l 483 -281 q 422 -288 452 -288 z "},"˜":{"ha":814,"x_min":163,"x_max":658,"o":"m 163 852 l 163 879 q 305 1048 163 1048 q 356 1040 332 1048 q 406 1019 380 1031 q 464 991 439 1002 q 505 981 488 981 q 541 1024 541 981 l 541 1085 l 658 1085 l 658 1031 q 530 868 658 868 q 484 876 511 868 q 420 902 456 884 q 375 925 397 913 q 331 936 353 936 q 281 886 281 936 l 281 852 l 163 852 z "},"˝":{"ha":814,"x_min":169,"x_max":679,"o":"m 169 846 l 271 1104 l 421 1104 l 306 846 l 169 846 m 427 846 l 528 1104 l 679 1104 l 564 846 l 427 846 z "},"̀":{"ha":0,"x_min":257,"x_max":516,"o":"m 386 846 l 257 1104 l 401 1104 l 516 846 l 386 846 z "},"́":{"ha":0,"x_min":298,"x_max":557,"o":"m 298 846 l 413 1104 l 557 1104 l 428 846 l 298 846 z "},"̂":{"ha":0,"x_min":186,"x_max":628,"o":"m 186 846 l 349 1104 l 465 1104 l 628 846 l 484 846 l 407 1000 l 330 846 l 186 846 z "},"̃":{"ha":0,"x_min":163,"x_max":658,"o":"m 163 852 l 163 879 q 305 1048 163 1048 q 356 1040 332 1048 q 406 1019 380 1031 q 464 991 439 1002 q 505 981 488 981 q 541 1024 541 981 l 541 1085 l 658 1085 l 658 1031 q 530 868 658 868 q 484 876 511 868 q 420 902 456 884 q 375 925 397 913 q 331 936 353 936 q 281 886 281 936 l 281 852 l 163 852 z "},"̄":{"ha":0,"x_min":115,"x_max":699,"o":"m 115 846 l 115 974 l 699 974 l 699 846 l 115 846 z "},"̆":{"ha":0,"x_min":170,"x_max":644,"o":"m 407 840 q 232 897 294 840 q 170 1058 170 954 l 170 1087 l 289 1087 l 289 1058 q 319 965 289 998 q 407 932 350 932 q 494 965 464 932 q 525 1058 525 998 l 525 1087 l 644 1087 l 644 1058 q 582 897 644 954 q 407 840 520 840 z "},"̇":{"ha":0,"x_min":316,"x_max":498,"o":"m 407 840 q 343 866 370 840 q 316 930 316 893 q 343 995 316 968 q 407 1021 370 1021 q 471 995 445 1021 q 498 930 498 968 q 471 866 498 893 q 407 840 445 840 z "},"̈":{"ha":0,"x_min":174,"x_max":640,"o":"m 264 840 q 200 866 227 840 q 174 930 174 893 q 200 995 174 968 q 264 1021 227 1021 q 329 995 302 1021 q 355 930 355 968 q 329 866 355 893 q 264 840 302 840 m 549 840 q 485 866 512 840 q 458 930 458 893 q 485 995 458 968 q 549 1021 512 1021 q 614 995 587 1021 q 640 930 640 968 q 614 866 640 893 q 549 840 587 840 z "},"̉":{"ha":0,"x_min":241,"x_max":526,"o":"m 340 846 l 340 871 q 359 928 340 907 q 395 967 377 949 q 413 1007 413 985 q 401 1035 413 1025 q 371 1045 390 1045 q 287 1016 321 1045 l 241 1097 q 302 1134 262 1120 q 385 1147 341 1147 q 487 1112 449 1147 q 526 1017 526 1076 q 513 964 526 984 q 486 929 501 944 q 458 896 470 913 q 446 852 446 879 l 446 846 l 340 846 z "},"̊":{"ha":0,"x_min":245,"x_max":568,"o":"m 407 812 q 288 851 330 812 q 245 959 245 889 q 288 1067 245 1029 q 407 1105 330 1105 q 526 1067 484 1105 q 568 959 568 1029 q 526 851 568 889 q 407 812 484 812 m 407 891 q 472 959 472 891 q 407 1027 472 1027 q 342 959 342 1027 q 407 891 342 891 z "},"̋":{"ha":0,"x_min":169,"x_max":679,"o":"m 169 846 l 271 1104 l 421 1104 l 306 846 l 169 846 m 427 846 l 528 1104 l 679 1104 l 564 846 l 427 846 z "},"̌":{"ha":0,"x_min":186,"x_max":628,"o":"m 349 821 l 186 1078 l 330 1078 l 407 925 l 484 1078 l 628 1078 l 465 821 l 349 821 z "},"̒":{"ha":0,"x_min":283,"x_max":486,"o":"m 406 1122 l 486 1055 q 393 942 393 981 q 442 916 393 916 l 486 916 l 486 814 l 435 814 q 283 928 283 814 q 406 1122 283 1004 z "},"̓":{"ha":0,"x_min":348,"x_max":551,"o":"m 429 788 l 348 855 q 441 968 441 930 q 392 995 441 995 l 348 995 l 348 1096 l 399 1096 q 551 983 551 1096 q 429 788 551 906 z "},"̕":{"ha":0,"x_min":348,"x_max":551,"o":"m 429 788 l 348 855 q 441 968 441 930 q 392 995 441 995 l 348 995 l 348 1096 l 399 1096 q 551 983 551 1096 q 429 788 551 906 z "},"̛":{"ha":0,"x_min":265,"x_max":575,"o":"m 299 607 l 265 719 l 306 726 q 433 911 433 747 l 575 911 q 340 614 575 653 l 299 607 z "},"̣":{"ha":0,"x_min":316,"x_max":498,"o":"m 407 -285 q 343 -258 370 -285 q 316 -194 316 -231 q 343 -130 316 -156 q 407 -103 370 -103 q 471 -130 445 -103 q 498 -194 498 -156 q 471 -258 498 -231 q 407 -285 445 -285 z "},"̥":{"ha":0,"x_min":245,"x_max":568,"o":"m 407 -339 q 288 -301 330 -339 q 245 -193 245 -262 q 288 -84 245 -123 q 407 -46 330 -46 q 526 -84 484 -46 q 568 -193 568 -123 q 526 -301 568 -262 q 407 -339 484 -339 m 407 -260 q 472 -193 472 -260 q 407 -125 472 -125 q 342 -193 342 -125 q 407 -260 342 -260 z "},"̦":{"ha":0,"x_min":311,"x_max":514,"o":"m 391 -385 l 311 -318 q 404 -205 404 -243 q 355 -178 404 -178 l 311 -178 l 311 -77 l 361 -77 q 514 -191 514 -77 q 391 -385 514 -267 z "},"̧":{"ha":0,"x_min":281,"x_max":537,"o":"m 281 -326 l 281 -224 q 408 -175 408 -224 q 298 -129 408 -129 l 345 4 l 437 -3 l 420 -68 q 537 -181 537 -92 q 281 -326 537 -326 z "},"̨":{"ha":0,"x_min":259,"x_max":513,"o":"m 422 -288 q 301 -253 344 -288 q 259 -157 259 -219 q 283 -73 259 -107 q 350 -27 307 -39 l 350 20 l 513 22 l 513 0 q 401 -30 441 0 q 361 -114 361 -60 q 439 -174 361 -174 q 495 -166 463 -174 l 483 -281 q 422 -288 452 -288 z "},"̱":{"ha":0,"x_min":115,"x_max":699,"o":"m 115 -269 l 115 -141 l 699 -141 l 699 -269 l 115 -269 z "},"̲":{"ha":0,"x_min":-34,"x_max":848,"o":"m -34 -269 l -34 -141 l 848 -141 l 848 -269 l -34 -269 z "},"̀":{"ha":0,"x_min":257,"x_max":516,"o":"m 386 846 l 257 1104 l 401 1104 l 516 846 l 386 846 z "},"́":{"ha":0,"x_min":298,"x_max":557,"o":"m 298 846 l 413 1104 l 557 1104 l 428 846 l 298 846 z "},"͂":{"ha":0,"x_min":163,"x_max":658,"o":"m 163 852 l 163 879 q 305 1048 163 1048 q 356 1040 332 1048 q 406 1019 380 1031 q 464 991 439 1002 q 505 981 488 981 q 541 1024 541 981 l 541 1085 l 658 1085 l 658 1031 q 530 868 658 868 q 484 876 511 868 q 420 902 456 884 q 375 925 397 913 q 331 936 353 936 q 281 886 281 936 l 281 852 l 163 852 z "},"ʹ":{"ha":814,"x_min":275,"x_max":543,"o":"m 386 454 l 284 544 l 325 588 q 404 758 404 673 q 306 838 404 838 l 275 838 l 275 963 l 326 963 q 543 758 543 963 q 513 629 543 696 q 424 496 484 562 l 386 454 z "},"͵":{"ha":814,"x_min":279,"x_max":491,"o":"m 279 -296 l 334 172 l 491 172 l 410 -296 l 279 -296 z "},";":{"ha":814,"x_min":279,"x_max":507,"o":"m 279 -296 l 334 172 l 491 172 l 410 -296 l 279 -296 m 407 532 q 336 561 366 532 q 307 632 307 591 q 336 703 307 674 q 407 732 366 732 q 478 703 449 732 q 507 632 507 674 q 478 561 507 591 q 407 532 449 532 z "},"΄":{"ha":814,"x_min":298,"x_max":557,"o":"m 298 846 l 413 1104 l 557 1104 l 428 846 l 298 846 z "},"΅":{"ha":814,"x_min":92,"x_max":728,"o":"m 311 846 l 399 1104 l 543 1104 l 441 846 l 311 846 m 183 840 q 119 866 146 840 q 92 930 92 893 q 119 995 92 968 q 183 1021 146 1021 q 248 995 221 1021 q 274 930 274 968 q 248 866 274 893 q 183 840 221 840 m 637 840 q 573 866 600 840 q 547 930 547 893 q 573 995 547 968 q 637 1021 600 1021 q 702 995 675 1021 q 728 930 728 968 q 702 866 728 893 q 637 840 675 840 z "},"Ά":{"ha":814,"x_min":-1,"x_max":783,"o":"m 166 0 l 376 963 l 573 963 l 783 0 l 641 0 l 597 235 l 353 235 l 309 0 l 166 0 m 377 363 l 572 363 l 481 846 l 469 846 l 377 363 m -1 705 l 60 963 l 204 963 l 130 705 l -1 705 z "},"·":{"ha":814,"x_min":307,"x_max":507,"o":"m 407 532 q 336 561 366 532 q 307 632 307 591 q 336 703 307 674 q 407 732 366 732 q 478 703 449 732 q 507 632 507 674 q 478 561 507 591 q 407 532 449 532 z "},"Έ":{"ha":814,"x_min":-1,"x_max":746,"o":"m 244 0 l 244 963 l 746 963 l 746 834 l 385 834 l 385 547 l 624 547 l 624 418 l 385 418 l 385 129 l 746 129 l 746 0 l 244 0 m -1 705 l 60 963 l 204 963 l 130 705 l -1 705 z "},"Ή":{"ha":814,"x_min":-1,"x_max":719,"o":"m 578 0 l 578 415 l 372 415 l 372 0 l 231 0 l 231 963 l 372 963 l 372 544 l 578 544 l 578 963 l 719 963 l 719 0 l 578 0 m -1 705 l 60 963 l 204 963 l 130 705 l -1 705 z "},"Ί":{"ha":814,"x_min":-1,"x_max":700,"o":"m 250 0 l 250 129 l 404 129 l 404 834 l 250 834 l 250 963 l 700 963 l 700 834 l 545 834 l 545 129 l 700 129 l 700 0 l 250 0 m -1 705 l 60 963 l 204 963 l 130 705 l -1 705 z "},"Ό":{"ha":814,"x_min":-1,"x_max":762,"o":"m 475 -14 q 187 475 187 -14 q 475 977 187 977 q 762 475 762 977 q 475 -14 762 -14 m 475 111 q 620 475 620 111 q 475 852 620 852 q 330 475 330 852 q 475 111 330 111 m -1 705 l 60 963 l 204 963 l 130 705 l -1 705 z "},"Ύ":{"ha":814,"x_min":-1,"x_max":798,"o":"m 440 0 l 440 355 l 228 963 l 377 963 l 503 481 l 515 481 l 648 963 l 798 963 l 581 355 l 581 0 l 440 0 m -1 705 l 60 963 l 204 963 l 130 705 l -1 705 z "},"Ώ":{"ha":814,"x_min":-1,"x_max":762,"o":"m 206 0 l 206 126 l 358 126 l 358 138 q 187 515 187 178 q 475 977 187 977 q 762 515 762 977 q 591 140 762 172 l 591 126 l 743 126 l 743 0 l 503 0 l 503 126 q 620 515 620 180 q 475 852 620 852 q 330 515 330 852 q 446 126 330 186 l 446 0 l 206 0 m -1 705 l 60 963 l 204 963 l 130 705 l -1 705 z "},"ΐ":{"ha":814,"x_min":64,"x_max":722,"o":"m 518 -14 q 345 54 398 -14 q 292 271 292 122 l 292 600 l 88 600 l 88 719 l 435 719 l 435 278 q 461 154 435 193 q 572 115 486 115 q 705 141 625 115 l 722 15 q 621 -7 669 0 q 518 -14 573 -14 m 282 846 l 370 1104 l 514 1104 l 412 846 l 282 846 m 155 840 q 91 866 117 840 q 64 930 64 893 q 91 995 64 968 q 155 1021 117 1021 q 219 995 193 1021 q 245 930 245 968 q 219 866 245 893 q 155 840 193 840 m 609 840 q 545 866 572 840 q 518 930 518 893 q 545 995 518 968 q 609 1021 572 1021 q 673 995 647 1021 q 700 930 700 968 q 673 866 700 893 q 609 840 647 840 z "},"Α":{"ha":814,"x_min":31,"x_max":783,"o":"m 31 0 l 309 963 l 505 963 l 783 0 l 641 0 l 578 235 l 236 235 l 173 0 l 31 0 m 271 363 l 543 363 l 413 846 l 401 846 l 271 363 z "},"Β":{"ha":814,"x_min":109,"x_max":769,"o":"m 109 0 l 109 963 l 395 963 q 621 900 541 963 q 701 719 701 836 q 641 578 701 631 q 471 514 581 526 l 471 506 q 691 441 613 504 q 769 264 769 378 q 693 69 769 138 q 477 0 617 0 l 109 0 m 250 129 l 438 129 q 577 170 528 129 q 627 285 627 211 q 575 402 627 361 q 429 444 524 444 l 250 444 l 250 129 m 250 573 l 397 573 q 516 607 474 573 q 559 705 559 642 q 514 801 559 768 q 388 834 470 834 l 250 834 l 250 573 z "},"Γ":{"ha":814,"x_min":122,"x_max":739,"o":"m 122 0 l 122 963 l 739 963 l 739 834 l 263 834 l 263 0 l 122 0 z "},"Δ":{"ha":814,"x_min":31,"x_max":783,"o":"m 31 0 l 309 963 l 505 963 l 783 0 l 31 0 m 208 129 l 606 129 l 413 846 l 401 846 l 208 129 z "},"Ε":{"ha":814,"x_min":109,"x_max":746,"o":"m 109 0 l 109 963 l 746 963 l 746 834 l 250 834 l 250 547 l 624 547 l 624 418 l 250 418 l 250 129 l 746 129 l 746 0 l 109 0 z "},"Ζ":{"ha":814,"x_min":102,"x_max":726,"o":"m 102 0 l 102 129 l 552 834 l 102 834 l 102 963 l 712 963 l 712 834 l 258 129 l 726 129 l 726 0 l 102 0 z "},"Η":{"ha":814,"x_min":95,"x_max":719,"o":"m 578 0 l 578 415 l 236 415 l 236 0 l 95 0 l 95 963 l 236 963 l 236 544 l 578 544 l 578 963 l 719 963 l 719 0 l 578 0 z "},"Θ":{"ha":814,"x_min":52,"x_max":762,"o":"m 407 -14 q 52 475 52 -14 q 407 977 52 977 q 762 475 762 977 q 407 -14 762 -14 m 407 111 q 616 418 600 111 l 198 418 q 407 111 214 111 m 199 545 l 615 545 q 407 852 597 852 q 199 545 217 852 z "},"Ι":{"ha":814,"x_min":114,"x_max":700,"o":"m 114 0 l 114 129 l 336 129 l 336 834 l 114 834 l 114 963 l 700 963 l 700 834 l 477 834 l 477 129 l 700 129 l 700 0 l 114 0 z "},"Κ":{"ha":814,"x_min":102,"x_max":788,"o":"m 102 0 l 102 963 l 243 963 l 243 443 q 404 499 336 452 q 515 618 471 546 q 581 780 559 691 q 602 963 602 869 l 742 963 q 692 680 742 814 q 548 452 642 545 l 788 0 l 624 0 l 433 367 q 343 329 391 344 q 243 309 296 315 l 243 0 l 102 0 z "},"Λ":{"ha":814,"x_min":31,"x_max":783,"o":"m 31 0 l 309 963 l 505 963 l 783 0 l 634 0 l 413 846 l 401 846 l 180 0 l 31 0 z "},"Μ":{"ha":814,"x_min":87,"x_max":727,"o":"m 87 0 l 87 963 l 297 963 l 401 549 l 412 549 l 517 963 l 727 963 l 727 0 l 591 0 l 591 792 l 574 792 l 469 393 l 345 393 l 240 792 l 222 792 l 222 0 l 87 0 z "},"Ν":{"ha":814,"x_min":100,"x_max":713,"o":"m 532 0 l 255 732 l 241 732 l 241 0 l 100 0 l 100 963 l 282 963 l 559 231 l 572 231 l 572 963 l 713 963 l 713 0 l 532 0 z "},"Ξ":{"ha":814,"x_min":68,"x_max":746,"o":"m 68 0 l 68 129 l 746 129 l 746 0 l 68 0 m 68 834 l 68 963 l 746 963 l 746 834 l 68 834 m 129 418 l 129 547 l 685 547 l 685 418 l 129 418 z "},"Ο":{"ha":814,"x_min":52,"x_max":762,"o":"m 407 -14 q 52 475 52 -14 q 407 977 52 977 q 762 475 762 977 q 407 -14 762 -14 m 407 111 q 617 475 617 111 q 407 852 617 852 q 197 475 197 852 q 407 111 197 111 z "},"Π":{"ha":814,"x_min":95,"x_max":719,"o":"m 578 0 l 578 834 l 236 834 l 236 0 l 95 0 l 95 963 l 719 963 l 719 0 l 578 0 z "},"Ρ":{"ha":814,"x_min":109,"x_max":760,"o":"m 109 0 l 109 963 l 392 963 q 666 882 573 963 q 760 644 760 802 q 666 386 760 474 q 392 298 573 298 l 250 298 l 250 0 l 109 0 m 250 427 l 392 427 q 617 644 617 427 q 392 834 617 834 l 250 834 l 250 427 z "},"Σ":{"ha":814,"x_min":102,"x_max":726,"o":"m 102 0 l 102 129 l 401 484 l 102 834 l 102 963 l 712 963 l 712 834 l 286 834 l 574 484 l 271 129 l 726 129 l 726 0 l 102 0 z "},"Τ":{"ha":814,"x_min":54,"x_max":760,"o":"m 336 0 l 336 834 l 54 834 l 54 963 l 760 963 l 760 834 l 477 834 l 477 0 l 336 0 z "},"Υ":{"ha":814,"x_min":17,"x_max":797,"o":"m 336 0 l 336 347 l 17 963 l 166 963 l 401 481 l 413 481 l 648 963 l 797 963 l 477 347 l 477 0 l 336 0 z "},"Φ":{"ha":814,"x_min":45,"x_max":769,"o":"m 343 -14 l 343 98 q 45 481 45 130 q 343 878 45 844 l 343 990 l 469 990 l 469 878 q 769 481 769 846 q 469 98 769 130 l 469 -14 l 343 -14 m 457 766 l 457 210 q 633 481 633 239 q 457 766 633 736 m 355 210 l 355 766 q 180 481 180 736 q 355 210 180 239 z "},"Χ":{"ha":814,"x_min":44,"x_max":770,"o":"m 614 0 l 407 361 l 200 0 l 44 0 l 339 477 l 44 963 l 200 963 l 407 594 l 614 963 l 770 963 l 475 477 l 770 0 l 614 0 z "},"Ψ":{"ha":814,"x_min":52,"x_max":762,"o":"m 336 343 l 336 963 l 477 963 l 477 342 q 621 576 621 378 l 621 963 l 762 963 l 762 576 q 477 214 762 248 l 477 0 l 336 0 l 336 214 q 52 576 52 249 l 52 963 l 193 963 l 193 576 q 336 343 193 379 z "},"Ω":{"ha":814,"x_min":52,"x_max":762,"o":"m 71 0 l 71 126 l 237 126 l 237 138 q 52 515 52 177 q 407 977 52 977 q 762 515 762 977 q 593 140 762 172 l 593 126 l 743 126 l 743 0 l 471 0 l 471 126 q 620 515 620 180 q 407 852 620 852 q 194 515 194 852 q 359 126 194 186 l 359 0 l 71 0 z "},"Ϊ":{"ha":814,"x_min":114,"x_max":700,"o":"m 114 0 l 114 129 l 336 129 l 336 834 l 114 834 l 114 963 l 700 963 l 700 834 l 477 834 l 477 129 l 700 129 l 700 0 l 114 0 m 266 1072 q 202 1098 229 1072 q 175 1162 175 1125 q 202 1227 175 1200 q 266 1253 229 1253 q 330 1227 304 1253 q 357 1162 357 1200 q 330 1098 357 1125 q 266 1072 304 1072 m 548 1072 q 484 1098 511 1072 q 457 1162 457 1125 q 484 1227 457 1200 q 548 1253 511 1253 q 612 1227 586 1253 q 639 1162 639 1200 q 612 1098 639 1125 q 548 1072 586 1072 z "},"Ϋ":{"ha":814,"x_min":17,"x_max":797,"o":"m 336 0 l 336 347 l 17 963 l 166 963 l 401 481 l 413 481 l 648 963 l 797 963 l 477 347 l 477 0 l 336 0 m 266 1072 q 202 1098 229 1072 q 175 1162 175 1125 q 202 1227 175 1200 q 266 1253 229 1253 q 330 1227 304 1253 q 357 1162 357 1200 q 330 1098 357 1125 q 266 1072 304 1072 m 548 1072 q 484 1098 511 1072 q 457 1162 457 1125 q 484 1227 457 1200 q 548 1253 511 1253 q 612 1227 586 1253 q 639 1162 639 1200 q 612 1098 639 1125 q 548 1072 586 1072 z "},"ά":{"ha":814,"x_min":52,"x_max":785,"o":"m 338 -14 q 126 81 201 -14 q 52 353 52 176 q 129 633 52 534 q 346 732 205 732 q 529 589 512 732 l 543 589 l 543 719 l 686 719 l 686 130 l 785 115 l 785 0 l 555 -7 l 545 130 l 529 130 q 470 22 522 58 q 338 -14 419 -14 m 543 312 l 543 407 q 499 557 543 503 q 380 610 456 610 q 242 543 291 610 q 194 353 194 476 q 373 109 194 109 q 498 162 453 109 q 543 312 543 216 m 325 846 l 440 1104 l 584 1104 l 455 846 l 325 846 z "},"έ":{"ha":814,"x_min":113,"x_max":712,"o":"m 425 -14 q 113 190 113 -14 q 320 359 113 331 l 320 373 q 133 557 133 420 q 435 732 133 732 q 712 693 627 732 l 668 570 q 450 608 574 608 q 283 524 283 608 q 566 418 283 429 l 549 295 l 528 295 q 262 197 262 295 q 430 111 262 111 q 569 124 514 111 q 668 149 625 137 l 705 19 q 580 -5 651 4 q 425 -14 509 -14 m 366 846 l 481 1104 l 625 1104 l 496 846 l 366 846 z "},"ή":{"ha":814,"x_min":114,"x_max":700,"o":"m 556 -312 l 556 468 q 522 573 556 536 q 427 610 488 610 q 258 404 258 610 l 258 0 l 114 0 l 114 719 l 244 719 l 256 589 l 271 589 q 461 732 283 732 q 637 663 575 732 q 700 468 700 594 l 700 -312 l 556 -312 m 332 846 l 447 1104 l 591 1104 l 462 846 l 332 846 z "},"ί":{"ha":814,"x_min":88,"x_max":722,"o":"m 518 -14 q 345 54 398 -14 q 292 271 292 122 l 292 600 l 88 600 l 88 719 l 435 719 l 435 278 q 461 154 435 193 q 572 115 486 115 q 705 141 625 115 l 722 15 q 621 -7 669 0 q 518 -14 573 -14 m 295 846 l 410 1104 l 554 1104 l 425 846 l 295 846 z "},"ΰ":{"ha":814,"x_min":3,"x_max":743,"o":"m 434 -14 q 159 278 159 -14 l 159 495 q 142 569 159 547 q 83 590 125 590 l 3 590 l 3 719 l 111 719 q 260 676 217 719 q 303 529 303 634 l 303 278 q 434 115 303 115 q 564 278 564 115 l 564 719 l 708 719 l 708 278 q 434 -14 708 -14 m 326 846 l 414 1104 l 557 1104 l 456 846 l 326 846 m 198 840 q 134 866 161 840 q 107 930 107 893 q 134 995 107 968 q 198 1021 161 1021 q 262 995 236 1021 q 289 930 289 968 q 262 866 289 893 q 198 840 236 840 m 652 840 q 588 866 615 840 q 562 930 562 893 q 588 995 562 968 q 652 1021 615 1021 q 717 995 690 1021 q 743 930 743 968 q 717 866 743 893 q 652 840 690 840 z "},"α":{"ha":814,"x_min":52,"x_max":785,"o":"m 338 -14 q 126 81 201 -14 q 52 353 52 176 q 129 633 52 534 q 346 732 205 732 q 529 589 512 732 l 543 589 l 543 719 l 686 719 l 686 130 l 785 115 l 785 0 l 555 -7 l 545 130 l 529 130 q 470 22 522 58 q 338 -14 419 -14 m 543 312 l 543 407 q 499 557 543 503 q 380 610 456 610 q 242 543 291 610 q 194 353 194 476 q 373 109 194 109 q 498 162 453 109 q 543 312 543 216 z "},"β":{"ha":814,"x_min":109,"x_max":742,"o":"m 444 -14 q 320 21 366 -14 q 266 119 274 56 l 252 119 l 252 -312 l 109 -312 l 109 694 q 188 945 109 860 q 422 1031 267 1031 q 701 760 701 1031 q 652 622 701 674 q 511 556 602 569 l 511 547 q 682 477 621 544 q 742 292 742 411 q 664 66 742 146 q 444 -14 586 -14 m 252 319 q 418 115 252 115 q 547 165 501 115 q 593 305 593 215 q 546 438 593 391 q 415 485 500 485 l 345 485 l 345 614 l 411 614 q 515 650 478 614 q 552 753 552 687 q 422 902 552 902 q 252 692 252 902 l 252 319 z "},"γ":{"ha":814,"x_min":18,"x_max":766,"o":"m 187 -312 q 192 -166 191 -245 q 194 7 194 -86 q 186 252 194 151 q 159 420 178 352 q 105 537 139 489 q 18 627 71 586 l 100 746 q 209 647 165 699 q 280 525 253 594 q 320 358 307 455 q 336 126 333 262 q 623 719 623 196 l 766 719 q 338 -7 766 57 q 336 -172 338 -96 q 331 -312 334 -248 l 187 -312 z "},"δ":{"ha":814,"x_min":85,"x_max":735,"o":"m 409 -14 q 171 66 256 -14 q 85 289 85 146 q 145 487 85 414 q 316 567 205 560 l 316 583 q 179 665 222 616 q 136 787 136 713 q 213 967 136 904 q 430 1031 290 1031 q 701 958 579 1031 l 632 848 q 430 902 546 902 q 315 878 351 902 q 279 801 279 854 q 310 728 279 757 q 418 678 341 699 q 590 609 519 650 q 698 497 661 568 q 735 309 735 427 q 649 72 735 157 q 409 -14 563 -14 m 410 111 q 543 167 495 111 q 590 323 590 222 q 539 475 590 418 q 404 533 488 533 q 278 472 326 533 q 231 309 231 410 q 278 163 231 216 q 410 111 326 111 z "},"ε":{"ha":814,"x_min":113,"x_max":712,"o":"m 425 -14 q 113 190 113 -14 q 320 359 113 331 l 320 373 q 133 557 133 420 q 435 732 133 732 q 712 693 627 732 l 668 570 q 450 608 574 608 q 283 524 283 608 q 566 418 283 429 l 549 295 l 528 295 q 262 197 262 295 q 430 111 262 111 q 569 124 514 111 q 668 149 625 137 l 705 19 q 580 -5 651 4 q 425 -14 509 -14 z "},"ζ":{"ha":814,"x_min":119,"x_max":734,"o":"m 520 -326 l 456 -203 q 591 -85 591 -164 q 567 -33 591 -52 q 496 -14 542 -14 q 218 78 317 -14 q 119 340 119 170 q 544 873 119 656 l 544 891 l 157 891 l 157 1017 l 730 1017 l 730 891 q 373 606 484 734 q 262 347 262 477 q 333 175 262 234 q 533 115 404 115 q 681 63 629 115 q 734 -85 734 10 q 520 -326 734 -271 z "},"η":{"ha":814,"x_min":114,"x_max":700,"o":"m 556 -312 l 556 468 q 522 573 556 536 q 427 610 488 610 q 258 404 258 610 l 258 0 l 114 0 l 114 719 l 244 719 l 256 589 l 271 589 q 461 732 283 732 q 637 663 575 732 q 700 468 700 594 l 700 -312 l 556 -312 z "},"θ":{"ha":814,"x_min":92,"x_max":722,"o":"m 407 -14 q 167 110 241 -14 q 92 509 92 234 q 167 907 92 783 q 407 1031 241 1031 q 647 907 572 1031 q 722 509 722 783 q 647 110 722 234 q 407 -14 572 -14 m 407 111 q 536 191 494 111 q 585 446 579 271 l 229 446 q 277 191 235 271 q 407 111 320 111 m 229 575 l 585 575 q 536 827 578 749 q 407 906 493 906 q 278 827 321 906 q 229 575 235 749 z "},"ι":{"ha":814,"x_min":88,"x_max":722,"o":"m 518 -14 q 345 54 398 -14 q 292 271 292 122 l 292 600 l 88 600 l 88 719 l 435 719 l 435 278 q 461 154 435 193 q 572 115 486 115 q 705 141 625 115 l 722 15 q 621 -7 669 0 q 518 -14 573 -14 z "},"κ":{"ha":814,"x_min":107,"x_max":780,"o":"m 107 0 l 107 719 l 251 719 l 251 130 l 266 130 q 303 272 276 204 q 378 401 330 340 l 640 732 l 758 652 l 537 375 l 780 0 l 619 0 l 447 263 l 237 0 l 107 0 z "},"λ":{"ha":814,"x_min":45,"x_max":796,"o":"m 724 -14 q 582 26 636 -14 q 498 170 528 66 l 382 574 l 357 567 q 367 481 368 522 q 351 401 366 439 l 199 0 l 45 0 l 342 715 l 321 787 q 275 877 302 851 q 208 902 248 902 q 166 897 190 902 l 150 1023 q 222 1031 184 1031 q 361 993 309 1031 q 443 854 414 955 l 622 231 q 668 141 640 166 q 738 115 696 115 q 780 121 756 115 l 796 -5 q 724 -14 762 -14 z "},"μ":{"ha":814,"x_min":102,"x_max":782,"o":"m 380 -14 q 241 138 271 -14 l 229 138 l 253 -312 l 102 -312 l 102 719 l 246 719 l 246 292 q 281 171 246 214 q 380 129 317 129 q 499 176 459 129 q 539 332 539 222 l 539 719 l 683 719 l 683 130 l 782 115 l 782 0 l 551 -7 l 541 138 l 528 138 q 380 -14 500 -14 z "},"ν":{"ha":814,"x_min":4,"x_max":760,"o":"m 301 0 l 224 264 q 171 426 198 355 q 104 543 143 496 q 4 614 65 591 l 87 732 q 247 605 191 694 q 336 380 302 515 l 401 122 l 410 122 l 606 719 l 760 719 l 499 0 l 301 0 z "},"ξ":{"ha":814,"x_min":96,"x_max":727,"o":"m 416 -14 q 106 231 106 -14 q 169 410 106 342 q 381 500 232 477 l 381 512 q 184 568 241 522 q 126 700 126 615 q 170 819 126 776 q 300 877 213 861 l 300 891 l 96 891 l 96 1017 l 709 1017 l 709 891 l 559 891 q 269 720 269 881 q 674 566 269 566 l 665 437 l 643 437 q 248 251 248 437 q 462 115 248 115 l 526 115 q 674 63 622 115 q 727 -85 727 10 q 513 -326 727 -271 l 463 -203 q 552 -154 520 -184 q 585 -85 585 -125 q 560 -33 585 -52 q 490 -14 535 -14 l 416 -14 z "},"ο":{"ha":814,"x_min":92,"x_max":722,"o":"m 407 -14 q 175 84 258 -14 q 92 359 92 182 q 175 635 92 538 q 407 732 258 732 q 639 635 557 732 q 722 359 722 538 q 639 84 722 182 q 407 -14 557 -14 m 407 115 q 529 179 486 115 q 572 359 572 243 q 529 540 572 477 q 407 604 486 604 q 284 540 328 604 q 241 359 241 477 q 284 179 241 243 q 407 115 328 115 z "},"π":{"ha":814,"x_min":41,"x_max":755,"o":"m 656 -14 q 512 40 557 -14 q 468 210 468 93 l 468 590 l 298 590 l 298 0 l 155 0 l 155 590 l 41 590 l 41 719 l 746 719 l 746 590 l 612 590 l 612 217 q 628 139 612 163 q 697 115 644 115 q 716 117 707 115 q 739 121 726 118 l 755 -5 q 709 -12 730 -10 q 656 -14 688 -14 z "},"ρ":{"ha":814,"x_min":114,"x_max":749,"o":"m 456 -14 q 328 23 377 -14 q 271 132 278 60 l 258 132 l 258 -312 l 114 -312 l 114 397 q 194 647 114 562 q 431 732 275 732 q 668 636 588 732 q 749 353 749 540 q 672 81 749 176 q 456 -14 595 -14 m 258 330 q 419 109 258 109 q 606 353 606 109 q 431 610 606 610 q 258 391 258 610 l 258 330 z "},"ς":{"ha":814,"x_min":92,"x_max":744,"o":"m 473 -326 l 408 -203 q 511 -154 475 -184 q 548 -85 548 -123 q 469 -14 548 -16 l 408 -14 q 175 83 257 -14 q 92 361 92 180 q 187 635 92 537 q 457 732 281 732 q 637 693 562 732 q 744 583 712 654 l 633 500 q 555 576 603 549 q 452 604 508 604 q 297 542 352 604 q 241 368 241 481 q 294 180 241 245 q 445 115 347 115 l 506 115 q 642 61 594 114 q 690 -85 690 9 q 633 -236 690 -174 q 473 -326 576 -299 z "},"σ":{"ha":814,"x_min":72,"x_max":766,"o":"m 383 -14 q 151 78 230 -14 q 72 346 72 169 q 154 622 72 524 q 383 719 235 719 l 766 719 l 766 590 l 535 590 l 535 574 q 613 531 579 567 q 668 440 648 495 q 688 319 688 385 q 610 71 688 155 q 383 -14 533 -14 m 383 115 q 538 346 538 115 q 498 527 538 463 q 383 590 458 590 q 263 527 305 590 q 221 346 221 463 q 383 115 221 115 z "},"τ":{"ha":814,"x_min":75,"x_max":712,"o":"m 505 -14 q 331 54 385 -14 q 278 271 278 122 l 278 590 l 75 590 l 75 719 l 712 719 l 712 590 l 422 590 l 422 278 q 447 154 422 193 q 559 115 473 115 q 692 141 612 115 l 708 15 q 608 -7 656 0 q 505 -14 559 -14 z "},"υ":{"ha":814,"x_min":3,"x_max":708,"o":"m 434 -14 q 159 278 159 -14 l 159 495 q 142 569 159 547 q 83 590 125 590 l 3 590 l 3 719 l 111 719 q 260 676 217 719 q 303 529 303 634 l 303 278 q 434 115 303 115 q 564 278 564 115 l 564 719 l 708 719 l 708 278 q 434 -14 708 -14 z "},"φ":{"ha":814,"x_min":58,"x_max":755,"o":"m 335 -312 l 335 -9 q 58 359 58 26 q 335 728 58 692 l 335 1017 l 479 1017 l 479 728 q 755 359 755 692 q 479 -9 755 26 l 479 -312 l 335 -312 m 352 100 l 352 619 q 194 359 194 588 q 352 100 194 131 m 462 619 l 462 100 q 620 359 620 131 q 462 619 620 588 z "},"χ":{"ha":814,"x_min":39,"x_max":766,"o":"m 694 -326 q 550 -284 603 -326 q 460 -142 497 -242 l 389 50 l 221 -312 l 58 -312 l 337 191 l 227 488 q 172 578 203 552 q 97 604 141 604 q 55 598 79 604 l 39 724 q 111 732 73 732 q 252 693 200 732 q 338 556 303 653 l 416 347 l 593 719 l 755 719 l 468 207 l 574 -81 q 630 -171 598 -146 q 707 -197 662 -197 q 749 -191 726 -197 l 766 -317 q 694 -326 731 -326 z "},"ψ":{"ha":814,"x_min":72,"x_max":742,"o":"m 335 -312 l 335 -9 q 72 359 72 28 l 72 719 l 209 719 l 209 359 q 352 114 209 146 l 342 1017 l 472 1017 l 462 114 q 605 359 605 146 l 605 719 l 742 719 l 742 359 q 479 -9 742 28 l 479 -312 l 335 -312 z "},"ω":{"ha":814,"x_min":72,"x_max":734,"o":"m 561 -14 q 454 42 490 -14 q 406 220 417 97 l 400 220 q 350 42 389 97 q 238 -14 311 -14 q 115 46 157 -14 q 72 217 72 106 l 72 719 l 216 719 l 216 217 q 232 137 216 165 q 279 109 248 109 q 326 139 310 109 q 342 244 342 170 l 342 583 l 464 583 l 464 244 q 480 139 464 170 q 527 109 496 109 q 574 137 558 109 q 590 217 590 165 l 590 719 l 734 719 l 734 217 q 690 46 734 106 q 561 -14 646 -14 z "},"ϊ":{"ha":814,"x_min":88,"x_max":722,"o":"m 518 -14 q 345 54 398 -14 q 292 271 292 122 l 292 600 l 88 600 l 88 719 l 435 719 l 435 278 q 461 154 435 193 q 572 115 486 115 q 705 141 625 115 l 722 15 q 621 -7 669 0 q 518 -14 573 -14 m 222 840 q 158 866 185 840 q 132 930 132 893 q 158 995 132 968 q 222 1021 185 1021 q 287 995 260 1021 q 313 930 313 968 q 287 866 313 893 q 222 840 260 840 m 507 840 q 443 866 470 840 q 416 930 416 893 q 443 995 416 968 q 507 1021 470 1021 q 572 995 545 1021 q 598 930 598 968 q 572 866 598 893 q 507 840 545 840 z "},"ϋ":{"ha":814,"x_min":3,"x_max":708,"o":"m 434 -14 q 159 278 159 -14 l 159 495 q 142 569 159 547 q 83 590 125 590 l 3 590 l 3 719 l 111 719 q 260 676 217 719 q 303 529 303 634 l 303 278 q 434 115 303 115 q 564 278 564 115 l 564 719 l 708 719 l 708 278 q 434 -14 708 -14 m 266 840 q 202 866 229 840 q 175 930 175 893 q 202 995 175 968 q 266 1021 229 1021 q 330 995 304 1021 q 357 930 357 968 q 330 866 357 893 q 266 840 304 840 m 551 840 q 487 866 513 840 q 460 930 460 893 q 487 995 460 968 q 551 1021 513 1021 q 615 995 589 1021 q 642 930 642 968 q 615 866 642 893 q 551 840 589 840 z "},"ό":{"ha":814,"x_min":92,"x_max":722,"o":"m 407 -14 q 175 84 258 -14 q 92 359 92 182 q 175 635 92 538 q 407 732 258 732 q 639 635 557 732 q 722 359 722 538 q 639 84 722 182 q 407 -14 557 -14 m 407 115 q 529 179 486 115 q 572 359 572 243 q 529 540 572 477 q 407 604 486 604 q 284 540 328 604 q 241 359 241 477 q 284 179 241 243 q 407 115 328 115 m 338 846 l 454 1104 l 597 1104 l 469 846 l 338 846 z "},"ύ":{"ha":814,"x_min":3,"x_max":708,"o":"m 434 -14 q 159 278 159 -14 l 159 495 q 142 569 159 547 q 83 590 125 590 l 3 590 l 3 719 l 111 719 q 260 676 217 719 q 303 529 303 634 l 303 278 q 434 115 303 115 q 564 278 564 115 l 564 719 l 708 719 l 708 278 q 434 -14 708 -14 m 338 846 l 454 1104 l 597 1104 l 469 846 l 338 846 z "},"ώ":{"ha":814,"x_min":72,"x_max":734,"o":"m 561 -14 q 454 42 490 -14 q 406 220 417 97 l 400 220 q 350 42 389 97 q 238 -14 311 -14 q 115 46 157 -14 q 72 217 72 106 l 72 719 l 216 719 l 216 217 q 232 137 216 165 q 279 109 248 109 q 326 139 310 109 q 342 244 342 170 l 342 583 l 464 583 l 464 244 q 480 139 464 170 q 527 109 496 109 q 574 137 558 109 q 590 217 590 165 l 590 719 l 734 719 l 734 217 q 690 46 734 106 q 561 -14 646 -14 m 338 846 l 454 1104 l 597 1104 l 469 846 l 338 846 z "},"Ϗ":{"ha":814,"x_min":102,"x_max":788,"o":"m 102 0 l 102 963 l 243 963 l 243 443 q 404 499 336 452 q 515 618 471 546 q 581 780 559 691 q 602 963 602 869 l 742 963 q 694 684 742 817 q 554 458 646 551 l 750 158 q 780 98 772 125 q 788 32 788 71 l 788 -268 l 647 -268 l 647 18 q 639 64 647 43 q 609 117 631 85 l 440 370 q 347 330 397 346 q 243 309 298 315 l 243 0 l 102 0 z "},"ϗ":{"ha":814,"x_min":107,"x_max":758,"o":"m 237 0 l 107 0 l 107 719 l 251 719 l 251 130 l 266 130 q 303 272 276 204 q 378 401 330 340 l 640 732 l 758 652 l 539 378 l 708 159 q 740 102 730 130 q 749 34 749 75 l 749 -268 l 606 -268 l 606 8 q 600 64 606 43 q 578 104 593 85 l 451 267 l 237 0 z "},"Ѐ":{"ha":814,"x_min":109,"x_max":746,"o":"m 366 1072 l 182 1241 l 374 1241 l 523 1072 l 366 1072 z "},"Ё":{"ha":814,"x_min":109,"x_max":746,"o":"m 286 1072 q 222 1098 249 1072 q 195 1162 195 1125 q 222 1227 195 1200 q 286 1253 249 1253 q 351 1227 324 1253 q 377 1162 377 1200 q 351 1098 377 1125 q 286 1072 324 1072 m 568 1072 q 504 1098 531 1072 q 477 1162 477 1125 q 504 1227 477 1200 q 568 1253 531 1253 q 633 1227 606 1253 q 659 1162 659 1200 q 633 1098 659 1125 q 568 1072 606 1072 z "},"Ђ":{"ha":814,"x_min":-7,"x_max":734,"o":"m 415 0 l 415 129 q 598 302 598 129 q 427 471 598 471 l 301 471 l 301 0 l 160 0 l 160 834 l -7 834 l -7 963 l 549 963 l 549 834 l 301 834 l 301 600 l 427 600 q 734 302 734 600 q 415 0 734 0 z "},"Ѓ":{"ha":814,"x_min":122,"x_max":739,"o":"m 122 0 l 122 963 l 739 963 l 739 834 l 263 834 l 263 0 l 122 0 m 332 1072 l 481 1241 l 672 1241 l 489 1072 l 332 1072 z "},"Є":{"ha":814,"x_min":65,"x_max":779,"o":"m 514 -14 q 65 483 65 -14 q 178 847 65 718 q 498 977 292 977 q 671 945 597 977 q 779 855 745 913 l 679 755 q 601 827 648 802 q 499 852 554 852 q 300 775 378 852 q 207 557 222 699 l 585 557 l 585 429 l 206 429 q 537 111 232 111 q 731 152 635 111 l 762 33 q 514 -14 644 -14 z "},"Ѕ":{"ha":814,"x_min":87,"x_max":720,"o":"m 374 -14 q 87 39 210 -14 l 105 176 q 249 128 180 144 q 385 111 319 111 q 572 245 572 111 q 484 372 572 332 l 317 448 q 166 555 218 492 q 113 712 113 618 q 189 907 113 838 q 404 977 265 977 q 576 948 501 977 q 720 855 650 920 l 625 759 q 513 830 565 808 q 405 852 461 852 q 297 818 335 852 q 258 719 258 785 q 283 643 258 672 q 357 590 309 613 l 498 524 q 661 410 606 473 q 717 248 717 347 q 374 -14 717 -14 z "},"І":{"ha":814,"x_min":114,"x_max":700,"o":"m 114 0 l 114 129 l 336 129 l 336 834 l 114 834 l 114 963 l 700 963 l 700 834 l 477 834 l 477 129 l 700 129 l 700 0 l 114 0 z "},"Ї":{"ha":814,"x_min":114,"x_max":700,"o":"m 114 0 l 114 129 l 336 129 l 336 834 l 114 834 l 114 963 l 700 963 l 700 834 l 477 834 l 477 129 l 700 129 l 700 0 l 114 0 m 266 1072 q 202 1098 229 1072 q 175 1162 175 1125 q 202 1227 175 1200 q 266 1253 229 1253 q 330 1227 304 1253 q 357 1162 357 1200 q 330 1098 357 1125 q 266 1072 304 1072 m 548 1072 q 484 1098 511 1072 q 457 1162 457 1125 q 484 1227 457 1200 q 548 1253 511 1253 q 612 1227 586 1253 q 639 1162 639 1200 q 612 1098 639 1125 q 548 1072 586 1072 z "},"Ј":{"ha":814,"x_min":58,"x_max":720,"o":"m 389 -14 q 144 75 231 -14 q 58 323 58 163 l 199 323 q 250 165 199 221 q 393 109 300 109 q 531 164 482 109 q 579 323 579 220 l 579 834 l 332 834 l 332 963 l 720 963 l 720 323 q 633 75 720 163 q 389 -14 545 -14 z "},"Љ":{"ha":814,"x_min":36,"x_max":762,"o":"m 36 0 l 36 129 q 125 166 101 129 q 149 302 149 203 l 149 963 l 508 963 l 508 621 l 586 621 q 714 536 666 621 q 762 311 762 451 q 714 85 762 170 q 586 0 666 0 l 380 0 l 380 834 l 260 834 l 260 307 q 240 122 260 189 q 171 27 220 55 q 36 0 121 0 m 508 129 l 547 129 q 610 179 586 129 q 633 311 633 229 q 610 443 633 393 q 547 492 586 492 l 508 492 l 508 129 z "},"Њ":{"ha":814,"x_min":87,"x_max":762,"o":"m 87 0 l 87 963 l 228 963 l 228 544 l 366 544 l 366 963 l 507 963 l 507 621 l 579 621 q 712 536 662 621 q 762 311 762 451 q 712 85 762 170 q 579 0 662 0 l 366 0 l 366 415 l 228 415 l 228 0 l 87 0 m 507 129 l 540 129 q 608 179 582 129 q 633 311 633 229 q 608 443 633 393 q 540 492 582 492 l 507 492 l 507 129 z "},"Ћ":{"ha":814,"x_min":14,"x_max":720,"o":"m 579 0 l 579 305 q 546 424 579 387 q 441 461 513 461 l 304 461 l 304 0 l 163 0 l 163 834 l 14 834 l 14 963 l 570 963 l 570 834 l 304 834 l 304 590 l 441 590 q 654 523 588 590 q 720 305 720 455 l 720 0 l 579 0 z "},"Ќ":{"ha":814,"x_min":95,"x_max":766,"o":"m 95 0 l 95 963 l 236 963 l 236 546 l 367 546 q 458 573 433 546 q 496 661 484 600 l 522 785 q 556 893 536 854 q 610 949 576 932 q 704 966 645 966 l 753 966 l 753 838 l 721 838 q 677 821 690 838 q 656 767 665 805 l 620 623 q 573 527 605 563 q 460 491 542 491 l 422 491 l 422 472 l 460 472 q 582 436 547 472 q 633 340 618 400 l 669 196 q 690 142 678 158 q 734 125 703 125 l 766 125 l 766 -3 l 711 -3 q 617 14 652 -3 q 563 70 583 31 q 529 178 543 110 l 503 302 q 465 390 491 363 q 367 417 438 417 l 236 417 l 236 0 l 95 0 m 318 1072 l 467 1241 l 659 1241 l 475 1072 l 318 1072 z "},"Ѝ":{"ha":814,"x_min":100,"x_max":713,"o":"m 100 0 l 100 963 l 236 963 l 236 237 l 250 237 l 557 963 l 713 963 l 713 0 l 578 0 l 578 726 l 564 726 l 256 0 l 100 0 m 345 1072 l 162 1241 l 353 1241 l 503 1072 l 345 1072 z "},"Ў":{"ha":814,"x_min":58,"x_max":791,"o":"m 131 0 l 131 129 q 271 141 214 129 q 366 186 327 154 l 58 963 l 208 963 l 446 346 l 456 346 l 642 963 l 791 963 l 554 244 q 468 97 519 151 q 337 22 418 44 q 131 0 257 0 m 434 1065 q 262 1116 323 1065 q 201 1261 201 1168 l 333 1261 q 359 1179 333 1202 q 434 1157 386 1157 q 509 1179 482 1157 q 535 1261 535 1202 l 667 1261 q 606 1116 667 1168 q 434 1065 545 1065 z "},"Џ":{"ha":814,"x_min":95,"x_max":719,"o":"m 336 -197 l 336 0 l 95 0 l 95 963 l 236 963 l 236 129 l 578 129 l 578 963 l 719 963 l 719 0 l 477 0 l 477 -197 l 336 -197 z "},"А":{"ha":814,"x_min":31,"x_max":783,"o":"m 31 0 l 309 963 l 505 963 l 783 0 l 641 0 l 578 235 l 236 235 l 173 0 l 31 0 m 271 363 l 543 363 l 413 846 l 401 846 l 271 363 z "},"Б":{"ha":814,"x_min":109,"x_max":760,"o":"m 109 0 l 109 963 l 689 963 l 689 834 l 250 834 l 250 587 l 468 587 q 683 512 607 587 q 760 300 760 437 q 683 79 760 157 q 468 0 607 0 l 109 0 m 250 129 l 449 129 q 573 174 530 129 q 617 300 617 218 q 573 417 617 376 q 449 458 530 458 l 250 458 l 250 129 z "},"В":{"ha":814,"x_min":109,"x_max":769,"o":"m 109 0 l 109 963 l 395 963 q 621 900 541 963 q 701 719 701 836 q 641 578 701 631 q 471 514 581 526 l 471 506 q 691 441 613 504 q 769 264 769 378 q 693 69 769 138 q 477 0 617 0 l 109 0 m 250 129 l 438 129 q 577 170 528 129 q 627 285 627 211 q 575 402 627 361 q 429 444 524 444 l 250 444 l 250 129 m 250 573 l 397 573 q 516 607 474 573 q 559 705 559 642 q 514 801 559 768 q 388 834 470 834 l 250 834 l 250 573 z "},"Г":{"ha":814,"x_min":122,"x_max":739,"o":"m 122 0 l 122 963 l 739 963 l 739 834 l 263 834 l 263 0 l 122 0 z "},"Д":{"ha":814,"x_min":20,"x_max":793,"o":"m 20 -197 l 20 129 l 83 129 q 116 215 102 161 q 141 335 131 269 q 156 467 151 401 q 161 589 161 534 l 161 963 l 708 963 l 708 129 l 793 129 l 793 -197 l 652 -197 l 652 0 l 161 0 l 161 -197 l 20 -197 m 567 129 l 567 834 l 292 834 l 292 593 q 287 475 292 539 q 274 345 283 410 q 252 223 265 280 q 220 129 238 167 l 567 129 z "}}}
